<svg xmlns="http://www.w3.org/2000/svg" width="483" height="233" fill="none"><path fill="#353535" d="M241.5 0c65.954 0 125.884 12.51 169.493 32.935C454.243 53.192 483 82.07 483 115.5c0 9.01-3.853 17.499-10.262 25.311-6.395 7.794-15.516 15.146-26.58 22.029-22.13 13.766-52.785 26.112-87.281 36.459-12.272 3.681-25.064 7.115-38.172 10.279 11.118.278 22.391.422 33.795.422v9c-23.542 0-46.554-.6-68.819-1.758C235.042 227.224 182.436 233 138.5 233v-9c33.059 0 71.189-3.328 109.663-9.293-54.265-4.543-102.901-12.559-142.345-23.415-31.891-8.777-58.051-19.484-76.341-31.902C11.282 147.036 0 132.348 0 115.5c0-33.43 28.757-62.308 72.007-82.565C115.616 12.511 175.546 0 241.5 0ZM9 115.5c0 12.423 8.305 24.746 25.532 36.443 17.132 11.632 42.229 22.016 73.675 30.671 47.318 13.023 108.386 21.962 176.83 25.582 24.663-4.894 48.838-10.794 71.254-17.517 34.143-10.241 63.945-22.314 85.113-35.482 10.585-6.584 18.825-13.329 24.376-20.095 5.538-6.75 8.22-13.286 8.22-19.602 0-27.874-24.297-54.496-66.824-74.414C365.008 21.336 306.438 9 241.5 9 176.562 9 117.992 21.337 75.824 41.086 33.297 61.004 9 87.626 9 115.5Z"/></svg>