<svg width="160" height="160" viewBox="0 0 160 160" fill="none" xmlns="http://www.w3.org/2000/svg">
  <g transform="translate(38.5, 37)">
    <path d="M1.78219 84.8322L0 83.2283L14.7922 12.4753L17.2872 14.4357L0.712875 11.0496L1.24753 8.37629L31.3665 0L33.327 1.60397L29.2279 21.0298L29.0497 22.2774L23.8813 47.4062C22.6932 53.2281 21.5645 59.1687 20.4952 65.2281C19.5447 71.2876 18.713 77.347 18.0001 83.4065L1.78219 84.8322ZM56.3172 85.7233C53.4657 85.7233 50.9706 84.9511 48.832 83.4065C46.8122 81.7431 45.8023 79.4857 45.8023 76.6342C45.8023 74.9708 45.9805 73.0698 46.3369 70.9312C46.6934 68.6737 47.1686 66.2381 47.7627 63.6242L54.7132 32.9705C55.3073 30.3566 55.9014 27.6239 56.4954 24.7724C57.2083 21.8021 57.5647 19.4853 57.5647 17.8219C57.5647 15.9209 57.0301 14.4952 55.9608 13.5446C54.8915 12.4753 53.5845 11.9407 52.04 11.9407C50.0201 11.9407 47.7033 12.4753 45.0894 13.5446C42.5943 14.4952 39.8022 16.0397 36.7131 18.1783C33.7428 20.1982 30.3566 22.812 26.5546 26.02L25.3071 22.812H26.3764C30.416 18.5348 34.4557 14.6734 38.4953 11.2278C42.6538 7.66342 46.7528 4.93073 50.7924 3.02972C54.9509 1.00991 58.9905 0 62.9113 0C66.5945 0 69.446 1.06932 71.4658 3.20795C73.6044 5.34658 74.6738 8.61392 74.6738 13.01C74.6738 15.6239 74.4361 18.2971 73.9609 21.0298C73.4856 23.6437 72.951 26.317 72.3569 29.0497L64.5153 62.7331C64.04 64.6341 63.6836 66.2975 63.446 67.7232C63.2083 69.149 63.0895 70.3371 63.0895 71.2876C63.0895 72.3569 63.3866 73.1292 63.9806 73.6044C64.5747 74.0797 65.2876 74.3173 66.1192 74.3173C67.6638 74.3173 69.6836 73.4262 72.1787 71.644C74.7926 69.743 77.4659 67.1292 80.1985 63.8024L82.6936 65.5846C80.9114 68.7925 78.7134 72.0005 76.0995 75.2084C73.6044 78.2975 70.6935 80.852 67.3668 82.8718C64.1588 84.7728 60.4757 85.7233 56.3172 85.7233Z" fill="black"/>
  </g>
</svg>
