<svg width="536" height="244" viewBox="0 0 536 244" fill="none" xmlns="http://www.w3.org/2000/svg">
<path d="M9.98026 185.426L8.19807 183.822L22.9903 113.069L25.4853 115.029L8.91095 111.643L9.44561 108.97L39.5646 100.594L41.525 102.197L37.426 121.623L37.2478 122.871L32.0794 148C30.8913 153.822 29.7626 159.762 28.6933 165.822C27.7428 171.881 26.9111 177.941 26.1982 184L9.98026 185.426ZM64.5153 186.317C61.6638 186.317 59.1687 185.545 57.0301 184C55.0103 182.337 54.0004 180.079 54.0004 177.228C54.0004 175.564 54.1786 173.663 54.535 171.525C54.8915 169.267 55.3667 166.832 55.9608 164.218L62.9113 133.564C63.5054 130.95 64.0994 128.217 64.6935 125.366C65.4064 122.396 65.7628 120.079 65.7628 118.415C65.7628 116.514 65.2282 115.089 64.1588 114.138C63.0895 113.069 61.7826 112.534 60.238 112.534C58.2182 112.534 55.9014 113.069 53.2875 114.138C50.7924 115.089 48.0003 116.633 44.9112 118.772C41.9409 120.792 38.5547 123.406 34.7527 126.613L33.5052 123.406H34.5745C38.6141 119.128 42.6537 115.267 46.6934 111.821C50.8518 108.257 54.9509 105.524 58.9905 103.623C63.1489 101.603 67.1886 100.594 71.1094 100.594C74.7926 100.594 77.6441 101.663 79.6639 103.801C81.8025 105.94 82.8718 109.207 82.8718 113.603C82.8718 116.217 82.6342 118.891 82.159 121.623C81.6837 124.237 81.1491 126.911 80.555 129.643L72.7134 163.327C72.2381 165.228 71.8817 166.891 71.644 168.317C71.4064 169.742 71.2876 170.931 71.2876 171.881C71.2876 172.95 71.5846 173.723 72.1787 174.198C72.7728 174.673 73.4856 174.911 74.3173 174.911C75.8619 174.911 77.8817 174.02 80.3768 172.238C82.9906 170.337 85.6639 167.723 88.3966 164.396L90.8917 166.178C89.1095 169.386 86.9115 172.594 84.2976 175.802C81.8025 178.891 78.8916 181.446 75.5649 183.465C72.3569 185.366 68.6737 186.317 64.5153 186.317ZM126.178 186.317C120.95 186.317 116.079 185.188 111.564 182.931C107.168 180.673 103.603 177.228 100.871 172.594C98.2567 167.841 96.9497 161.96 96.9497 154.95C96.9497 147.94 97.9596 141.227 99.9795 134.812C101.999 128.277 104.91 122.455 108.712 117.346C112.633 112.118 117.267 108.019 122.613 105.049C128.079 102.079 134.138 100.594 140.792 100.594C146.019 100.594 150.831 101.722 155.227 103.98C159.742 106.237 163.366 109.683 166.099 114.316C168.831 118.95 170.198 124.831 170.198 131.96C170.198 138.97 169.128 145.742 166.99 152.277C164.97 158.693 162 164.515 158.079 169.742C154.277 174.851 149.703 178.891 144.356 181.861C139.009 184.832 132.95 186.317 126.178 186.317ZM126.178 182.396C129.029 182.396 131.762 181.386 134.376 179.366C137.108 177.228 139.603 174.317 141.861 170.634C144.118 166.95 146.079 162.733 147.742 157.98C149.524 153.228 150.831 148.119 151.663 142.653C152.613 137.188 153.089 131.663 153.089 126.079C153.089 118.712 152.079 113.306 150.059 109.861C148.039 106.415 144.95 104.693 140.792 104.693C137.821 104.693 134.97 105.702 132.237 107.722C129.623 109.742 127.188 112.653 124.93 116.455C122.791 120.138 120.89 124.356 119.227 129.109C117.564 133.742 116.257 138.792 115.306 144.257C114.356 149.723 113.881 155.247 113.881 160.832C113.881 168.198 114.89 173.663 116.91 177.228C119.049 180.673 122.138 182.396 126.178 182.396ZM155.564 228.911L156.277 225.703L173.208 223.208H184.97L202.436 225.703L201.901 228.911H155.564ZM169.109 228.911L193.169 113.069L196.02 115.029L179.446 111.643L179.98 108.97L210.099 100.594L212.06 102.197L207.604 123.762L207.248 125.366L196.198 177.941L195.485 180.97C194.178 187.386 192.931 193.505 191.743 199.327C190.673 205.149 189.664 210.555 188.713 215.545C187.763 220.535 186.99 224.99 186.396 228.911H169.109ZM203.862 186.317C200.178 186.317 196.555 185.366 192.99 183.465C189.426 181.564 186.574 178.891 184.436 175.445L193.347 168.495C195.01 170.515 197.03 172.475 199.406 174.376C201.782 176.277 204.693 177.228 208.139 177.228C210.04 177.228 211.822 176.931 213.485 176.337C215.268 175.743 216.931 174.911 218.476 173.842C220.02 172.653 221.505 171.346 222.931 169.921C226.139 166.238 228.812 161.841 230.951 156.732C233.208 151.624 234.872 146.396 235.941 141.049C237.129 135.703 237.723 130.95 237.723 126.792C237.723 122.277 237.189 118.653 236.119 115.92C235.05 113.188 232.674 111.821 228.991 111.821C227.09 111.821 224.832 112.475 222.218 113.782C219.723 114.97 216.872 117.049 213.664 120.019C210.575 122.99 207.07 126.97 203.149 131.96L201.723 129.287H202.971C206.06 124.415 209.386 119.782 212.951 115.386C216.634 110.99 220.495 107.425 224.535 104.693C228.694 101.96 233.09 100.594 237.723 100.594C240.694 100.594 243.486 101.366 246.1 102.91C248.713 104.336 250.793 106.653 252.337 109.861C254.001 113.069 254.832 117.287 254.832 122.514C254.832 127.742 253.822 133.326 251.803 139.267C249.783 145.208 247.05 150.97 243.604 156.554C240.159 162.02 236.238 167.01 231.842 171.525C227.446 176.04 222.812 179.663 217.941 182.396C213.188 185.01 208.495 186.317 203.862 186.317ZM286.046 143.01L284.442 136.059H286.224C289.551 128.455 292.818 122.039 296.026 116.811C299.353 111.465 302.798 107.425 306.363 104.693C310.046 101.96 313.967 100.594 318.125 100.594C320.264 100.594 322.343 101.188 324.363 102.376C326.383 103.445 327.808 105.405 328.64 108.257C328.521 111.108 327.452 113.603 325.432 115.742C323.531 117.881 321.036 118.95 317.947 118.95C315.452 118.95 313.373 118.415 311.709 117.346C310.165 116.158 308.382 114.495 306.363 112.356L304.046 109.683L307.967 108.792V109.861C304.996 112.356 302.204 115.326 299.59 118.772C297.095 122.217 294.719 126.019 292.462 130.178C290.204 134.217 288.065 138.495 286.046 143.01ZM262.521 183.822L277.313 113.069L279.808 115.029L263.234 111.643L263.768 108.97L292.818 100.594L294.957 102.197L288.719 133.742L289.254 134.633L286.402 148C285.214 153.822 284.145 159.762 283.194 165.822C282.244 171.881 281.353 177.941 280.521 184L264.481 185.426L262.521 183.822ZM352.306 186.317C347.078 186.317 342.206 185.188 337.692 182.931C333.295 180.673 329.731 177.228 326.998 172.594C324.385 167.841 323.078 161.96 323.078 154.95C323.078 147.94 324.088 141.227 326.107 134.812C328.127 128.277 331.038 122.455 334.84 117.346C338.761 112.118 343.395 108.019 348.741 105.049C354.207 102.079 360.266 100.594 366.919 100.594C372.147 100.594 376.959 101.722 381.355 103.98C385.87 106.237 389.494 109.683 392.227 114.316C394.959 118.95 396.326 124.831 396.326 131.96C396.326 138.97 395.256 145.742 393.118 152.277C391.098 158.693 388.128 164.515 384.207 169.742C380.405 174.851 375.83 178.891 370.484 181.861C365.137 184.832 359.078 186.317 352.306 186.317ZM352.306 182.396C355.157 182.396 357.89 181.386 360.504 179.366C363.236 177.228 365.731 174.317 367.989 170.634C370.246 166.95 372.207 162.733 373.87 157.98C375.652 153.228 376.959 148.119 377.791 142.653C378.741 137.188 379.217 131.663 379.217 126.079C379.217 118.712 378.207 113.306 376.187 109.861C374.167 106.415 371.078 104.693 366.919 104.693C363.949 104.693 361.098 105.702 358.365 107.722C355.751 109.742 353.315 112.653 351.058 116.455C348.919 120.138 347.018 124.356 345.355 129.109C343.692 133.742 342.385 138.792 341.434 144.257C340.484 149.723 340.008 155.247 340.008 160.832C340.008 168.198 341.018 173.663 343.038 177.228C345.177 180.673 348.266 182.396 352.306 182.396ZM426.073 186.317C423.578 186.317 421.083 185.901 418.588 185.069C416.211 184.356 414.073 183.168 412.172 181.505C410.271 179.842 408.786 177.703 407.716 175.089C406.647 172.475 406.112 169.327 406.112 165.643C406.112 161.96 406.528 158.039 407.36 153.881C408.192 149.723 409.023 145.802 409.855 142.119L426.251 63.7022L428.212 67.2666L411.994 63.7022L412.528 61.0289L442.469 52.6526L444.608 54.2566L430.35 123.584L429.994 125.722L426.073 144.435C425.716 146.218 425.241 148.356 424.647 150.851C424.053 153.346 423.518 155.901 423.043 158.515C422.568 161.01 422.33 163.386 422.33 165.643C422.33 168.851 423.043 171.584 424.469 173.842C426.013 176.099 428.568 177.228 432.132 177.228C435.578 177.228 438.608 176.337 441.221 174.554C443.954 172.772 446.449 170.396 448.707 167.426C451.558 163.624 453.934 159.346 455.835 154.594C457.736 149.723 459.162 144.851 460.113 139.98C461.063 134.99 461.538 130.594 461.538 126.792C461.538 122.039 460.885 118.356 459.578 115.742C458.271 113.128 455.895 111.821 452.449 111.821C450.429 111.821 448.113 112.475 445.499 113.782C442.885 114.97 439.915 117.049 436.588 120.019C433.38 122.99 429.815 126.97 425.895 131.96L425.004 129.287H425.716C429.281 123.821 432.905 118.95 436.588 114.673C440.39 110.277 444.37 106.831 448.528 104.336C452.687 101.841 456.964 100.594 461.36 100.594C464.449 100.594 467.301 101.366 469.915 102.91C472.529 104.336 474.608 106.653 476.152 109.861C477.816 113.069 478.647 117.287 478.647 122.514C478.647 127.742 477.697 133.326 475.796 139.267C473.895 145.208 471.222 150.97 467.776 156.554C464.331 162.02 460.35 167.01 455.835 171.525C451.439 176.04 446.687 179.663 441.578 182.396C436.469 185.01 431.301 186.317 426.073 186.317Z" fill="black"/>
<path d="M503.043 86.3509V64.0746H514.332C515.237 64.0746 516.223 64.3362 517.29 64.8594C518.356 65.3625 519.262 66.1473 520.006 67.2138C520.771 68.2602 521.153 69.5883 521.153 71.1982C521.153 72.8281 520.761 74.2166 519.976 75.3636C519.191 76.4905 518.236 77.3458 517.109 77.9293C516.002 78.5129 514.955 78.8047 513.969 78.8047H505.82V75.1825H512.46C513.124 75.1825 513.839 74.8505 514.603 74.1864C515.388 73.5224 515.781 72.5263 515.781 71.1982C515.781 69.8298 515.388 68.9041 514.603 68.4212C513.839 67.9382 513.165 67.6967 512.581 67.6967H507.933V86.3509H503.043ZM516.505 75.8466L522.059 86.3509H516.686L511.253 75.8466H516.505ZM511.494 99.6321C508.154 99.6321 505.025 99.0083 502.107 97.7607C499.189 96.513 496.623 94.7824 494.41 92.5689C492.196 90.3553 490.466 87.7897 489.218 84.8718C487.97 81.954 487.347 78.8248 487.347 75.4844C487.347 72.1439 487.97 69.0148 489.218 66.0969C490.466 63.1791 492.196 60.6134 494.41 58.3999C496.623 56.1863 499.189 54.4557 502.107 53.2081C505.025 51.9605 508.154 51.3366 511.494 51.3366C514.835 51.3366 517.964 51.9605 520.882 53.2081C523.8 54.4557 526.365 56.1863 528.579 58.3999C530.792 60.6134 532.523 63.1791 533.771 66.0969C535.018 69.0148 535.642 72.1439 535.642 75.4844C535.642 78.8248 535.018 81.954 533.771 84.8718C532.523 87.7897 530.792 90.3553 528.579 92.5689C526.365 94.7824 523.8 96.513 520.882 97.7607C517.964 99.0083 514.835 99.6321 511.494 99.6321ZM511.494 93.8366C514.875 93.8366 517.954 93.0116 520.731 91.3615C523.508 89.7114 525.721 87.4979 527.371 84.7209C529.022 81.9439 529.847 78.8651 529.847 75.4844C529.847 72.1037 529.022 69.0249 527.371 66.2479C525.721 63.4709 523.508 61.2573 520.731 59.6072C517.954 57.9571 514.875 57.1321 511.494 57.1321C508.114 57.1321 505.035 57.9571 502.258 59.6072C499.481 61.2573 497.267 63.4709 495.617 66.2479C493.967 69.0249 493.142 72.1037 493.142 75.4844C493.142 78.8651 493.967 81.9439 495.617 84.7209C497.267 87.4979 499.481 89.7114 502.258 91.3615C505.035 93.0116 508.114 93.8366 511.494 93.8366Z" fill="#1F1F1F"/>
</svg>
