<svg xmlns="http://www.w3.org/2000/svg" xmlns:xlink="http://www.w3.org/1999/xlink" xml:space="preserve" id="Livello_1" x="0" y="0" style="enable-background:new 0 0 418 118" viewBox="0 0 418 118"><style>.st0{clip-path:url(#SVGID_2_);fill:#0a2240}</style><defs><path id="SVGID_1_" d="M-216-230.28h841.89V365H-216z"/></defs><clipPath id="SVGID_2_"><use xlink:href="#SVGID_1_" style="overflow:visible"/></clipPath><path d="M91.39 34.43v30.71c0 7.97-6.49 14.46-14.46 14.46H38.91V41.58c0-7.97 6.49-14.46 14.46-14.46 0 0 30.73.02 38.02.02 7.29 0 7.29-7.31 7.29-7.31h-45.3c-12.01 0-21.75 9.74-21.75 21.75v45.3h45.3c12.01 0 21.75-9.74 21.75-21.75V27.14s0 7.29-7.29 7.29M25.63 92.88v8.49a15.917 15.917 0 0 1-8.41-8.49h8.41m6-6h-21.6c0 11.96 9.66 21.66 21.6 21.74V86.88z" class="st0"/><path d="M83.98 34.43a3.64 3.64 0 1 1-7.28 0 3.64 3.64 0 0 1 7.28 0" style="clip-path:url(#SVGID_2_);fill:#009640"/><path d="M83.98 45.36a3.64 3.64 0 1 1-3.64-3.64c2.01-.01 3.64 1.63 3.64 3.64" style="clip-path:url(#SVGID_2_);fill:#e30613"/><path d="M160.48 87.32V19.83h18.61c0 4.21-3.41 7.63-7.63 7.63h-3.44v21.98h7.22v7.63h-7.22v30.26h-7.54zm24.42-59.26h3.02v59.26h-3.02zm24.76 41.62c0-3.89-1.08-6.05-2.74-7.78-2.02-2.09-5.18-3.82-7.78-6.05-3.02-2.66-4.18-5.18-4.18-9.79V37.2c0-6.62 2.95-9.79 9.07-9.79 6.19 0 8.5 3.24 8.5 9.79V48a2.88 2.88 0 0 1-2.88-2.88v-6.98c0-4.97-1.3-7.56-5.76-7.56-3.96 0-5.76 2.09-5.76 6.62v8.86c0 3.1 1.08 5.18 2.74 6.84 2.3 2.3 5.54 3.82 8.14 6.41 2.38 2.38 3.74 5.26 3.74 10.37v9.05c0 5.07-4.08 9.33-9.15 9.24-6.12-.11-8.63-3.55-8.63-9.79v-12.6c1.67 0 3.02 1.35 3.02 3.02v8.5c0 4.97 1.44 7.85 5.9 7.85 4.03 0 5.76-2.38 5.76-6.77v-8.5zm24.92-41.62v22.03c0 2.33-2.97 3.54-7.16 5-1.63.57-3.29 1.14-4.65 1.9V28.06h-3.02v59.26h3.02V61.18h.03c0-1.28 2.98-2.32 5.61-3.23 2.06-.72 4.38-1.52 6.17-2.74v32.11h3.02V28.06h-3.02zm42.29 59.26a6.97 6.97 0 0 1-6.97-6.97V67.64c0-8.86.08-17.55.33-26.4-1.56 11.07-3.03 22.22-6.07 46.08h-6.56l-5.9-46.08c.25 8.86.33 17.55.33 26.4v19.68h-6.97V19.83h10.09c3.28 30.51 4.59 40.26 5.66 49.86 1.07-9.43 2.46-19.52 5.74-49.86h10.33v67.49zm24.27 0-1.73-11.52h-11.88l-1.73 11.52h-3.02l9.14-59.26h3.67l8.64 59.26h-3.09zm-7.49-51.63-5.69 37.23h11.09l-5.4-37.23zm32.47 51.63c-1.66-9.58-3.46-18.29-5.54-27.51-.5.07-1.08.14-1.73.14h-5.62v27.36h-3.02V28.06h8.71c6.62 0 9.86 2.88 9.86 10.66v11.31c0 4.61-1.73 7.63-5.26 9.07 2.23 9.58 4.25 18.94 5.98 28.23h-3.38zm-.43-48.6c0-5.69-1.87-7.49-6.77-7.49h-5.69v25.85h5.62c4.9 0 6.84-2.16 6.84-7.06v-11.3zm26.32 45.43L338.8 57.08v30.24h-3.02V28.06h3.02v26.35l12.55-23.31a5.8 5.8 0 0 1 5.1-3.04l-14.98 27.36 15.63 31.9c-2.18 0-4.15-1.23-5.09-3.17m10.4 3.17V28.06h15.12v3.17h-12.1v24.34h9.22v3.09h-9.22v25.56h12.46v3.1zm27.36 0V31.23h-7.49v-3.17h18.07v3.17h-7.49v56.09zm-234.95-.39h-52.64v-14.2c3.29 0 5.95 2.66 5.95 5.95v2.37h16.89v-5.57h5.95v5.57h17.97v-8.64h5.89v14.52zm-45.26-29.09v-2.31h38.05c5.11 0 7.7 2.26 7.7 6.82 0 4.57-2.59 6.82-7.7 6.82h-38.05v-2.31h38.05c3.57 0 5.33-1.48 5.33-4.51 0-3.02-1.76-4.51-5.33-4.51h-38.05zm45.26-18.81c-7.31 1.27-13.97 2.64-21.01 4.23.06.39.11.82.11 1.32v4.29h20.9v2.31h-45.26v-6.65c0-5.06 2.2-7.53 8.14-7.53h8.63c3.52 0 5.83 1.32 6.93 4.02 7.31-1.71 14.46-3.24 21.56-4.57v2.58zm-37.12.33c-4.34 0-5.72 1.43-5.72 5.17v4.35h19.74v-4.29c0-3.74-1.65-5.22-5.39-5.22h-8.63zm-.94-4.83c-5.11 0-7.7-2.31-7.7-6.87 0-4.56 2.58-6.82 7.7-6.82h30.85c5.11 0 7.7 2.26 7.7 6.82 0 4.57-2.58 6.87-7.7 6.87h-30.85zm0-11.39c-3.52 0-5.28 1.49-5.28 4.51 0 3.03 1.76 4.57 5.28 4.57h30.85c3.58 0 5.33-1.54 5.33-4.57 0-3.02-1.76-4.51-5.33-4.51h-30.85z" class="st0"/></svg>