<svg xmlns="http://www.w3.org/2000/svg" width="270" height="102" fill="none"><g clip-path="url(#a)"><path fill="#EDBC3E" d="m79.381 60.4 2.116-.004v-3.674h2.613v-4.894h-9.63v3.65h-1.492V60.4h1.493v6.777h9.34v-4.894h-4.44V60.4ZM183.88 79.963h-1.635v-6.415h1.635v-9.215h18.566v6.412h-12.137v2.807l12.137-.004v6.415h-12.141V94.84h12.781v6.412H183.88V79.963Zm65.034-2.091h-1.798V70.83h1.798V60.709h20.389v7.041h-13.332v3.08h13.332v7.042h-13.332l-.004 16.338H270v7.041h-21.086v-23.38Z"/><path fill="#EDBC3E" fill-rule="evenodd" d="M69.902 99.412c-2.968 1.725-6.23 2.584-9.715 2.584-3.486 0-6.698-.863-9.65-2.588-2.947-1.729-5.284-4.084-6.971-7.033-1.72-2.958-2.577-6.188-2.577-9.642 0-2.604.485-5.081 1.484-7.42a19.048 19.048 0 0 1 4.163-6.163 19.089 19.089 0 0 1 6.176-4.138 19.483 19.483 0 0 1 7.391-1.428c3.441 0 6.686.859 9.659 2.555a19.443 19.443 0 0 1 6.991 6.924 18.79 18.79 0 0 1 2.569 9.556c0 3.41-.844 6.741-2.548 9.727a18.918 18.918 0 0 1-6.976 7.066h.004Zm-.62-25.71c-1.14-1.14-2.498-2.046-4.1-2.722a12.53 12.53 0 0 0-4.95-.988c-2.332 0-4.456.565-6.438 1.708a12.617 12.617 0 0 0-4.667 4.658c-1.138 1.953-1.713 4.077-1.713 6.42 0 1.704.326 3.323.99 4.894a12.88 12.88 0 0 0 2.798 4.137 12.44 12.44 0 0 0 4.134 2.758 12.54 12.54 0 0 0 4.916.997 12.79 12.79 0 0 0 4.925-.972c1.48-.615 2.846-1.526 4.101-2.779a12.954 12.954 0 0 0 2.74-4.157 13.04 13.04 0 0 0 .979-5.033c0-1.782-.335-3.392-.979-4.87a12.931 12.931 0 0 0-2.735-4.047v-.004Zm68.052 27.192 11.741-39.319 11.713 39.319-6.466.793-5.251-17.688-5.271 17.688-6.466-.793Z" clip-rule="evenodd"/><path fill="#EDBC3E" d="M156.964 90.5h-15.81v6.435h15.81V90.5Z"/><path fill="#EDBC3E" fill-rule="evenodd" d="m7.428 58.186 2.72 8.051c-1.423.911-1.713 1.9-1.705 2.954.004.512.119.87.273 1.15.196.35.694 1.002 1.774 1.92 1.484 1.242 2.687 2.324 3.494 3.174.82.895 1.545 1.888 2.124 2.945A15.016 15.016 0 0 1 18 85.544a15.193 15.193 0 0 1-1.615 7.063 15.023 15.023 0 0 1-4.68 5.41c-1.99 1.444-4.26 2.352-6.743 2.775l-4.579.769v-8.336l3.131-.643c1.627-.33 2.78-.903 3.62-1.615a6.814 6.814 0 0 0 1.819-2.416c.436-.936.64-1.892.632-2.893-.012-1.196-.335-2.376-1.064-3.588-.176-.293-1.072-1.318-3.364-3.3-1.54-1.313-2.886-2.733-3.767-4.263A10.563 10.563 0 0 1 0 69.33c-.028-2.55.726-4.91 2.218-6.977 1.329-1.855 3.119-3.218 5.206-4.17l.004.004Zm13.03 21.777h-1.639v-6.415h1.639v-9.215h18.566v6.412h-12.14v2.807l12.14-.004v6.415h-12.14v21.289h-6.426V79.963ZM96.19 94.279V82.872h-4.354V76.46h10.783v24.812h-2.988c-2.483 0-4.86-.493-7.098-1.481a18.536 18.536 0 0 1-3.119-1.75 21.231 21.231 0 0 1-2.658-2.212 18.158 18.158 0 0 1-3.95-5.915c-.954-2.205-1.411-4.56-1.411-7.046 0-2.486.46-4.833 1.39-7.07.922-2.186 2.255-4.167 3.943-5.904a19.153 19.153 0 0 1 5.858-4.043c2.202-.973 4.546-1.465 7.008-1.502l3.029-.044v6.33l-2.853.126c-2.288.102-4.297.7-6.091 1.773a11.692 11.692 0 0 0-4.24 4.357c-1.02 1.782-1.545 3.767-1.545 5.997 0 2.099.501 4.027 1.512 5.834a11.691 11.691 0 0 0 4.114 4.32 11.52 11.52 0 0 0 2.678 1.233l-.008.004Zm16.736.561h11.823v6.412H106.5V64.334h6.426V94.84Z" clip-rule="evenodd"/><path fill="#EDBC3E" d="M134.101 64.334h-6.429v36.918h6.429V64.334Z"/><path fill="#EDBC3E" fill-rule="evenodd" d="M179.322 70.745h-7.913v30.507h-6.45V70.745h-7.889v-6.412h22.252v6.412Zm34.07 24.095h11.823v6.412h-18.248V64.334h6.425V94.84Zm21.172 0h11.823v6.412h-18.248V64.334h6.425V94.84Z" clip-rule="evenodd"/><path fill="#7E4817" d="m42.889 27.346 5.536-.004v-9.613h5.626V4.939h-23.98v9.535h-2.699v12.872h2.7V45.07h12.817V27.346Z"/><path fill="#7E4817" fill-rule="evenodd" d="M155.855 45.058h-22.28V4.938h15.717V29.38h6.563v15.678Zm59.69 0h-41.421l20.71-42.495 20.711 42.495Zm-196.2-30.441c.905.78 1.806 1.586 2.413 2.241a17.352 17.352 0 0 1 2.365 3.348 16.752 16.752 0 0 1 2.014 7.994c0 2.82-.628 5.394-1.896 7.848a16.889 16.889 0 0 1-5.3 6.004c-2.25 1.59-4.77 2.543-7.403 2.962L0 46.177V29.913l8.786-.936c.305-.032.86-.366.925-.508-.424-.444-1.1-1.579-1.786-2.18-1.402-1.23-2.923-2.804-3.987-4.695a13.383 13.383 0 0 1-1.667-6.485c0-3.067.958-5.952 2.776-8.413C6.882 4.202 12.104 1.013 14.726 0l8.329 12.127c.037 0 .053.016.053.053l-.053-.053c-.371-.016-2.56 1.648-3.71 2.49Z" clip-rule="evenodd"/><path fill="#7E4817" d="m256.832 26.125 5.895-.004V15.886H270V2.266h-26.818V12.42h-2.951v13.705h2.951v18.876h26.007v-13.62h-12.357v-5.256ZM173.211 4.938h-15.713v40.124h15.713V4.938Z"/><path fill="#7E4817" fill-rule="evenodd" d="M90.874 3.921a24.462 24.462 0 0 1 8.733 8.714c2.181 3.678 3.281 7.811 3.334 12.298-.049 4.488-1.153 8.617-3.335 12.298a24.462 24.462 0 0 1-8.732 8.714c-3.69 2.177-7.828 3.275-12.325 3.328-4.496-.049-8.635-1.151-12.324-3.328a24.462 24.462 0 0 1-8.733-8.714c-2.18-3.677-3.282-7.81-3.335-12.298.05-4.487 1.154-8.616 3.335-12.298a24.462 24.462 0 0 1 8.733-8.714C69.915 1.745 74.053.647 78.549.594c4.497.049 8.635 1.151 12.325 3.327Z" clip-rule="evenodd"/><path fill="#7E4817" d="M114.752 46.075v-3.05a18.781 18.781 0 0 1-1.011-.558 20.205 20.205 0 0 1-7.228-7.213c-1.806-3.043-2.715-6.464-2.76-10.174.04-3.714.954-7.132 2.76-10.175a20.238 20.238 0 0 1 7.228-7.212c3.054-1.799 6.478-2.71 10.2-2.755a22.18 22.18 0 0 1 3.886.383v16.46H123v3.01h8.847v21.288h-17.095v-.004Zm95.53-41.137h28.848v15.679h-6.568v24.441h-15.716V20.617h-6.564V4.938Z"/><path fill="#EDBC3E" d="M91.722 16.273c0 .028.008.052.012.077a1 1 0 0 0 .09.223c.102.188.301.456.693.802 1.178 1.009 2.21 1.953 2.935 2.734.75.834 1.419 1.77 1.949 2.758a13.909 13.909 0 0 1 1.675 6.647c0 2.348-.517 4.487-1.57 6.517a13.921 13.921 0 0 1-4.394 4.976c-1.859 1.318-3.963 2.123-6.21 2.481a35.576 35.576 0 0 1-5.853.488H79.23v-9.32h1.819c.476 0 .945-.032 1.398-.101a6.51 6.51 0 0 0 4.179-2.665 6.451 6.451 0 0 0 1.153-4.255c-.057-.468-.158-.96-.297-1.477-.029-.094-5.875-16.06-6.385-17.464 1.758-.476 3.56-.891 5.374-1.319.717-.17 1.46-.22 2.21-.085 1.891.334 3.2 1.725 3.995 3.352l.024.053 1.227.02c1.126 0 1.607.375 1.766 1.172l.632 3.238-4.037.147c-.346 0-.493.24-.55.467a1.672 1.672 0 0 0-.02.537l.004-.003Z"/><path fill="#EDBC3E" d="M85.407 31.031a5.007 5.007 0 0 1-4.15 2.136h-4.09c-.497-1.196-.102-3.735 1.888-6.574 1.99-2.835 4.248-4.076 5.54-4.02l1.387 3.792a4.983 4.983 0 0 1-.58 4.662l.005.004ZM71.12 33.16c-1.353-2.193-.864-6.48 2.071-10.663 2.936-4.178 6.8-6.106 9.332-5.585l1.53 4.178c-2.084.252-4.526 2.237-6.222 4.65-1.696 2.416-2.728 5.382-2.25 7.424h-4.457l-.004-.004Zm-6.03-.012c-2.376-2.453-1.826-8.616 2.402-14.637 4.224-6.021 9.837-8.645 12.96-7.258l1.484 4.056c-3.29-.15-7.269 2.47-9.976 6.322-2.707 3.857-3.812 8.482-2.544 11.517h-4.33.005Zm-4.561-.008c-.771-.041-1.582-.253-2.153-.651l-.049-.037-.033-.02c-3.82-2.669-2.727-10.94 2.602-18.535C66.225 6.301 73.64 2.453 77.46 5.121l.081.057c.571.4 1.052 1.09 1.35 1.803l.913 2.497c-4.162-.797-9.74 2.755-13.543 8.17-3.8 5.418-5.235 11.866-3.062 15.495h-2.675l.005-.004Z"/></g><defs><clipPath id="a"><path fill="#fff" d="M0 0h270v102H0z"/></clipPath></defs></svg>