<svg xmlns="http://www.w3.org/2000/svg" viewBox="0 0 243.06 149.04"><path d="m58.83 74.81-6.34 4.52-5.88 4.68-1.56 1.3-1.73 1.43-1.96 1.62-2.14 1.78-2.3 1.94-2.46 2.11-5.09 4.51-5.28 4.96-5.12 5.21-2.54 2.77-2.39 2.78-2.24 2.82-2.09 2.86-1.9 2.91-1.66 2.95-1.42 3.01-1.11 3.11-.68 2.97-.24 1.82-.07 1.68.07 1.67.23 1.68.41 1.69.47 1.35a6.175 6.175 0 0 0 7.87 3.76 6.175 6.175 0 0 0 3.76-7.87l-.27-.73-.1-.45-.07-.52-.03-.58.03-.63.06-.52.41-1.84.67-1.84.98-2.07 1.25-2.21 1.51-2.3 1.75-2.39 1.94-2.44 2.11-2.46 2.21-2.41 4.85-4.92 4.98-4.65 4.92-4.33 2.33-1.99 2.24-1.88 2.1-1.74 1.94-1.6L53 94.89l1.42-1.18L60 89.29l5.84-4.12 6.18-3.92 6.47-3.73 6.75-3.51 7.01-3.29 7.22-3.09 7.42-2.85 7.6-2.62 7.74-2.41 7.85-2.16 7.95-1.92 8.01-1.7 8.05-1.45 8.07-1.2 8.05-.97 8-.71 7.94-.45 7.85-.21 7.71.05 7.57.31 7.4.56 3.8.44-1.36 1.18-2.65 2.24-2.78 2.3-2.85 2.33-5.85 4.69-5.74 4.54-5.35 4.2-2.46 1.93-2.27 1.78-2.03 1.61-1.8 1.43-1.52 1.24-1.15.97c-2.74 2.33-3.08 6.44-.75 9.18 2.33 2.74 6.44 3.08 9.18.75l1.04-.89 1.37-1.13 1.72-1.38 1.99-1.58 2.24-1.77 2.46-1.93 5.36-4.23 5.8-4.61 5.89-4.79 2.93-2.43 2.85-2.4 2.74-2.36 2.61-2.31 2.45-2.23 2.24-2.13 2.05-2.04 1.81-1.95 1.48-1.77.77-1.03.65-.99.59-1.06.53-1.23.42-1.61-.1-2.94-1.36-4.47-2.79-4.4-3.16-3.46-1.78-1.68-1.66-1.45-1.58-1.33-1.47-1.23-1.3-1.11-1.04-.93-3.15-3.07-3.5-3.52-3.77-3.62-2.08-1.86-2.13-1.76-2.21-1.65-2.32-1.53-2.47-1.36-2.28-.98a6.17 6.17 0 0 0-8.09 3.26 6.158 6.158 0 0 0 3.26 8.09l1.69.71 1.48.82 1.61 1.07 1.67 1.26 1.71 1.42 1.69 1.52 3.55 3.43 3.44 3.49 3.31 3.25 1.44 1.31 1.46 1.26 1.48 1.25 1.46 1.24 1.4 1.24 1.18 1.12 1.85 2.02-2.94-.46-7.7-.87-7.87-.58-8.01-.32-8.16-.04-8.26.24-8.34.49-8.41.76-8.43 1.03-8.44 1.28-8.43 1.55-8.38 1.81-8.32 2.05-8.24 2.31-8.11 2.56-7.98 2.8-7.83 3.05-7.63 3.3-7.43 3.53-7.2 3.79-6.91 4.03-6.65 4.26Z" style="fill:#363636"/></svg>