<svg xmlns="http://www.w3.org/2000/svg" width="584" height="431" fill="none"><g fill="#fff" filter="url(#a)"><path d="m375.907 30.625 22.977 95.587 65.82-70.815-26.011 94.743 91.018-27.077-68.035 68.516 91.825 23.921-91.825 23.928 68.035 68.51-91.018-27.071 26.011 94.743-65.82-70.822-22.977 95.587-22.983-95.587-65.821 70.822 26.011-94.743-91.011 27.071 68.028-68.51-91.824-23.928 91.824-23.921-68.028-68.516 91.011 27.077-26.011-94.743 65.821 70.815 22.983-95.587Z"/><path d="M247.343 44.285c-39.252-.75-72.535 25.324-81.399 60.849-27.628-23.907-69.786-25.962-101.438-2.636-36.627 26.99-45.278 77.672-19.32 113.197 25.958 35.531 195.389 126.452 195.389 126.452s86.665-172.46 87.503-216.515c.832-44.06-35.312-80.477-80.73-81.347h-.005Z"/></g><path fill="#FF8E31" d="m375.908 30.625 22.977 95.587 65.82-70.815-26.011 94.743 91.018-27.077-68.035 68.516 91.825 23.921-91.825 23.928 68.035 68.51-91.018-27.071 26.011 94.743-65.82-70.822-22.977 95.587-22.983-95.587-65.821 70.822 26.011-94.743-91.011 27.071 68.028-68.51-91.824-23.928 91.824-23.921-68.028-68.516 91.011 27.077-26.011-94.743 65.821 70.815 22.983-95.587Z"/><path fill="#FF8E31" fill-rule="evenodd" d="m375.908 30.625-22.983 95.587-65.821-70.815 26.011 94.743-91.011-27.077 68.028 68.516-91.824 23.921 91.824 23.928-68.028 68.51 91.011-27.071-26.011 94.743 65.821-70.822 22.983 95.587 22.977-95.587 65.82 70.822-26.011-94.743 91.018 27.071-68.035-68.51 91.825-23.928-91.825-23.921 68.035-68.516-91.018 27.077 26.011-94.743-65.82 70.815-22.977-95.587Zm76.533 46.78-56.776 61.084-19.758-82.195-19.763 82.195-56.775-61.084 22.393 81.567-78.837-23.455 58.816 59.238-79.636 20.746 79.636 20.751-58.816 59.233 78.837-23.45-22.393 81.565 56.775-61.089 19.763 82.195 19.758-82.196 56.775 61.09-22.393-81.564 78.843 23.449-58.822-59.233 79.636-20.751-79.636-20.746 58.822-59.238-78.843 23.455 22.394-81.567Z" clip-rule="evenodd"/><path fill="#FFB3E4" d="M247.343 44.285c-39.252-.75-72.535 25.325-81.399 60.849-27.628-23.907-69.786-25.962-101.438-2.636-36.627 26.99-45.278 77.672-19.32 113.197 25.958 35.531 195.389 126.452 195.389 126.452s86.665-172.46 87.503-216.515c.832-44.06-35.312-80.477-80.73-81.347h-.005Z"/><path fill="#fff" d="M150.731 189.04v-17.947c0-8.37-7.507-15.218-16.732-15.218h-65.37c-2.573 0-4.665 2.58-4.665 5.617v79.883c0 3.187 2.092 5.783 4.665 5.783h65.355c9.225 0 16.612-6.841 16.732-15.21V214c0-6.855-3.675-12.48-8.362-12.48 4.68 0 8.362-5.632 8.362-12.472h.015v-.008Zm-35.317 40.313c0 2.445-3.075 4.425-6.653 4.425h-8.977v-26.483h8.977c3.578 0 6.653 1.965 6.653 4.41v17.648Zm0-38.033c0 2.445-3.075 4.41-6.653 4.41h-8.977v-26.618h8.977c3.578 0 6.653 1.98 6.653 4.553v17.655Zm130.965 40.62c0 8.37-7.508 15.21-16.733 15.21h-53.302c-9.225 0-16.733-6.84-16.733-15.21v-70.448c0-3.045 2.093-5.617 4.665-5.617h26.46c2.475 0 4.56 2.58 4.56 5.617v61.62c0 5.94 3.443 10.658 7.755 10.658 4.313 0 7.62-4.718 7.62-10.658v-61.62c0-3.045 2.093-5.617 4.695-5.617h26.46c2.46 0 4.545 2.58 4.545 5.617v70.448h.008Zm95.655 0c0 8.37-7.507 15.21-16.732 15.21h-53.303c-9.225 0-16.732-6.84-16.732-15.21v-70.448c0-3.045 2.092-5.617 4.665-5.617h26.46c2.475 0 4.56 2.58 4.56 5.617v61.62c0 5.94 3.442 10.658 7.755 10.658 4.312 0 7.62-4.718 7.62-10.658v-61.62c0-3.045 2.092-5.617 4.695-5.617h26.46c2.46 0 4.545 2.58 4.545 5.617v70.448h.007Zm36.45-19.013c0 3.203-1.973 5.618-4.56 5.618h-13.658c-2.475 0-4.56-2.43-4.56-5.618l-4.8-51.419c.015-3.06 2.108-5.633 4.68-5.633h23.145c2.573 0 4.545 2.58 4.545 5.617l-4.8 51.421v.014h.008Zm-.48 28.463c0 3.187-2.093 5.783-4.68 5.783h-12.42c-2.475 0-4.56-2.596-4.56-5.783v-9.435c0-3.202 2.092-5.782 4.56-5.782h12.42c2.587 0 4.68 2.595 4.68 5.782v9.435Zm114.569 0c0 3.187-2.092 5.783-4.665 5.783h-26.34c-2.587 0-4.56-2.596-4.56-5.783v-38.955l-12.802 34.695h-3.69l-12.803-34.695v38.955c0 3.187-2.092 5.783-4.56 5.783h-26.34c-2.572 0-4.665-2.596-4.665-5.783v-79.898c.015-3.045 2.108-5.617 4.695-5.617h26.34c1.973 0 3.578 1.673 4.313 3.803l14.895 40.312 14.91-40.312c.72-2.123 2.31-3.803 4.282-3.803h26.34c2.573 0 4.665 2.58 4.665 5.617v79.898h-.015Zm7.463-75.322c0-6.083 4.373-10.193 9.638-10.193s9.622 4.102 9.622 10.193c0 6.089-4.372 10.102-9.622 10.102s-9.638-4.035-9.638-10.102Zm17.618 0c0-4.995-3.533-8.678-7.98-8.678-4.448 0-7.988 3.698-7.988 8.678 0 4.979 3.548 8.587 7.988 8.587s7.98-3.577 7.98-8.587Zm-11.565-5.596h3.637c2.063 0 4.065.773 4.065 3.36 0 1.343-.915 2.58-2.092 2.911l2.587 4.53h-1.972l-2.048-3.961h-2.52v3.961h-1.665v-10.801h.008Zm3.187 5.393c1.62 0 2.693-.555 2.693-1.92 0-1.178-.615-1.995-2.52-1.995h-1.71v3.915h1.537Z"/><path fill="#fff" d="M499.376 166.068c0-6.083 4.373-10.193 9.638-10.193s9.622 4.102 9.622 10.193c0 6.089-4.372 10.102-9.622 10.102s-9.638-4.035-9.638-10.102Zm17.61 0c0-4.995-3.532-8.678-7.972-8.678s-7.996 3.698-7.996 8.678c0 4.979 3.548 8.587 7.996 8.587 4.447 0 7.972-3.577 7.972-8.587Zm-11.565-5.596h3.638c2.062 0 4.064.773 4.064 3.36 0 1.343-.914 2.58-2.092 2.911l2.587 4.53h-1.972l-2.048-3.961h-2.52v3.961h-1.665v-10.801h.008Zm3.195 5.393c1.62 0 2.693-.555 2.693-1.92 0-1.178-.623-1.995-2.521-1.995h-1.71v3.915h1.538ZM73.827 270.52c0 .742-.825 1.35-1.845 1.35h-2.723c-.51 0-.96-.15-1.297-.39l-.39.39h-3.038a.5.5 0 0 1-.51-.503v-9.12c0-.285.218-.51.51-.51h3.038c.285 0 .51.218.51.51v1.838a2.212 2.212 0 0 1 1.185-.323h2.722c1.013 0 1.845.608 1.845 1.35v5.408h-.007Zm-4.05-4.613c0-.54-.375-.96-.848-.96-.472 0-.847.42-.847.96v3.818c0 .54.375.96.847.96.473 0 .848-.42.848-.96v-3.818Zm14.333.443c0 .285-.24.502-.51.502h-2.295a.493.493 0 0 1-.503-.502v-.443c0-.54-.375-.96-.847-.96-.473 0-.848.42-.848.96v5.46a.495.495 0 0 1-.51.503H75.56a.5.5 0 0 1-.51-.503v-7.095c0-.285.217-.502.51-.502h3.037l.39.39c.338-.233.795-.39 1.298-.39h1.972c1.013 0 1.845.607 1.845 1.35v1.23h.008Zm10.657 4.17c0 .743-.825 1.35-1.838 1.35h-6.112c-1.013 0-1.845-.607-1.845-1.35v-5.407c0-.743.825-1.35 1.845-1.35h6.112c1.013 0 1.838.607 1.838 1.35v1.605c0 .742-.825 1.35-1.838 1.35h-3.9v1.657c0 .54.375.96.848.96.472 0 .825-.405.847-.93a.5.5 0 0 1 .503-.51h3.037c.285 0 .503.218.503.51v.765Zm-4.05-3.465v-1.147c0-.54-.375-.96-.848-.96-.472 0-.847.42-.847.96v1.147h1.695Zm15.075 3.465c0 .743-.825 1.35-1.837 1.35h-6.113c-1.012 0-1.845-.607-1.845-1.35v-1.522c0-.93 1.028-1.688 2.295-1.688h3.45v-1.402c0-.54-.375-.96-.847-.96-.473 0-.848.42-.848.96v.052a.495.495 0 0 1-.51.503h-2.82a.494.494 0 0 1-.502-.503v-.847c0-.743.81-1.35 1.822-1.35h5.91c1.013 0 1.838.607 1.838 1.35v5.407h.007Zm-4.057-1.012v-1.185h-1.688v1.402c0 .54.375.96.848.96.472 0 .847-.42.847-.96v-.217h-.007Zm14.737 1.012c0 .743-.825 1.35-1.837 1.35h-5.775c-1.013 0-1.845-.607-1.845-1.35v-7.807a.5.5 0 0 1 .51-.51h3.037a.5.5 0 0 1 .51.51v1.065h3.855c.27 0 .51.217.51.51v.405a.52.52 0 0 1-.51.51h-3.855v4.53c0 .54.375.96.848.96.472 0 .825-.405.847-.93v-3.128c0-.285.218-.51.51-.51h2.7c.285 0 .51.218.51.51v3.885h-.015Zm11.003.848a.493.493 0 0 1-.503.502h-3.037a.493.493 0 0 1-.503-.502v-5.46c0-.54-.375-.961-.847-.961-.473 0-.848.421-.848.961v5.46a.494.494 0 0 1-.51.502h-3.037a.5.5 0 0 1-.51-.502v-9.143c0-.27.217-.502.51-.502h3.037c.285 0 .51.24.51.502v1.86a2.214 2.214 0 0 1 1.185-.322h2.723c1.012 0 1.837.607 1.837 1.349v6.248l-.007.008Zm10.688-.848c0 .743-.825 1.35-1.838 1.35h-5.775c-1.012 0-1.845-.607-1.845-1.35v-7.807c0-.285.218-.51.51-.51h3.038a.5.5 0 0 1 .51.51v1.065h3.855c.27 0 .502.217.502.51v.405c0 .27-.24.51-.502.51h-3.855v4.53c0 .54.375.96.847.96.473 0 .825-.405.848-.93v-3.128a.5.5 0 0 1 .502-.51h2.7c.285 0 .51.218.51.51v3.885h-.007Zm11.002 0c0 .743-.825 1.35-1.845 1.35h-6.113c-1.012 0-1.845-.607-1.845-1.35v-1.522c0-.93 1.028-1.688 2.295-1.688h3.443v-1.402c0-.54-.375-.96-.848-.96-.472 0-.847.42-.847.96v.052a.496.496 0 0 1-.51.503h-2.82a.494.494 0 0 1-.503-.503v-.847c0-.743.81-1.35 1.823-1.35h5.91c1.012 0 1.845.607 1.845 1.35v5.407h.015Zm-4.058-1.012v-1.185h-1.687v1.402c0 .54.375.96.847.96.473 0 .848-.42.848-.96v-.217h-.008Zm15.076 1.859a.494.494 0 0 1-.503.503h-3.037a.494.494 0 0 1-.503-.503v-2.077c0-.54-.375-.96-.847-.96-.473 0-.848.42-.848.96v2.077a.495.495 0 0 1-.51.503h-3.037a.5.5 0 0 1-.51-.503v-9.12a.5.5 0 0 1 .51-.51h3.037c.285 0 .51.218.51.51v4.898h.39l1.605-3.09a.5.5 0 0 1 .458-.285h2.79c.285 0 .502.24.502.502v.795a.493.493 0 0 1-.502.503h-1.523c-.555 0-.982.255-1.485.997l-.39.57h2.063c1.012 0 1.837.608 1.837 1.35v2.873l-.007.007Zm5.272-8.669c0 .285-.218.51-.51.51h-3.038a.501.501 0 0 1-.51-.51v-.458c0-.285.218-.51.51-.51h3.038c.285 0 .51.218.51.51v.458Zm0 8.67a.495.495 0 0 1-.51.502h-3.038a.5.5 0 0 1-.51-.502v-7.095c0-.285.218-.503.51-.503h3.038a.5.5 0 0 1 .51.503v7.095Zm11.017-.001a.494.494 0 0 1-.503.503h-3.037a.494.494 0 0 1-.503-.503v-5.46c0-.54-.375-.96-.847-.96-.473 0-.848.42-.848.96v5.46a.495.495 0 0 1-.51.503h-3.037a.5.5 0 0 1-.51-.503v-7.095c0-.285.217-.502.51-.502h3.037l.39.39c.338-.233.795-.39 1.298-.39h2.722c1.013 0 1.838.607 1.838 1.35v6.247Zm11.025 1.89c0 .758-.825 1.35-1.845 1.35h-7.283a.5.5 0 0 1-.51-.51v-.502c0-.27.218-.51.51-.51h5.153a.5.5 0 0 0 .51-.503v-.202a.496.496 0 0 0-.51-.503h-2.048c-.202 0-.352-.12-.457-.27l-.893-1.387h-.675c-.982-.03-1.755-.623-1.755-1.35v-3.75c0-.743.825-1.35 1.845-1.35h2.94l.998-1.755a.529.529 0 0 1 .457-.27h3.06a.5.5 0 0 1 .51.51v.337a.5.5 0 0 1-.51.51h-2.145c-.555 0-.96.285-1.267.675h2.077c1.013 0 1.845.608 1.845 1.35v3.75c0 .758-.825 1.35-1.845 1.35h-4.125c.308.353.69.675 1.2.675h2.925c1.013 0 1.845.608 1.845 1.35v1.013l-.007-.008Zm-4.058-7.35c0-.54-.375-.96-.847-.96-.473 0-.848.42-.848.96v2.183c0 .525.375.945.848.945.472 0 .847-.42.847-.945v-2.183Zm19.297 5.461a.492.492 0 0 1-.502.502h-3.038l-.39-.39c-.337.233-.795.39-1.297.39h-2.723c-1.012 0-1.845-.607-1.845-1.35v-6.255c0-.285.218-.502.51-.502h3.038a.5.5 0 0 1 .51.502v5.46c0 .54.375.96.847.96.473 0 .848-.42.848-.96v-5.46c0-.285.217-.502.502-.502h3.038c.285 0 .502.217.502.502v7.103Zm11.026-.001a.494.494 0 0 1-.503.503h-3.037a.494.494 0 0 1-.503-.503v-5.46c0-.54-.375-.96-.847-.96-.473 0-.848.42-.848.96v5.46a.495.495 0 0 1-.51.503h-3.037a.5.5 0 0 1-.51-.503v-7.095c0-.285.217-.502.51-.502h3.037l.39.39c.338-.233.795-.39 1.298-.39h2.722c1.013 0 1.838.607 1.838 1.35v6.247Zm5.272-8.669a.5.5 0 0 1-.51.51h-3.037a.501.501 0 0 1-.51-.51v-.458a.5.5 0 0 1 .51-.51h3.037c.285 0 .51.218.51.51v.458Zm0 8.67a.494.494 0 0 1-.51.502h-3.037a.5.5 0 0 1-.51-.502v-7.095c0-.285.217-.503.51-.503h3.037a.5.5 0 0 1 .51.503v7.095Zm11.018 2.73a.5.5 0 0 1-.51.51h-3.037a.501.501 0 0 1-.51-.51v-2.55a2.223 2.223 0 0 1-1.185.322h-2.723c-1.012 0-1.845-.607-1.845-1.35v-5.407c0-.743.825-1.35 1.845-1.35h2.723c.51 0 .96.15 1.297.39l.39-.39h3.038a.5.5 0 0 1 .51.502v9.833h.007Zm-4.05-8.19c0-.54-.375-.96-.847-.96-.473 0-.848.42-.848.96v3.817c0 .54.375.96.848.96.472 0 .847-.42.847-.96v-3.817Zm15.075 5.46a.492.492 0 0 1-.502.502h-3.038l-.39-.39c-.337.233-.795.39-1.297.39h-2.723c-1.012 0-1.845-.607-1.845-1.35v-6.255c0-.285.218-.502.51-.502h3.038a.5.5 0 0 1 .51.502v5.46c0 .54.375.96.847.96.473 0 .848-.42.848-.96v-5.46c0-.285.217-.502.502-.502h3.038c.285 0 .502.217.502.502v7.103Zm11.017-.848c0 .743-.825 1.35-1.845 1.35h-6.112c-1.013 0-1.845-.607-1.845-1.35v-5.407c0-.743.825-1.35 1.845-1.35h6.112c1.013 0 1.845.607 1.845 1.35v1.605c0 .742-.825 1.35-1.845 1.35h-3.9v1.657c0 .54.375.96.848.96.472 0 .825-.405.847-.93 0-.285.218-.51.51-.51h3.038c.285 0 .51.218.51.51v.758l-.008.007Zm-4.057-3.465v-1.147c0-.54-.375-.96-.848-.96-.472 0-.847.42-.847.96v1.147h1.695Zm14.805 3.465c0 .742-.825 1.35-1.837 1.35h-5.948c-1.012 0-1.837-.608-1.837-1.35v-1.013a.5.5 0 0 1 .51-.51h2.955c.285 0 .51.218.51.51v.218c0 .54.375.96.847.96.473 0 .848-.42.848-.96 0-.503-.098-.78-.285-.96-.203-.15-2.145-.555-3.105-.81-1.2-.308-2.265-.66-2.265-2.295v-.54c0-.743.825-1.35 1.837-1.35h5.948c1.012 0 1.837.607 1.837 1.35v1.012a.5.5 0 0 1-.502.51H259.4a.5.5 0 0 1-.51-.51v-.217c0-.54-.375-.96-.848-.96-.472 0-.847.42-.847.96 0 .502.097.795.285.96.202.172 2.115.525 3.105.81 1.185.337 2.265.66 2.265 2.295v.54h-.008Zm15.15.848a.495.495 0 0 1-.51.502h-3.038l-.39-.39c-.337.233-.795.39-1.297.39h-2.723c-1.012 0-1.845-.607-1.845-1.35v-6.255c0-.285.218-.502.51-.502h3.038a.5.5 0 0 1 .51.502v5.46c0 .54.375.96.847.96.473 0 .848-.42.848-.96v-5.46c0-.285.217-.502.51-.502h3.037a.5.5 0 0 1 .51.502v7.095l-.007.008Zm11.018-.001a.495.495 0 0 1-.51.503h-3.037a.5.5 0 0 1-.51-.503v-5.46c0-.54-.375-.96-.848-.96-.472 0-.847.42-.847.96v5.46a.496.496 0 0 1-.51.503h-3.038a.5.5 0 0 1-.51-.503v-7.095c0-.285.218-.502.51-.502h3.038l.39.39c.337-.233.795-.39 1.297-.39h2.723c1.012 0 1.845.607 1.845 1.35v6.247h.007Zm8.302-8.632c0 .285-.24.54-.51.54h-1.672c-.51 0-.848.375-.848.862v.473h2.01c.27 0 .51.217.51.51v.405c0 .285-.24.51-.51.51h-2.01v5.34c0 .27-.217.502-.51.502h-3.037c-.27 0-.51-.24-.51-.502v-8.28c0-.915 1.065-1.35 1.845-1.35h4.732c.27 0 .51.217.51.51v.487-.007Zm10.237 7.785c0 .743-.825 1.35-1.838 1.35h-6.112c-1.013 0-1.845-.607-1.845-1.35v-5.407c0-.743.825-1.35 1.845-1.35h6.112c1.013 0 1.838.607 1.838 1.35v5.407Zm-4.05-4.612c0-.54-.375-.96-.848-.96-.472 0-.847.42-.847.96v3.817c0 .54.375.96.847.96.473 0 .848-.42.848-.96v-3.817Zm14.326.442c0 .285-.24.502-.51.502h-2.295a.493.493 0 0 1-.503-.502v-.443c0-.54-.375-.96-.847-.96-.473 0-.848.42-.848.96v5.46a.495.495 0 0 1-.51.503h-3.037a.5.5 0 0 1-.51-.503v-7.095c0-.285.217-.502.51-.502h3.037l.39.39c.338-.233.795-.39 1.298-.39h1.972c1.013 0 1.845.607 1.845 1.35v1.23h.008Zm10.664 6.907c0 .758-.825 1.35-1.837 1.35h-7.283a.5.5 0 0 1-.51-.51v-.502c0-.27.218-.51.51-.51h5.153a.5.5 0 0 0 .51-.503v-.202a.496.496 0 0 0-.51-.503h-2.048c-.202 0-.352-.12-.457-.27l-.893-1.387h-.675c-.982-.03-1.755-.623-1.755-1.35v-3.75c0-.743.825-1.35 1.845-1.35h2.94l.998-1.755a.529.529 0 0 1 .457-.27h3.06c.285 0 .503.217.503.51v.337a.5.5 0 0 1-.503.51h-2.145c-.555 0-.96.285-1.267.675h2.077c1.013 0 1.838.608 1.838 1.35v3.75c0 .758-.825 1.35-1.838 1.35h-4.125c.308.353.69.675 1.2.675h2.925c1.013 0 1.838.608 1.838 1.35v1.013l-.008-.008Zm-4.05-7.35c0-.54-.375-.96-.847-.96-.473 0-.848.42-.848.96v2.183c0 .525.375.945.848.945.472 0 .847-.42.847-.945v-2.183Zm15.075 4.613c0 .743-.825 1.35-1.845 1.35h-6.112c-1.013 0-1.845-.607-1.845-1.35v-5.407c0-.743.825-1.35 1.845-1.35h6.112c1.013 0 1.845.607 1.845 1.35v1.605c0 .742-.825 1.35-1.845 1.35h-3.9v1.657c0 .54.375.96.848.96.472 0 .825-.405.847-.93 0-.285.218-.51.51-.51h3.038c.285 0 .51.218.51.51v.758l-.008.007Zm-4.057-3.465v-1.147c0-.54-.375-.96-.848-.96-.472 0-.847.42-.847.96v1.147h1.695Zm14.738 3.465c0 .743-.825 1.35-1.838 1.35h-5.775c-1.012 0-1.845-.607-1.845-1.35v-7.807c0-.285.218-.51.51-.51h3.038a.5.5 0 0 1 .51.51v1.065h3.855c.27 0 .502.217.502.51v.405c0 .27-.24.51-.502.51h-3.855v4.53c0 .54.375.96.847.96.473 0 .825-.405.848-.93v-3.128a.5.5 0 0 1 .502-.51h2.7c.285 0 .51.218.51.51v3.885h-.007Zm10.665 0c0 .743-.825 1.35-1.838 1.35h-5.775c-1.012 0-1.845-.607-1.845-1.35v-7.807c0-.285.218-.51.51-.51h3.038a.5.5 0 0 1 .51.51v1.065h3.855c.27 0 .502.217.502.51v.405c0 .27-.24.51-.502.51h-3.855v4.53c0 .54.375.96.847.96.473 0 .825-.405.848-.93v-3.128a.5.5 0 0 1 .502-.51h2.7c.285 0 .51.218.51.51v3.885h-.007Zm11.002 0c0 .743-.825 1.35-1.845 1.35h-6.112c-1.013 0-1.845-.607-1.845-1.35v-1.522c0-.93 1.027-1.688 2.295-1.688h3.442v-1.402c0-.54-.375-.96-.847-.96-.473 0-.848.42-.848.96v.052a.495.495 0 0 1-.51.503h-2.82a.493.493 0 0 1-.502-.503v-.847c0-.743.81-1.35 1.822-1.35h5.91c1.013 0 1.845.607 1.845 1.35v5.407h.015Zm-4.057-1.012v-1.185h-1.688v1.402c0 .54.375.96.848.96.472 0 .847-.42.847-.96v-.217h-.007Zm15.075 1.012c0 .742-.825 1.35-1.838 1.35h-2.722c-.51 0-.96-.15-1.298-.39l-.39.39h-3.037a.5.5 0 0 1-.51-.503v-9.12a.5.5 0 0 1 .51-.51h3.037c.285 0 .51.218.51.51v1.838a2.215 2.215 0 0 1 1.185-.323h2.723c1.012 0 1.837.608 1.837 1.35v5.408h-.007Zm-4.05-4.613c0-.54-.375-.96-.848-.96-.472 0-.847.42-.847.96v3.818c0 .54.375.96.847.96.473 0 .848-.42.848-.96v-3.818Zm10.177 5.963h-3.06c-1.013 0-1.845-.607-1.845-1.35v-8.28a.5.5 0 0 1 .51-.51h3.037c.285 0 .51.218.51.51v7.485c0 .54.375.96.848.96v1.185Zm10.493-1.35c0 .743-.825 1.35-1.837 1.35h-6.113c-1.012 0-1.845-.607-1.845-1.35v-5.407c0-.743.825-1.35 1.845-1.35h6.113c1.012 0 1.837.607 1.837 1.35v1.605c0 .742-.825 1.35-1.837 1.35h-3.9v1.657c0 .54.375.96.847.96.473 0 .825-.405.848-.93a.5.5 0 0 1 .502-.51h3.038c.285 0 .502.218.502.51v.765Zm-4.057-3.465v-1.147c0-.54-.375-.96-.848-.96-.472 0-.847.42-.847.96v1.147h1.695Zm23.204 4.313a.492.492 0 0 1-.502.502h-2.873a.508.508 0 0 1-.51-.502v-5.46c0-.54-.375-.961-.847-.961-.39 0-.728.308-.81.728v5.137c0 .285-.24.51-.51.51h-1.568a.5.5 0 0 1-.51-.51v-4.897c0-.54-.375-.96-.847-.96-.473 0-.848.42-.848.96v5.46a.494.494 0 0 1-.51.502h-2.872a.5.5 0 0 1-.51-.502v-7.095c0-.285.217-.503.51-.503h2.872l.39.39c.338-.232.795-.39 1.298-.39h1.252c.623 0 1.163.218 1.5.578.323-.353.878-.578 1.485-.578h2.565c1.013 0 1.823.608 1.823 1.35v6.248l.022-.007Zm11.017-.848c0 .743-.825 1.35-1.837 1.35h-6.113c-1.012 0-1.845-.607-1.845-1.35v-5.407c0-.743.825-1.35 1.845-1.35h6.113c1.012 0 1.837.607 1.837 1.35v1.605c0 .742-.825 1.35-1.837 1.35h-3.9v1.657c0 .54.375.96.847.96.473 0 .825-.405.848-.93a.5.5 0 0 1 .502-.51h3.038c.285 0 .502.218.502.51v.765Zm-4.05-3.465v-1.147c0-.54-.375-.96-.847-.96-.473 0-.848.42-.848.96v1.147h1.695Zm18.976 4.313a.492.492 0 0 1-.502.502h-2.873a.502.502 0 0 1-.502-.502v-5.46c0-.54-.375-.961-.848-.961-.39 0-.727.308-.81.728v5.137c0 .285-.24.51-.502.51h-1.575a.495.495 0 0 1-.503-.51v-4.897c0-.54-.375-.96-.847-.96-.473 0-.848.42-.848.96v5.46a.494.494 0 0 1-.51.502h-2.872a.5.5 0 0 1-.51-.502v-7.095c0-.285.217-.503.51-.503h2.872l.39.39c.338-.232.795-.39 1.298-.39h1.252c.623 0 1.17.218 1.5.578.323-.353.878-.578 1.485-.578h2.565c1.013 0 1.823.608 1.823 1.35v6.248l.007-.007Zm11.024-.848c0 .743-.825 1.35-1.837 1.35h-6.113c-1.012 0-1.845-.607-1.845-1.35v-5.407c0-.743.825-1.35 1.845-1.35h6.113c1.012 0 1.837.607 1.837 1.35v5.407Zm-4.057-4.612c0-.54-.375-.96-.848-.96-.472 0-.847.42-.847.96v3.817c0 .54.375.96.847.96.473 0 .848-.42.848-.96v-3.817Zm14.333.442c0 .285-.24.502-.51.502h-2.295a.492.492 0 0 1-.502-.502v-.443c0-.54-.375-.96-.848-.96-.472 0-.847.42-.847.96v5.46a.496.496 0 0 1-.51.503h-3.038a.5.5 0 0 1-.51-.503v-7.095c0-.285.218-.502.51-.502h3.038l.39.39c.337-.233.795-.39 1.297-.39h1.98c1.013 0 1.845.607 1.845 1.35v1.23Zm4.919-3.652a.5.5 0 0 1-.51.51h-3.037a.501.501 0 0 1-.51-.51v-.458a.5.5 0 0 1 .51-.51h3.037c.285 0 .51.218.51.51v.458Zm0 8.67a.494.494 0 0 1-.51.502h-3.037a.5.5 0 0 1-.51-.502v-7.095c0-.285.217-.503.51-.503h3.037a.5.5 0 0 1 .51.503v7.095Zm11.018-.848c0 .743-.825 1.35-1.837 1.35h-6.113c-1.012 0-1.845-.607-1.845-1.35v-5.407c0-.743.825-1.35 1.845-1.35h6.113c1.012 0 1.837.607 1.837 1.35v1.605c0 .742-.825 1.35-1.837 1.35h-3.9v1.657c0 .54.375.96.847.96.473 0 .825-.405.848-.93a.5.5 0 0 1 .502-.51h3.038c.285 0 .502.218.502.51v.765Zm-4.057-3.465v-1.147c0-.54-.375-.96-.848-.96-.472 0-.847.42-.847.96v1.147h1.695Zm14.804 3.465c0 .742-.825 1.35-1.845 1.35h-5.947c-1.013 0-1.845-.608-1.845-1.35v-1.013a.5.5 0 0 1 .51-.51h2.955c.285 0 .51.218.51.51v.218c0 .54.375.96.847.96.473 0 .848-.42.848-.96 0-.503-.105-.78-.285-.96-.203-.15-2.145-.555-3.105-.81-1.2-.308-2.265-.66-2.265-2.295v-.54c0-.743.825-1.35 1.845-1.35h5.947c1.013 0 1.845.607 1.845 1.35v1.012a.5.5 0 0 1-.51.51h-2.955a.494.494 0 0 1-.502-.51v-.217c0-.54-.375-.96-.848-.96-.472 0-.847.42-.847.96 0 .502.097.795.285.96.202.172 2.114.525 3.104.81 1.185.337 2.266.66 2.266 2.295v.54h-.008Z"/><defs><filter id="a" width="583.287" height="429.75" x=".214" y=".625" color-interpolation-filters="sRGB" filterUnits="userSpaceOnUse"><feFlood flood-opacity="0" result="BackgroundImageFix"/><feColorMatrix in="SourceAlpha" result="hardAlpha" values="0 0 0 0 0 0 0 0 0 0 0 0 0 0 0 0 0 0 127 0"/><feOffset/><feGaussianBlur stdDeviation="15"/><feComposite in2="hardAlpha" operator="out"/><feColorMatrix values="0 0 0 0 0.929412 0 0 0 0 0.282353 0 0 0 0 0.501961 0 0 0 1 0"/><feBlend in2="BackgroundImageFix" result="effect1_dropShadow_414_1059"/><feBlend in="SourceGraphic" in2="effect1_dropShadow_414_1059" result="shape"/></filter></defs></svg>