<svg xmlns="http://www.w3.org/2000/svg" width="541" height="244" fill="none"><path fill="#000" d="m9.98 185.426-1.782-1.604 14.792-70.753 2.495 1.96-16.574-3.386.535-2.673 30.119-8.376 1.96 1.603-4.099 19.426-.178 1.248L32.079 148a680.746 680.746 0 0 0-3.386 17.822A476.785 476.785 0 0 0 26.198 184L9.98 185.426Zm54.535.891c-2.851 0-5.346-.772-7.485-2.317-2.02-1.663-3.03-3.921-3.03-6.772 0-1.664.179-3.565.535-5.703.357-2.258.832-4.693 1.426-7.307l6.95-30.654a465.803 465.803 0 0 0 1.782-8.198c.713-2.97 1.07-5.287 1.07-6.951 0-1.901-.535-3.326-1.604-4.277-1.07-1.069-2.376-1.604-3.921-1.604-2.02 0-4.337.535-6.95 1.604-2.496.951-5.288 2.495-8.377 4.634-2.97 2.02-6.356 4.634-10.158 7.841l-1.248-3.207h1.07c4.04-4.278 8.079-8.139 12.118-11.585 4.159-3.564 8.258-6.297 12.297-8.198 4.159-2.02 8.199-3.029 12.12-3.029 3.683 0 6.534 1.069 8.554 3.207 2.138 2.139 3.208 5.406 3.208 9.802a46.76 46.76 0 0 1-.713 8.02 238.837 238.837 0 0 1-1.604 8.02l-7.842 33.684c-.475 1.901-.831 3.564-1.069 4.99-.238 1.425-.356 2.614-.356 3.564 0 1.069.297 1.842.89 2.317.595.475 1.308.713 2.14.713 1.544 0 3.564-.891 6.059-2.673 2.614-1.901 5.287-4.515 8.02-7.842l2.495 1.782c-1.782 3.208-3.98 6.416-6.594 9.624-2.496 3.089-5.406 5.644-8.733 7.663-3.208 1.901-6.891 2.852-11.05 2.852Zm61.663 0c-5.228 0-10.099-1.129-14.614-3.386-4.396-2.258-7.961-5.703-10.693-10.337-2.614-4.753-3.921-10.634-3.921-17.644 0-7.01 1.01-13.723 3.03-20.138 2.019-6.535 4.93-12.357 8.732-17.466 3.921-5.228 8.555-9.327 13.901-12.297 5.466-2.97 11.525-4.455 18.179-4.455 5.227 0 10.039 1.128 14.435 3.386 4.515 2.257 8.139 5.703 10.872 10.336 2.732 4.634 4.099 10.515 4.099 17.644 0 7.01-1.07 13.782-3.208 20.317-2.02 6.416-4.99 12.238-8.911 17.465-3.802 5.109-8.376 9.149-13.723 12.119-5.347 2.971-11.406 4.456-18.178 4.456Zm0-3.921c2.851 0 5.584-1.01 8.198-3.03 2.732-2.138 5.227-5.049 7.485-8.732 2.257-3.684 4.218-7.901 5.881-12.654 1.782-4.752 3.089-9.861 3.921-15.327a96.597 96.597 0 0 0 1.426-16.574c0-7.367-1.01-12.773-3.03-16.218-2.02-3.446-5.109-5.168-9.267-5.168-2.971 0-5.822 1.009-8.555 3.029-2.614 2.02-5.049 4.931-7.307 8.733-2.139 3.683-4.04 7.901-5.703 12.654-1.663 4.633-2.97 9.683-3.921 15.148a96.608 96.608 0 0 0-1.425 16.575c0 7.366 1.009 12.831 3.029 16.396 2.139 3.445 5.228 5.168 9.268 5.168Zm29.386 46.515.713-3.208 16.931-2.495h11.762l17.466 2.495-.535 3.208h-46.337Zm13.545 0 24.06-115.842 2.851 1.96-16.574-3.386.534-2.673 30.119-8.376 1.961 1.603-4.456 21.565-.356 1.604-11.05 52.575-.713 3.029c-1.307 6.416-2.554 12.535-3.742 18.357a2529.232 2529.232 0 0 1-3.03 16.218c-.95 4.99-1.723 9.445-2.317 13.366h-17.287Zm34.753-42.594c-3.684 0-7.307-.951-10.872-2.852-3.564-1.901-6.416-4.574-8.554-8.02l8.911-6.95c1.663 2.02 3.683 3.98 6.059 5.881 2.376 1.901 5.287 2.852 8.733 2.852 1.901 0 3.683-.297 5.346-.891a19.634 19.634 0 0 0 4.991-2.495 46.064 46.064 0 0 0 4.455-3.921c3.208-3.683 5.881-8.08 8.02-13.189a75.177 75.177 0 0 0 4.99-15.683c1.188-5.346 1.782-10.099 1.782-14.257 0-4.515-.534-8.139-1.604-10.872-1.069-2.732-3.445-4.099-7.128-4.099-1.901 0-4.159.654-6.773 1.961-2.495 1.188-5.346 3.267-8.554 6.237-3.089 2.971-6.594 6.951-10.515 11.941l-1.426-2.673h1.248a147.068 147.068 0 0 1 9.98-13.901c3.683-4.396 7.544-7.961 11.584-10.693 4.159-2.733 8.555-4.099 13.188-4.099 2.971 0 5.763.772 8.377 2.316 2.613 1.426 4.693 3.743 6.237 6.951 1.664 3.208 2.495 7.426 2.495 12.653 0 5.228-1.01 10.812-3.029 16.753-2.02 5.941-4.753 11.703-8.199 17.287-3.445 5.466-7.366 10.456-11.762 14.971-4.396 4.515-9.03 8.138-13.901 10.871-4.753 2.614-9.446 3.921-14.079 3.921Zm82.184-43.307-1.604-6.951h1.782c3.327-7.604 6.594-14.02 9.802-19.248 3.327-5.346 6.772-9.386 10.337-12.118 3.683-2.733 7.604-4.099 11.762-4.099 2.139 0 4.218.594 6.238 1.782 2.02 1.069 3.445 3.029 4.277 5.881-.119 2.851-1.188 5.346-3.208 7.485-1.901 2.139-4.396 3.208-7.485 3.208-2.495 0-4.574-.535-6.238-1.604-1.544-1.188-3.327-2.851-5.346-4.99l-2.317-2.673 3.921-.891v1.069c-2.971 2.495-5.763 5.465-8.377 8.911-2.495 3.445-4.871 7.247-7.128 11.406a160.846 160.846 0 0 0-6.416 12.832Zm-23.525 40.812 14.792-70.753 2.495 1.96-16.574-3.386.534-2.673 29.05-8.376 2.139 1.603-6.238 31.545.535.891L286.402 148a396.901 396.901 0 0 0-3.208 17.822A963.905 963.905 0 0 0 280.521 184l-16.04 1.426-1.96-1.604Zm89.785 2.495c-5.228 0-10.1-1.129-14.614-3.386-4.397-2.258-7.961-5.703-10.694-10.337-2.613-4.753-3.92-10.634-3.92-17.644 0-7.01 1.01-13.723 3.029-20.138 2.02-6.535 4.931-12.357 8.733-17.466 3.921-5.228 8.555-9.327 13.901-12.297 5.466-2.97 11.525-4.455 18.178-4.455 5.228 0 10.04 1.128 14.436 3.386 4.515 2.257 8.139 5.703 10.872 10.336 2.732 4.634 4.099 10.515 4.099 17.644 0 7.01-1.07 13.782-3.208 20.317-2.02 6.416-4.99 12.238-8.911 17.465-3.802 5.109-8.377 9.149-13.723 12.119-5.347 2.971-11.406 4.456-18.178 4.456Zm0-3.921c2.851 0 5.584-1.01 8.198-3.03 2.732-2.138 5.227-5.049 7.485-8.732 2.257-3.684 4.218-7.901 5.881-12.654 1.782-4.752 3.089-9.861 3.921-15.327a96.597 96.597 0 0 0 1.426-16.574c0-7.367-1.01-12.773-3.03-16.218-2.02-3.446-5.109-5.168-9.268-5.168-2.97 0-5.821 1.009-8.554 3.029-2.614 2.02-5.05 4.931-7.307 8.733-2.139 3.683-4.04 7.901-5.703 12.654-1.663 4.633-2.97 9.683-3.921 15.148a96.609 96.609 0 0 0-1.426 16.575c0 7.366 1.01 12.831 3.03 16.396 2.139 3.445 5.228 5.168 9.268 5.168Zm73.767 3.921c-2.495 0-4.99-.416-7.485-1.248a17.112 17.112 0 0 1-6.416-3.564c-1.901-1.663-3.386-3.802-4.456-6.416-1.069-2.614-1.604-5.762-1.604-9.446 0-3.683.416-7.604 1.248-11.762a488.52 488.52 0 0 1 2.495-11.762l16.396-78.417 1.961 3.565-16.218-3.565.534-2.673 29.941-8.376 2.139 1.604-14.258 69.327-.356 2.138-3.921 18.713a185.961 185.961 0 0 1-1.426 6.416 145.106 145.106 0 0 0-1.604 7.664c-.475 2.495-.713 4.871-.713 7.128 0 3.208.713 5.941 2.139 8.199 1.544 2.257 4.099 3.386 7.663 3.386 3.446 0 6.476-.891 9.089-2.674 2.733-1.782 5.228-4.158 7.486-7.128 2.851-3.802 5.227-8.08 7.128-12.832 1.901-4.871 3.327-9.743 4.278-14.614.95-4.99 1.425-9.386 1.425-13.188 0-4.753-.653-8.436-1.96-11.05-1.307-2.614-3.683-3.921-7.129-3.921-2.02 0-4.336.654-6.95 1.961-2.614 1.188-5.584 3.267-8.911 6.237-3.208 2.971-6.773 6.951-10.693 11.941l-.891-2.673h.712c3.565-5.466 7.189-10.337 10.872-14.614 3.802-4.396 7.782-7.842 11.94-10.337 4.159-2.495 8.436-3.742 12.832-3.742 3.089 0 5.941.772 8.555 2.316 2.614 1.426 4.693 3.743 6.237 6.951 1.664 3.208 2.495 7.426 2.495 12.653 0 5.228-.95 10.812-2.851 16.753-1.901 5.941-4.574 11.703-8.02 17.287a85.779 85.779 0 0 1-11.941 14.971c-4.396 4.515-9.148 8.138-14.257 10.871-5.109 2.614-10.277 3.921-15.505 3.921Zm80.046-97.34V68.011h10.057c1.061 0 2.083.256 3.068.767 1.004.493 1.828 1.231 2.472 2.216.663.966.994 2.16.994 3.58s-.341 2.651-1.022 3.693a6.785 6.785 0 0 1-2.557 2.358c-1.023.55-2.084.824-3.182.824h-7.784v-2.87h6.818c.966 0 1.828-.34 2.585-1.022.777-.7 1.165-1.695 1.165-2.983 0-1.326-.388-2.273-1.165-2.841-.757-.568-1.591-.852-2.5-.852h-5.284v18.096h-3.665Zm12.216-9.744 5.227 9.744h-4.09l-5.086-9.744h3.949Zm-4.517 22.244c-3.144 0-6.089-.587-8.835-1.761a22.843 22.843 0 0 1-7.244-4.886 22.85 22.85 0 0 1-4.887-7.245c-1.174-2.746-1.761-5.691-1.761-8.835 0-3.144.587-6.089 1.761-8.835a22.85 22.85 0 0 1 4.887-7.245 22.843 22.843 0 0 1 7.244-4.886c2.746-1.174 5.691-1.761 8.835-1.761 3.144 0 6.089.587 8.835 1.761a22.848 22.848 0 0 1 7.245 4.886 22.848 22.848 0 0 1 4.886 7.245c1.174 2.746 1.761 5.691 1.761 8.835 0 3.144-.587 6.089-1.761 8.835a22.848 22.848 0 0 1-4.886 7.245 22.848 22.848 0 0 1-7.245 4.886c-2.746 1.174-5.691 1.761-8.835 1.761Zm0-4.233c3.409 0 6.506-.833 9.29-2.5a19.016 19.016 0 0 0 6.704-6.676c1.667-2.803 2.5-5.909 2.5-9.318 0-3.41-.833-6.506-2.5-9.29a18.942 18.942 0 0 0-6.704-6.704c-2.784-1.667-5.881-2.5-9.29-2.5-3.409 0-6.515.833-9.318 2.5a19.026 19.026 0 0 0-6.676 6.704c-1.667 2.784-2.5 5.88-2.5 9.29 0 3.41.833 6.515 2.5 9.318a19.102 19.102 0 0 0 6.676 6.676c2.803 1.667 5.909 2.5 9.318 2.5Z"/></svg>