<svg xmlns="http://www.w3.org/2000/svg" width="146" height="52" fill="none"><path fill="#09533C" d="m24.127 19.017.107-.085c2.037-2.166 1.887-4.996 1.887-4.996s-2.808-.171-4.974 1.866l-.129.128c-.043.043-.064.064-.085.107-2.08 2.144-1.909 4.974-1.909 4.974s2.81.172 4.996-1.865c.021-.043.064-.086.107-.129Z"/><path fill="#09533C" d="m33.883 22.64-.13-1.071-1.071-.15c-.236-.022-5.317-.665-10.184 1.886a24.297 24.297 0 0 1 2.08 2.123 16.045 16.045 0 0 1 6.56-1.286c0 2.294-.429 6.582-3.495 9.862l-.3.3-.15.129a6.3 6.3 0 0 1-2.251 1.394 4.16 4.16 0 0 1-1.136.278 4.468 4.468 0 0 1-2.123-.321 14.53 14.53 0 0 1-1.887-1.03c-.578.43-1.2.773-1.865 1.03a4.344 4.344 0 0 1-3.28.064 6.301 6.301 0 0 1-2.252-1.394l-.15-.128-.3-.3c-3.066-3.28-3.516-7.569-3.516-9.863 1.865-.021 6.454.279 9.863 3.43l.879.901.257.257.322.322.342-.343.258-.257.879-.9c.171-.15.343-.301.493-.43l.043-.043-1.501-1.522-.043-.043c-5.467-5.102-12.993-4.138-13.314-4.116l-1.05.15-.15 1.072c-.044.279-.837 6.925 3.3 12.264l.473.536a16.97 16.97 0 0 0 2.015 1.908 8.232 8.232 0 0 0 4.803 1.608 6.501 6.501 0 0 0 3.494-1.008h.022a6.501 6.501 0 0 0 3.494 1.008 8.385 8.385 0 0 0 4.803-1.608 16.78 16.78 0 0 0 1.994-1.908l.472-.536c4.138-5.339 3.344-11.985 3.302-12.264Zm85.288 3.496a5.298 5.298 0 0 0-2.873-.858c-3.066 0-5.124 2.166-5.124 5.382 0 3.087 2.166 5.338 5.124 5.338 2.68 0 3.645 1.48 3.645 2.852 0 2.68-2.787 2.873-3.645 2.873-2.658 0-3.602-1.48-3.602-2.873v-.279h-1.565v.279c0 2.658 2.08 4.438 5.167 4.438 3.195 0 5.189-1.694 5.189-4.438 0-1.694-.858-3.023-2.466-3.774a5.365 5.365 0 0 0 1.78-1.886 5.16 5.16 0 0 0 .643-2.53c0-1.458-.386-2.595-1.179-3.56m-3.967-.235c2.187 0 3.602 1.479 3.602 3.795 0 2.036-1.651 3.752-3.602 3.752-2.337 0-3.559-1.887-3.559-3.752 0-2.359 1.373-3.817 3.559-3.795Zm-63.934 7.268-2.938-8.684h-1.114l-2.96 8.684-2.937-8.684H40.7l3.88 11h1.502l1.736-4.739 1.03-3.259 1.007 3.259 1.737 4.76h1.5l3.86-11h-1.715l-2.873 8.663Zm10.591-8.855c-3.151 0-5.531 2.444-5.531 5.682 0 3.323 2.273 5.639 5.531 5.639 1.909 0 3.688-.815 4.696-2.123l.15-.215-1.158-.943-.171.215c-.644.879-2.102 1.479-3.517 1.479-1.736 0-3.58-1.03-3.902-3.323h9.262l.022-.236c.171-1.865-.236-3.43-1.222-4.524-.986-1.093-2.444-1.65-4.16-1.65Zm3.903 4.974h-7.805c.3-2.1 1.844-3.473 3.902-3.473 2.337 0 3.774 1.286 3.903 3.473Zm5.167-9.155h-1.566V36.47h1.566V21.097Zm3.88 0H74.34V36.47h1.565V21.097Zm11.256 5.982c-.9-1.158-2.337-1.801-4.03-1.801-3.26 0-5.468 2.273-5.468 5.682 0 3.409 2.187 5.681 5.446 5.681.772 0 1.522-.15 2.23-.471a5.055 5.055 0 0 0 1.822-1.394v1.694h1.544V21.097H87.16v5.982Zm-3.988 7.997c-2.401 0-3.966-1.608-3.966-4.116 0-3.045 2.037-4.138 3.966-4.138 2.294 0 3.967 1.736 3.967 4.116 0 2.423-1.63 4.138-3.967 4.138Zm13.122-9.798c-3.152 0-5.532 2.444-5.532 5.682 0 3.323 2.273 5.639 5.532 5.639 1.908 0 3.688-.815 4.674-2.123l.15-.215-1.158-.943-.171.215c-.644.879-2.102 1.479-3.517 1.479-1.736 0-3.58-1.03-3.902-3.323h9.262l.022-.236c.171-1.865-.236-3.43-1.222-4.524-.965-1.072-2.423-1.65-4.138-1.65Zm3.902 4.974h-7.804c.3-2.1 1.844-3.473 3.902-3.473 2.337 0 3.773 1.286 3.902 3.473Zm5.167-9.155h-1.565V36.47h1.565V21.097Zm3.902 4.31h-1.565v11.041h1.565V25.407Zm2.208-3.023.065-.065c1.308-1.393 1.2-3.216 1.2-3.216s-1.801-.107-3.194 1.2l-.086.087-.064.064c-1.308 1.393-1.201 3.216-1.201 3.216s1.801.107 3.195-1.2c.042-.022.064-.065.085-.086Zm16.745 2.936c-1.436.022-2.637.537-3.452 1.502v-5.725h-1.522V36.47h1.565v-6.003c0-2.08 1.437-3.602 3.409-3.602 2.53 0 3.066 1.822 3.066 3.344v6.26h1.544v-6.281c0-3.045-1.737-4.867-4.61-4.867Zm13.014 9.263-.257.129c-.45.235-.965.364-1.479.407-1.372 0-1.63-.75-1.63-2.144v-6.089h3.516v-1.415h-3.516v-3.195l-1.543.172v3.023h-2.209v1.415h2.209v6.089c0 2.444 1.05 3.645 3.173 3.645a4.541 4.541 0 0 0 2.058-.558l.236-.107-.558-1.372Z"/><path fill="#09533C" d="M119.343 25.407v-.322h1.372v.322a2.94 2.94 0 0 1-.729 2.036l-.965-.964c.215-.322.322-.686.322-1.072Z"/></svg>