<svg xmlns="http://www.w3.org/2000/svg" width="235" height="175" fill="none"><path stroke="#F0F0F0" stroke-dasharray="2 2" d="M33.5 160V13m21.75 147V13M77 160V13m21.75 147V13m21.75 147V13m21.75 147V13M164 160V13m21.75 147V13m21.75 147V13"/><path fill="#353535" d="M13.354 12.646a.5.5 0 0 0-.708 0l-3.182 3.182a.5.5 0 1 0 .708.707L13 13.707l2.828 2.828a.5.5 0 1 0 .707-.707l-3.181-3.182ZM13 13h-.5v147h1V13H13Z"/><path fill="#353535" d="M218.354 160.354a.502.502 0 0 0 0-.708l-3.182-3.182a.502.502 0 0 0-.708.708l2.829 2.828-2.829 2.828a.502.502 0 0 0 .708.708l3.182-3.182ZM218 160v-.5H13v1h205v-.5Z"/><path fill="#979797" d="M12.018 109.81a1 1 0 0 0 1.964.38L13 110l-.982-.19Zm210.189-6.603a.999.999 0 0 0 0-1.414l-6.364-6.364a1 1 0 1 0-1.414 1.414l5.657 5.657-5.657 5.657a.999.999 0 1 0 1.414 1.414l6.364-6.364ZM13 110l.982.19v-.001l.001-.005.004-.022.018-.091.075-.359c.066-.317.167-.784.304-1.379.273-1.19.69-2.894 1.259-4.94 1.14-4.095 2.89-9.544 5.332-14.984 2.446-5.448 5.561-10.833 9.41-14.841C34.227 69.567 38.733 67 44 67v-2c-5.983 0-10.977 2.933-15.057 7.182-4.073 4.242-7.301 9.857-9.793 15.409-2.496 5.56-4.277 11.11-5.434 15.266a114.7 114.7 0 0 0-1.281 5.028 78.72 78.72 0 0 0-.41 1.89l-.005.025-.001.007v.002L13 110Zm31-44v1c2.46 0 4.373 1.07 5.93 3.055 1.59 2.025 2.793 4.99 3.709 8.686 1.832 7.39 2.423 17.285 2.988 27.315.56 9.966 1.094 20.066 2.852 27.669.879 3.8 2.085 7.083 3.83 9.433 1.775 2.393 4.13 3.842 7.191 3.842v-2c-2.314 0-4.115-1.051-5.586-3.033-1.502-2.025-2.631-4.992-3.487-8.692-1.71-7.397-2.24-17.297-2.804-27.331-.56-9.97-1.156-20.074-3.043-27.685-.943-3.804-2.232-7.089-4.076-9.439C49.627 66.43 47.165 65 44 65v1Zm26.5 80v1c5.7 0 10.007-2.402 13.457-5.925 3.419-3.492 6.024-8.113 8.367-12.613 2.374-4.558 4.463-8.95 6.895-12.243 2.418-3.275 5.001-5.219 8.281-5.219v-2c-4.22 0-7.324 2.556-9.89 6.031-2.553 3.457-4.746 8.065-7.06 12.507-2.343 4.5-4.832 8.879-8.022 12.137C79.368 142.902 75.55 145 70.5 145v1Zm37-36v1c1.715 0 3.048.391 4.12 1.038 1.078.65 1.95 1.595 2.686 2.785 1.496 2.421 2.339 5.693 3.225 9.174.864 3.394 1.771 6.997 3.462 9.732.858 1.388 1.94 2.592 3.354 3.446 1.419.856 3.118 1.325 5.153 1.325v-2c-1.715 0-3.048-.391-4.12-1.038-1.078-.65-1.95-1.595-2.686-2.785-1.496-2.421-2.339-5.693-3.225-9.174-.864-3.394-1.771-6.997-3.462-9.732-.858-1.388-1.94-2.592-3.354-3.446-1.419-.856-3.118-1.325-5.153-1.325v1Zm22 27.5v1c2.474 0 4.206-1.867 5.433-4.411 1.244-2.58 2.147-6.191 2.843-10.411 1.393-8.455 2.005-19.706 2.66-30.87.657-11.205 1.358-22.324 2.914-30.64.78-4.165 1.759-7.539 3.006-9.847C147.607 50.002 148.983 49 150.5 49v-2c-2.608 0-4.513 1.794-5.904 4.37-1.397 2.587-2.421 6.205-3.212 10.43-1.584 8.466-2.29 19.722-2.945 30.891-.657 11.212-1.264 22.336-2.637 30.662-.687 4.171-1.554 7.552-2.67 9.867-1.135 2.351-2.356 3.28-3.632 3.28v1Zm21-89.5v1c1.86 0 3.473 1.038 4.916 3.188 1.454 2.167 2.639 5.335 3.614 9.256 1.946 7.831 2.972 18.313 3.848 28.889.873 10.529 1.596 21.154 2.949 29.131.675 3.982 1.521 7.392 2.662 9.829 1.116 2.384 2.702 4.207 5.011 4.207v-2c-1.066 0-2.152-.818-3.2-3.055-1.023-2.184-1.833-5.375-2.502-9.315-1.334-7.867-2.049-18.367-2.926-28.963-.874-10.55-1.91-21.192-3.902-29.205-.994-4-2.246-7.434-3.894-9.888C155.418 48.603 153.265 47 150.5 47v1Zm23 84.5v1c3.844 0 6.402-2.177 8.215-5.17 1.785-2.947 2.941-6.831 3.997-10.557 1.076-3.798 2.047-7.426 3.442-10.126 1.386-2.682 3.028-4.147 5.346-4.147v-2c-3.432 0-5.602 2.285-7.123 5.228-1.511 2.925-2.54 6.797-3.589 10.499-1.069 3.774-2.163 7.39-3.784 10.068-1.594 2.632-3.598 4.205-6.504 4.205v1Zm21-30v1h27v-2h-27v1Z"/><path fill="#8417CC" d="M12.34 116.749a1 1 0 1 0 1.32 1.502L13 117.5l-.66-.751Zm204.658-84.811a1 1 0 0 0-1.06-.936l-8.983.561a1 1 0 0 0 .125 1.997l7.984-.5.499 7.985a1 1 0 0 0 1.996-.125l-.561-8.982ZM13 117.5l.66.751.001-.001.004-.003.018-.016c.016-.014.04-.034.07-.062l.282-.244a290.74 290.74 0 0 1 5.112-4.301 316.256 316.256 0 0 1 13.434-10.465c5.294-3.887 11.135-7.876 16.764-11.114 5.648-3.248 11.007-5.695 15.351-6.564L64.5 84.5l-.196-.98c-4.67.934-10.257 3.514-15.956 6.792-5.717 3.288-11.624 7.324-16.95 11.235a317.725 317.725 0 0 0-18.672 14.866l-.287.249-.073.064-.02.017-.004.004-.001.001.659.752Zm51.5-33 .196.98c8.822-1.765 13.408-.7 17.576.28 2.11.497 4.2.996 6.656 1.077 2.47.081 5.272-.26 8.87-1.382L97.5 84.5l-.298-.955c-3.416 1.065-5.993 1.366-8.208 1.293-2.229-.073-4.132-.523-6.264-1.025-4.319-1.015-9.218-2.137-18.426-.294l.196.981Zm33 0 .298.955c7.351-2.292 11.726-7.866 16.098-13.305 4.417-5.494 8.881-10.933 16.449-13.711L130 57.5l-.345-.939c-8.15 2.993-12.922 8.867-17.318 14.336-4.442 5.526-8.458 10.567-15.135 12.648l.298.955Zm32.5-27 .345.939c7.669-2.816 13.377-2.82 19.688-2.11 6.318.712 13.393 2.171 23.467 2.171v-2c-9.926 0-16.742-1.426-23.244-2.158-6.51-.733-12.552-.736-20.601 2.22l.345.938Zm43.5 0v1c10.363 0 21.221-6.572 29.367-12.963 4.1-3.217 7.566-6.431 10.007-8.84a107.634 107.634 0 0 0 2.849-2.917c.331-.353.586-.63.76-.821l.197-.219.051-.057.014-.015a.019.019 0 0 1 .003-.005h.001c.001-.001.001-.001-.749-.663l-.75-.662a.011.011 0 0 0-.003.004l-.011.012-.046.052-.188.208c-.166.183-.414.453-.737.797a105.83 105.83 0 0 1-2.796 2.862c-2.402 2.371-5.811 5.532-9.836 8.69C193.529 50.322 183.137 56.5 173.5 56.5v1Z"/><path fill="#353535" d="M20.48 18v-4.364h1.555c.34 0 .62.062.844.186.223.123.39.292.5.507.111.213.166.453.166.72 0 .269-.056.51-.168.724-.11.213-.278.383-.503.508-.223.123-.503.185-.841.185h-1.07v-.558h1.01c.215 0 .389-.037.522-.111a.696.696 0 0 0 .294-.307 1 1 0 0 0 .094-.441.987.987 0 0 0-.094-.439.672.672 0 0 0-.296-.3c-.134-.073-.31-.109-.528-.109h-.827V18h-.659Zm3.666 0v-3.273h.616v.52h.034a.79.79 0 0 1 .315-.415.902.902 0 0 1 .516-.154 2.762 2.762 0 0 1 .27.015v.61a1.134 1.134 0 0 0-.136-.024 1.307 1.307 0 0 0-.196-.015.831.831 0 0 0-.402.096.712.712 0 0 0-.38.641V18h-.637Zm3.444.066c-.307 0-.574-.07-.803-.21a1.422 1.422 0 0 1-.533-.591 1.959 1.959 0 0 1-.19-.886c0-.34.064-.637.19-.891a1.42 1.42 0 0 1 .533-.592c.229-.141.496-.211.803-.211.307 0 .575.07.803.21.23.141.407.339.533.593.127.254.19.551.19.89 0 .339-.063.634-.19.887-.126.253-.304.45-.532.59-.23.14-.497.211-.804.211Zm.002-.535a.763.763 0 0 0 .495-.157.923.923 0 0 0 .29-.42 1.67 1.67 0 0 0 .095-.578c0-.208-.032-.4-.096-.575a.938.938 0 0 0-.29-.424.757.757 0 0 0-.494-.16.77.77 0 0 0-.498.16.952.952 0 0 0-.292.424 1.698 1.698 0 0 0-.094.575c0 .21.031.403.094.578a.938.938 0 0 0 .292.42.776.776 0 0 0 .498.157Zm3.673-2.804v.512h-1.85v-.512h1.85ZM29.922 18v-3.652a.91.91 0 0 1 .134-.51.823.823 0 0 1 .356-.304c.148-.068.308-.102.482-.102a1.55 1.55 0 0 1 .53.087l-.149.516a2.992 2.992 0 0 0-.115-.03.655.655 0 0 0-.17-.02c-.155 0-.266.04-.333.116a.5.5 0 0 0-.098.332V18h-.637Zm1.88 0v-3.273h.637V18h-.637Zm.322-3.778a.405.405 0 0 1-.286-.11.36.36 0 0 1-.117-.269c0-.105.039-.195.117-.268a.4.4 0 0 1 .285-.113c.111 0 .206.037.284.113a.35.35 0 0 1 .12.268c0 .104-.04.193-.12.268a.397.397 0 0 1-.283.111Zm2.58.505v.512h-1.788v-.512h1.788Zm-1.309-.784h.637v3.096c0 .124.019.217.056.28a.289.289 0 0 0 .143.125.58.58 0 0 0 .194.032.744.744 0 0 0 .134-.01l.09-.018.114.526a1.241 1.241 0 0 1-.413.068 1.12 1.12 0 0 1-.469-.089.805.805 0 0 1-.351-.29.852.852 0 0 1-.135-.492v-3.228Zm167.869 135.26v-.567h3.377v.567h-1.361V153h-.656v-3.797h-1.36Zm3.952 3.797v-3.273h.638V153h-.638Zm.322-3.778a.406.406 0 0 1-.285-.11.362.362 0 0 1-.117-.269c0-.105.039-.195.117-.268a.395.395 0 0 1 .285-.113c.111 0 .205.037.284.113a.36.36 0 0 1 0 .537.403.403 0 0 1-.284.11Zm1.053 3.778v-3.273h.611v.533h.041a.845.845 0 0 1 .334-.422.988.988 0 0 1 .556-.153c.219 0 .402.051.55.153a.899.899 0 0 1 .33.422h.034a.924.924 0 0 1 .373-.418c.171-.105.374-.157.61-.157.296 0 .539.093.726.279.189.186.283.466.283.841V153h-.637v-2.135c0-.222-.06-.382-.181-.481a.655.655 0 0 0-.432-.15c-.208 0-.369.064-.484.192a.698.698 0 0 0-.172.488V153h-.635v-2.175a.572.572 0 0 0-.167-.429.592.592 0 0 0-.432-.162.621.621 0 0 0-.335.096.712.712 0 0 0-.245.262.808.808 0 0 0-.091.39V153h-.637Zm6.593.066c-.323 0-.6-.069-.833-.207a1.392 1.392 0 0 1-.537-.586 1.98 1.98 0 0 1-.188-.888c0-.335.063-.631.188-.886.126-.256.302-.456.528-.599.228-.144.493-.215.797-.215.185 0 .364.03.537.091.173.061.329.157.467.288.137.131.246.3.326.509.079.208.119.46.119.757v.225h-2.602v-.477h1.978a.93.93 0 0 0-.103-.445.77.77 0 0 0-.718-.422.828.828 0 0 0-.468.132.885.885 0 0 0-.307.341.983.983 0 0 0-.107.454v.373c0 .218.039.404.115.558.078.153.187.27.326.351.14.08.302.12.488.12.121 0 .231-.017.331-.051a.694.694 0 0 0 .424-.416l.602.109a1.085 1.085 0 0 1-.259.466c-.124.133-.28.236-.467.309a1.736 1.736 0 0 1-.637.109Z"/><path fill="#7F7F7F" d="M156.264 137.203v-.567h3.377v.567h-1.361V141h-.656v-3.797h-1.36Zm4.888 3.863c-.322 0-.6-.069-.833-.207a1.405 1.405 0 0 1-.537-.586 1.979 1.979 0 0 1-.187-.888c0-.335.062-.631.187-.886.127-.256.303-.456.529-.599.227-.144.493-.215.797-.215.184 0 .363.03.537.091a1.298 1.298 0 0 1 .792.797c.08.208.119.46.119.757v.225h-2.601v-.477h1.977a.942.942 0 0 0-.102-.445.766.766 0 0 0-.288-.309.804.804 0 0 0-.43-.113.834.834 0 0 0-.469.132.892.892 0 0 0-.307.341.982.982 0 0 0-.106.454v.373c0 .218.038.404.115.558.078.153.187.27.326.351.139.08.302.12.488.12.121 0 .231-.017.33-.051a.692.692 0 0 0 .424-.416l.603.109a1.087 1.087 0 0 1-.26.466 1.24 1.24 0 0 1-.467.309 1.733 1.733 0 0 1-.637.109Zm3.37 0a1.51 1.51 0 0 1-.818-.215 1.421 1.421 0 0 1-.524-.599 1.979 1.979 0 0 1-.184-.873c0-.333.063-.626.188-.88.125-.256.301-.456.528-.599a1.47 1.47 0 0 1 .804-.215c.248 0 .47.046.664.138.195.091.352.219.471.384.121.164.193.357.215.577h-.62a.744.744 0 0 0-.234-.396c-.121-.111-.283-.166-.486-.166a.787.787 0 0 0-.466.14.897.897 0 0 0-.309.397 1.51 1.51 0 0 0-.111.605c0 .238.036.444.108.618a.921.921 0 0 0 .307.402.794.794 0 0 0 .471.143.79.79 0 0 0 .328-.066c.1-.046.183-.11.25-.194a.733.733 0 0 0 .142-.303h.62a1.185 1.185 0 0 1-.669.959 1.502 1.502 0 0 1-.675.143Zm2.543-2.009V141h-.637v-4.364h.628v1.624h.041a.942.942 0 0 1 .351-.42c.158-.103.364-.155.618-.155a1.2 1.2 0 0 1 .588.138c.169.092.3.23.392.414.094.181.141.409.141.681V141h-.637v-2.005c0-.24-.062-.426-.186-.558-.123-.134-.295-.2-.515-.2a.84.84 0 0 0-.405.095.69.69 0 0 0-.279.282.91.91 0 0 0-.1.443Zm4.32 3.17v-4.5h.622v.531h.053c.037-.068.091-.147.16-.237a.914.914 0 0 1 .29-.234c.123-.068.287-.102.49-.102.264 0 .5.066.707.2.208.133.37.326.488.577.12.252.179.554.179.908s-.059.657-.177.91a1.379 1.379 0 0 1-.485.582 1.266 1.266 0 0 1-.706.202 1.04 1.04 0 0 1-.488-.1.92.92 0 0 1-.294-.235 1.844 1.844 0 0 1-.164-.238h-.038v1.736h-.637Zm.624-2.863c0 .23.034.431.1.605a.925.925 0 0 0 .29.407.747.747 0 0 0 .465.145c.19 0 .349-.051.477-.152a.939.939 0 0 0 .29-.415c.066-.175.1-.372.1-.59 0-.216-.033-.41-.098-.582a.89.89 0 0 0-.29-.407.76.76 0 0 0-.479-.149.758.758 0 0 0-.469.143.878.878 0 0 0-.288.398c-.065.17-.098.369-.098.597Zm2.959 1.636v-3.273h.616v.52h.034a.795.795 0 0 1 .315-.415.898.898 0 0 1 .516-.154 2.57 2.57 0 0 1 .27.015v.61a1.018 1.018 0 0 0-.136-.024 1.294 1.294 0 0 0-.196-.015.83.83 0 0 0-.403.096.71.71 0 0 0-.379.641V141h-.637Zm3.444.066c-.307 0-.574-.07-.803-.211a1.426 1.426 0 0 1-.533-.59 1.963 1.963 0 0 1-.189-.886c0-.34.063-.637.189-.891.127-.254.304-.452.533-.592.229-.141.496-.211.803-.211.307 0 .575.07.803.211.229.14.407.338.533.592.126.254.19.551.19.891 0 .338-.064.633-.19.886a1.419 1.419 0 0 1-.533.59 1.496 1.496 0 0 1-.803.211Zm.002-.535a.766.766 0 0 0 .495-.157.928.928 0 0 0 .289-.42c.064-.175.096-.367.096-.578 0-.208-.032-.4-.096-.575a.94.94 0 0 0-.289-.424.762.762 0 0 0-.495-.16.77.77 0 0 0-.498.16.954.954 0 0 0-.292.424 1.688 1.688 0 0 0-.094.575c0 .211.031.403.094.578a.941.941 0 0 0 .292.42.775.775 0 0 0 .498.157Zm2.166.469v-4.364h.637v1.622h.038c.037-.068.091-.147.16-.237a.914.914 0 0 1 .29-.234c.124-.068.287-.102.49-.102.264 0 .5.066.707.2.208.133.37.326.488.577.12.252.179.554.179.908s-.059.657-.177.91a1.379 1.379 0 0 1-.485.582 1.266 1.266 0 0 1-.706.202c-.198 0-.361-.033-.488-.1a.92.92 0 0 1-.294-.235 1.844 1.844 0 0 1-.164-.238h-.053V141h-.622Zm.624-1.636c0 .23.034.431.1.605a.925.925 0 0 0 .29.407.747.747 0 0 0 .465.145c.19 0 .349-.051.477-.152a.939.939 0 0 0 .29-.415c.066-.175.1-.372.1-.59 0-.216-.033-.41-.098-.582a.89.89 0 0 0-.29-.407.76.76 0 0 0-.479-.149.758.758 0 0 0-.469.143.878.878 0 0 0-.288.398c-.065.17-.098.369-.098.597Zm3.598-2.728V141h-.637v-4.364h.637Zm2.147 4.43c-.322 0-.6-.069-.833-.207a1.405 1.405 0 0 1-.537-.586 1.979 1.979 0 0 1-.187-.888c0-.335.062-.631.187-.886.127-.256.303-.456.529-.599.227-.144.493-.215.797-.215.184 0 .363.03.537.091a1.298 1.298 0 0 1 .792.797c.08.208.119.46.119.757v.225h-2.601v-.477h1.977a.942.942 0 0 0-.102-.445.766.766 0 0 0-.288-.309.804.804 0 0 0-.43-.113.834.834 0 0 0-.469.132.892.892 0 0 0-.307.341.982.982 0 0 0-.106.454v.373c0 .218.038.404.115.558.078.153.187.27.326.351.139.08.302.12.488.12.12 0 .231-.017.33-.051a.692.692 0 0 0 .424-.416l.603.109a1.087 1.087 0 0 1-.26.466 1.24 1.24 0 0 1-.467.309 1.733 1.733 0 0 1-.637.109Zm1.991-.066v-3.273h.612v.533h.04a.847.847 0 0 1 .335-.422.988.988 0 0 1 .556-.153c.219 0 .402.051.55.153a.899.899 0 0 1 .33.422h.034a.919.919 0 0 1 .373-.418c.17-.105.373-.157.609-.157.297 0 .539.093.727.279.189.186.283.466.283.841V141h-.637v-2.135c0-.222-.06-.382-.181-.481a.657.657 0 0 0-.433-.15c-.207 0-.368.064-.483.192a.698.698 0 0 0-.173.488V141h-.635v-2.175a.571.571 0 0 0-.166-.429.593.593 0 0 0-.432-.162.619.619 0 0 0-.335.096.704.704 0 0 0-.245.262.808.808 0 0 0-.092.39V141h-.637Zm-142.939 9.636V155h-.605l-2.218-3.2h-.04v3.2h-.659v-4.364h.61l2.22 3.205h.04v-3.205h.652Zm2.2 4.43c-.322 0-.6-.069-.833-.207a1.397 1.397 0 0 1-.537-.586 1.979 1.979 0 0 1-.187-.888c0-.335.062-.631.187-.886.127-.256.303-.456.529-.599.227-.144.492-.215.797-.215.184 0 .363.03.536.091a1.296 1.296 0 0 1 .793.797c.08.208.12.46.12.757v.225h-2.602v-.477h1.977a.94.94 0 0 0-.102-.445.77.77 0 0 0-.288-.309.806.806 0 0 0-.43-.113.832.832 0 0 0-.469.132.887.887 0 0 0-.307.341.983.983 0 0 0-.106.454v.373c0 .218.038.404.115.558.078.153.187.27.326.351.139.08.302.12.488.12.12 0 .23-.017.33-.051a.692.692 0 0 0 .424-.416l.603.109a1.09 1.09 0 0 1-.26.466c-.124.133-.28.236-.467.309a1.735 1.735 0 0 1-.637.109Zm2.695-.066-.963-3.273h.658l.642 2.404h.031l.644-2.404h.658l.64 2.393h.031l.637-2.393h.659L53.572 155h-.65l-.665-2.363h-.049L51.544 155h-.648Zm7.117-3.273v.512h-1.788v-.512h1.788Zm-1.308-.784h.637v3.096c0 .124.018.217.055.279a.291.291 0 0 0 .143.126.58.58 0 0 0 .194.032.752.752 0 0 0 .134-.011l.09-.017.115.526a1.259 1.259 0 0 1-.413.069 1.128 1.128 0 0 1-.47-.09.799.799 0 0 1-.35-.29.848.848 0 0 1-.135-.492v-3.228Zm3.268 4.123c-.322 0-.6-.069-.833-.207a1.397 1.397 0 0 1-.537-.586 1.979 1.979 0 0 1-.187-.888c0-.335.062-.631.187-.886.127-.256.303-.456.529-.599.227-.144.492-.215.796-.215.185 0 .364.03.537.091a1.296 1.296 0 0 1 .793.797c.08.208.12.46.12.757v.225h-2.602v-.477h1.977a.94.94 0 0 0-.102-.445.77.77 0 0 0-.288-.309.807.807 0 0 0-.43-.113.832.832 0 0 0-.47.132.886.886 0 0 0-.306.341.983.983 0 0 0-.106.454v.373c0 .218.038.404.115.558.078.153.186.27.326.351.139.08.302.12.488.12.12 0 .23-.017.33-.051a.69.69 0 0 0 .424-.416l.603.109a1.09 1.09 0 0 1-.26.466c-.124.133-.28.236-.467.309a1.734 1.734 0 0 1-.637.109Zm2.944.006c-.208 0-.395-.038-.563-.115a.95.95 0 0 1-.398-.338.973.973 0 0 1-.145-.544c0-.184.035-.336.106-.456a.79.79 0 0 1 .288-.283 1.5 1.5 0 0 1 .405-.158c.149-.035.3-.062.456-.081l.477-.055a.709.709 0 0 0 .266-.075c.056-.034.083-.089.083-.166v-.015c0-.186-.052-.33-.157-.432-.104-.103-.259-.154-.465-.154-.214 0-.383.048-.507.143a.766.766 0 0 0-.253.313l-.6-.136a1.158 1.158 0 0 1 .787-.75 1.85 1.85 0 0 1 .565-.085c.13 0 .269.015.415.047a1.2 1.2 0 0 1 .414.166.913.913 0 0 1 .317.347c.082.149.124.343.124.582V155h-.623v-.447h-.025a.9.9 0 0 1-.185.242.986.986 0 0 1-.318.199c-.13.052-.284.078-.465.078Zm.138-.511a.922.922 0 0 0 .452-.104.736.736 0 0 0 .287-.273.708.708 0 0 0 .1-.364v-.422a.343.343 0 0 1-.132.064 2.421 2.421 0 0 1-.219.049l-.24.036-.197.025a1.598 1.598 0 0 0-.339.079.579.579 0 0 0-.242.16.399.399 0 0 0-.09.273c0 .157.058.277.175.358a.777.777 0 0 0 .445.119Zm2.205.439v-3.273h.612v.533h.04a.848.848 0 0 1 .335-.422.988.988 0 0 1 .556-.153c.219 0 .402.051.55.153a.899.899 0 0 1 .33.422h.034a.922.922 0 0 1 .373-.418c.17-.105.373-.157.61-.157.296 0 .538.093.726.279.189.186.283.466.283.841V155h-.637v-2.135c0-.222-.06-.382-.181-.481a.656.656 0 0 0-.433-.15c-.207 0-.368.064-.483.192a.698.698 0 0 0-.173.488V155h-.635v-2.175a.572.572 0 0 0-.166-.429.593.593 0 0 0-.433-.162.618.618 0 0 0-.334.096.709.709 0 0 0-.245.262.808.808 0 0 0-.092.39V155h-.637Zm6.65 0v-3.273h.612v.533h.04a.847.847 0 0 1 .335-.422.988.988 0 0 1 .556-.153c.22 0 .402.051.55.153a.9.9 0 0 1 .33.422h.034a.923.923 0 0 1 .373-.418 1.14 1.14 0 0 1 .61-.157c.297 0 .539.093.726.279.19.186.284.466.284.841V155h-.637v-2.135c0-.222-.06-.382-.182-.481a.656.656 0 0 0-.432-.15c-.207 0-.369.064-.484.192a.698.698 0 0 0-.172.488V155h-.635v-2.175a.572.572 0 0 0-.166-.429.593.593 0 0 0-.433-.162.619.619 0 0 0-.334.096.708.708 0 0 0-.246.262.807.807 0 0 0-.091.39V155h-.637Zm6.594.066c-.322 0-.6-.069-.833-.207a1.397 1.397 0 0 1-.537-.586 1.979 1.979 0 0 1-.188-.888c0-.335.063-.631.188-.886.126-.256.302-.456.528-.599.228-.144.493-.215.797-.215.185 0 .364.03.537.091a1.296 1.296 0 0 1 .793.797c.08.208.12.46.12.757v.225h-2.602v-.477h1.977a.94.94 0 0 0-.102-.445.77.77 0 0 0-.288-.309.806.806 0 0 0-.43-.113.832.832 0 0 0-.47.132.886.886 0 0 0-.306.341.981.981 0 0 0-.107.454v.373c0 .218.039.404.115.558a.84.84 0 0 0 .326.351c.14.08.302.12.488.12.121 0 .231-.017.33-.051a.692.692 0 0 0 .424-.416l.604.109a1.089 1.089 0 0 1-.26.466c-.124.133-.28.236-.467.309a1.735 1.735 0 0 1-.637.109Zm1.991-.066v-3.273h.611v.533h.041a.848.848 0 0 1 .334-.422.988.988 0 0 1 .557-.153c.218 0 .402.051.55.153a.899.899 0 0 1 .33.422h.034a.922.922 0 0 1 .373-.418c.17-.105.373-.157.609-.157.297 0 .539.093.727.279.188.186.283.466.283.841V155h-.637v-2.135c0-.222-.06-.382-.181-.481a.657.657 0 0 0-.433-.15c-.207 0-.368.064-.483.192a.698.698 0 0 0-.173.488V155h-.635v-2.175a.572.572 0 0 0-.166-.429.594.594 0 0 0-.433-.162.619.619 0 0 0-.334.096.71.71 0 0 0-.245.262.807.807 0 0 0-.092.39V155h-.637Zm5.234 0v-4.364h.637v1.622h.038c.037-.068.09-.147.16-.237a.913.913 0 0 1 .29-.234c.123-.068.287-.102.49-.102.264 0 .5.066.707.2.208.133.37.326.488.577.12.252.18.554.18.908s-.06.657-.178.91c-.117.251-.28.445-.485.582a1.265 1.265 0 0 1-.706.202 1.04 1.04 0 0 1-.488-.1.922.922 0 0 1-.294-.235 1.776 1.776 0 0 1-.164-.238h-.053V155h-.622Zm.624-1.636c0 .23.034.431.1.605a.92.92 0 0 0 .29.407.746.746 0 0 0 .465.145c.19 0 .349-.051.477-.152a.933.933 0 0 0 .29-.415c.066-.175.1-.372.1-.59 0-.216-.033-.41-.098-.582a.888.888 0 0 0-.29-.407.76.76 0 0 0-.48-.149.758.758 0 0 0-.468.143.876.876 0 0 0-.288.398c-.065.17-.098.369-.098.597Zm4.371 1.702c-.322 0-.6-.069-.833-.207a1.397 1.397 0 0 1-.537-.586 1.979 1.979 0 0 1-.187-.888c0-.335.062-.631.187-.886.127-.256.303-.456.528-.599.228-.144.493-.215.797-.215.185 0 .364.03.537.091a1.296 1.296 0 0 1 .793.797c.08.208.12.46.12.757v.225h-2.602v-.477h1.977a.94.94 0 0 0-.102-.445.769.769 0 0 0-.288-.309.806.806 0 0 0-.43-.113.832.832 0 0 0-.47.132.887.887 0 0 0-.306.341.983.983 0 0 0-.106.454v.373c0 .218.038.404.115.558.078.153.186.27.326.351a.96.96 0 0 0 .488.12c.12 0 .23-.017.33-.051a.69.69 0 0 0 .424-.416l.603.109a1.09 1.09 0 0 1-.26.466c-.124.133-.28.236-.467.309a1.735 1.735 0 0 1-.637.109Zm1.991-.066v-3.273h.616v.52h.034a.791.791 0 0 1 .315-.415.897.897 0 0 1 .516-.154 2.631 2.631 0 0 1 .27.015v.61a1.034 1.034 0 0 0-.136-.024 1.294 1.294 0 0 0-.196-.015.83.83 0 0 0-.403.096.717.717 0 0 0-.379.641V155h-.637ZM24.001 57.636V62h-.605l-2.218-3.2h-.04V62h-.659v-4.364h.61l2.22 3.205h.04v-3.205h.652Zm2.2 4.43c-.322 0-.6-.069-.833-.207a1.402 1.402 0 0 1-.537-.586 1.982 1.982 0 0 1-.187-.888c0-.335.062-.63.187-.886.127-.256.303-.456.529-.6a1.46 1.46 0 0 1 .797-.214c.184 0 .363.03.536.091a1.3 1.3 0 0 1 .467.288c.138.13.247.3.326.51.08.207.12.459.12.756v.225h-2.602v-.477h1.977a.941.941 0 0 0-.102-.445.773.773 0 0 0-.718-.422.832.832 0 0 0-.469.132.888.888 0 0 0-.307.34.985.985 0 0 0-.106.455v.373c0 .218.038.404.115.558.078.153.187.27.326.351.139.08.302.12.488.12.12 0 .23-.017.33-.051a.687.687 0 0 0 .424-.415l.603.108a1.091 1.091 0 0 1-.26.466 1.26 1.26 0 0 1-.467.31 1.748 1.748 0 0 1-.637.108ZM28.896 62l-.963-3.273h.658l.642 2.404h.031l.644-2.404h.658l.64 2.393h.032l.637-2.393h.658L31.572 62h-.65l-.665-2.363h-.049L29.544 62h-.648Zm6.01 0h-.7l1.57-4.364h.761L38.107 62h-.698l-1.234-3.571h-.034L34.905 62Zm.116-1.709h2.267v.554h-2.267v-.554Zm4.717 1.773c-.264 0-.5-.068-.707-.203a1.38 1.38 0 0 1-.486-.581 2.16 2.16 0 0 1-.175-.91c0-.354.059-.656.177-.908.12-.251.283-.444.49-.577.207-.134.442-.2.705-.2.203 0 .367.034.49.102a.873.873 0 0 1 .29.234c.07.09.124.169.162.237h.038v-1.622h.637V62h-.622v-.51h-.053a1.7 1.7 0 0 1-.166.24.923.923 0 0 1-.294.234 1.03 1.03 0 0 1-.486.1Zm.14-.543a.743.743 0 0 0 .465-.145.896.896 0 0 0 .29-.407c.067-.174.1-.375.1-.605 0-.228-.033-.426-.098-.597a.877.877 0 0 0-.288-.398.757.757 0 0 0-.468-.143.757.757 0 0 0-.48.149.91.91 0 0 0-.29.407 1.66 1.66 0 0 0-.096.582c0 .218.033.415.098.59a.94.94 0 0 0 .29.415c.13.101.289.152.478.152Zm3.79-3.885h.799l1.389 3.392h.051l1.39-3.392h.798V62h-.626v-3.158h-.04l-1.288 3.152h-.52l-1.286-3.154h-.04V62h-.627v-4.364Zm6.166 4.436c-.208 0-.395-.038-.563-.115a.948.948 0 0 1-.398-.338.971.971 0 0 1-.145-.544.88.88 0 0 1 .107-.456.786.786 0 0 1 .287-.283 1.5 1.5 0 0 1 .405-.158 4.06 4.06 0 0 1 .456-.08l.477-.056a.7.7 0 0 0 .267-.075c.055-.034.083-.09.083-.166v-.015c0-.186-.053-.33-.158-.432-.104-.103-.259-.154-.465-.154-.214 0-.383.048-.507.143a.765.765 0 0 0-.253.313l-.599-.136c.071-.199.175-.36.311-.482.138-.123.296-.213.475-.268a1.856 1.856 0 0 1 .98-.039c.148.03.286.086.414.167a.92.92 0 0 1 .317.347c.083.15.124.343.124.582V62h-.622v-.447h-.026a.909.909 0 0 1-.185.242.984.984 0 0 1-.318.199 1.23 1.23 0 0 1-.464.078Zm.138-.51a.915.915 0 0 0 .452-.105.73.73 0 0 0 .288-.273.708.708 0 0 0 .1-.364v-.422a.33.33 0 0 1-.132.064 2.065 2.065 0 0 1-.22.049 30.576 30.576 0 0 1-.437.061 1.58 1.58 0 0 0-.338.08.581.581 0 0 0-.243.16.4.4 0 0 0-.09.272c0 .157.058.277.175.358.116.08.265.12.445.12Zm2.842-1.505V62h-.637v-3.273h.612v.533h.04a.936.936 0 0 1 .354-.418c.162-.105.366-.157.611-.157.224 0 .419.046.587.14a.94.94 0 0 1 .39.414c.092.183.138.41.138.68V62h-.637v-2.005c0-.237-.062-.423-.186-.556-.123-.135-.293-.203-.509-.203a.798.798 0 0 0-.394.096.69.69 0 0 0-.27.282.93.93 0 0 0-.099.443Zm3.782 2.015c-.208 0-.395-.038-.563-.115a.948.948 0 0 1-.398-.338.971.971 0 0 1-.145-.544.88.88 0 0 1 .106-.456.786.786 0 0 1 .288-.283 1.5 1.5 0 0 1 .405-.158c.149-.035.301-.062.456-.08l.477-.056a.7.7 0 0 0 .267-.075c.055-.034.082-.09.082-.166v-.015c0-.186-.052-.33-.157-.432-.104-.103-.259-.154-.465-.154-.214 0-.383.048-.507.143a.764.764 0 0 0-.253.313l-.599-.136a1.15 1.15 0 0 1 .311-.482c.138-.123.296-.213.475-.268a1.856 1.856 0 0 1 .98-.039c.148.03.286.086.414.167a.92.92 0 0 1 .317.347c.083.15.124.343.124.582V62h-.622v-.447h-.026a.91.91 0 0 1-.185.242.986.986 0 0 1-.318.199 1.23 1.23 0 0 1-.464.078Zm.138-.51a.915.915 0 0 0 .452-.105.73.73 0 0 0 .288-.273.707.707 0 0 0 .1-.364v-.422a.33.33 0 0 1-.132.064 2.067 2.067 0 0 1-.22.049l-.24.036-.197.025a1.58 1.58 0 0 0-.339.08.58.58 0 0 0-.242.16.4.4 0 0 0-.09.272c0 .157.058.277.175.358.116.08.265.12.445.12Zm3.578 1.733a1.98 1.98 0 0 1-.672-.102 1.3 1.3 0 0 1-.456-.27 1.137 1.137 0 0 1-.264-.369l.548-.226c.038.063.09.129.153.198a.796.796 0 0 0 .264.181c.112.05.257.075.433.075a.973.973 0 0 0 .599-.177c.157-.116.236-.302.236-.558v-.644h-.04c-.039.07-.094.147-.167.233a.899.899 0 0 1-.294.221 1.094 1.094 0 0 1-.488.094c-.258 0-.491-.06-.698-.181a1.286 1.286 0 0 1-.49-.54c-.12-.238-.18-.531-.18-.88 0-.347.06-.645.177-.894.12-.249.283-.439.49-.571.208-.134.443-.2.706-.2.203 0 .367.034.492.102a.899.899 0 0 1 .292.234c.07.09.126.169.164.237h.047v-.53h.624v3.344c0 .282-.065.512-.196.693a1.15 1.15 0 0 1-.53.4c-.222.087-.472.13-.75.13Zm-.007-1.872a.812.812 0 0 0 .465-.128.796.796 0 0 0 .29-.371c.066-.162.1-.356.1-.582 0-.22-.033-.414-.099-.581a.865.865 0 0 0-.287-.392.757.757 0 0 0-.469-.143.757.757 0 0 0-.48.149.898.898 0 0 0-.29.4 1.592 1.592 0 0 0-.095.567c0 .215.033.403.098.565a.836.836 0 0 0 .29.38c.13.09.288.136.477.136Zm3.628.643c-.322 0-.6-.069-.833-.207a1.402 1.402 0 0 1-.537-.586 1.982 1.982 0 0 1-.188-.888c0-.335.063-.63.188-.886.126-.256.303-.456.528-.6a1.46 1.46 0 0 1 .797-.214c.185 0 .364.03.537.091a1.3 1.3 0 0 1 .467.288c.138.13.246.3.326.51.08.207.12.459.12.756v.225h-2.602v-.477h1.977a.94.94 0 0 0-.102-.445.773.773 0 0 0-.718-.422.832.832 0 0 0-.47.132.887.887 0 0 0-.306.34.985.985 0 0 0-.107.455v.373c0 .218.039.404.115.558a.84.84 0 0 0 .326.351c.14.08.302.12.488.12.121 0 .231-.017.33-.051a.687.687 0 0 0 .424-.415l.604.108a1.092 1.092 0 0 1-.26.466 1.26 1.26 0 0 1-.467.31 1.747 1.747 0 0 1-.637.108Zm1.99-.066v-3.273h.617v.52h.034a.79.79 0 0 1 .315-.415.902.902 0 0 1 .516-.154 2.765 2.765 0 0 1 .27.015v.61a1.132 1.132 0 0 0-.136-.024 1.308 1.308 0 0 0-.196-.015.832.832 0 0 0-.403.096.712.712 0 0 0-.379.641V62h-.637Zm75.077-23.364V43h-.605l-2.218-3.2h-.04V43h-.659v-4.364h.61l2.22 3.205h.04v-3.205h.652Zm2.2 4.43c-.322 0-.6-.069-.833-.207a1.409 1.409 0 0 1-.537-.586 1.982 1.982 0 0 1-.187-.888c0-.335.062-.63.187-.886a1.46 1.46 0 0 1 .529-.6 1.46 1.46 0 0 1 .796-.214c.185 0 .364.03.537.091a1.293 1.293 0 0 1 .793.798c.08.207.119.459.119.756v.225h-2.601v-.477h1.977a.942.942 0 0 0-.102-.445.77.77 0 0 0-.288-.31.804.804 0 0 0-.43-.112.832.832 0 0 0-.469.132.893.893 0 0 0-.307.34.984.984 0 0 0-.106.455v.373c0 .218.038.404.115.558.078.153.186.27.326.351.139.08.302.12.488.12.12 0 .23-.017.33-.051a.686.686 0 0 0 .424-.415l.603.108a1.089 1.089 0 0 1-.26.466 1.261 1.261 0 0 1-.467.31 1.745 1.745 0 0 1-.637.108Zm2.695-.066-.963-3.273h.658l.641 2.404h.032l.644-2.404h.658l.639 2.393h.032l.638-2.393h.658L148.572 43h-.65l-.665-2.363h-.049L146.544 43h-.648Zm6.299-4.364V43h-.658v-4.364h.658Zm2.013 4.428c-.264 0-.5-.068-.708-.203a1.372 1.372 0 0 1-.485-.581c-.117-.253-.175-.556-.175-.91s.059-.656.177-.908a1.35 1.35 0 0 1 .49-.577c.207-.134.442-.2.705-.2.203 0 .366.034.49.102a.873.873 0 0 1 .29.234c.069.09.123.169.162.237h.038v-1.622h.637V43h-.622v-.51h-.053a1.78 1.78 0 0 1-.166.24.923.923 0 0 1-.294.234 1.03 1.03 0 0 1-.486.1Zm.14-.543a.744.744 0 0 0 .465-.145.9.9 0 0 0 .29-.407c.066-.174.1-.375.1-.605a1.67 1.67 0 0 0-.098-.597.878.878 0 0 0-.288-.398.757.757 0 0 0-.469-.143.758.758 0 0 0-.479.149.908.908 0 0 0-.29.407 1.657 1.657 0 0 0-.096.582c0 .218.033.415.098.59a.943.943 0 0 0 .29.415.75.75 0 0 0 .477.152Zm3.681.545c-.323 0-.6-.069-.833-.207a1.396 1.396 0 0 1-.537-.586 1.982 1.982 0 0 1-.188-.888c0-.335.063-.63.188-.886a1.45 1.45 0 0 1 .528-.6c.228-.143.493-.214.797-.214.185 0 .364.03.537.091.173.061.329.157.467.288.138.13.246.3.326.51.079.207.119.459.119.756v.225h-2.602v-.477h1.978a.931.931 0 0 0-.103-.445.774.774 0 0 0-.718-.422.829.829 0 0 0-.468.132.885.885 0 0 0-.307.34.985.985 0 0 0-.107.455v.373c0 .218.039.404.115.558a.84.84 0 0 0 .326.351c.14.08.302.12.488.12.121 0 .231-.017.331-.051a.688.688 0 0 0 .424-.415l.603.108a1.099 1.099 0 0 1-.26.466 1.261 1.261 0 0 1-.467.31 1.745 1.745 0 0 1-.637.108Zm2.943.006c-.207 0-.395-.038-.562-.115a.947.947 0 0 1-.399-.338.976.976 0 0 1-.145-.544.88.88 0 0 1 .107-.456.785.785 0 0 1 .288-.283c.12-.07.255-.122.405-.158.149-.035.301-.062.455-.08l.478-.056a.697.697 0 0 0 .266-.075c.055-.034.083-.09.083-.166v-.015c0-.186-.052-.33-.157-.432-.104-.103-.259-.154-.465-.154-.214 0-.384.048-.507.143a.768.768 0 0 0-.254.313l-.598-.136c.071-.199.174-.36.311-.482.138-.123.296-.213.475-.268a1.854 1.854 0 0 1 .98-.039c.148.03.285.086.413.167a.92.92 0 0 1 .318.347c.082.15.123.343.123.582V43h-.622v-.447h-.025a.916.916 0 0 1-.186.242.98.98 0 0 1-.317.199 1.23 1.23 0 0 1-.465.078Zm.139-.51a.917.917 0 0 0 .452-.105.73.73 0 0 0 .387-.637v-.422a.32.32 0 0 1-.132.064 2.084 2.084 0 0 1-.219.049l-.241.036-.196.025a1.572 1.572 0 0 0-.339.08.58.58 0 0 0-.243.16.402.402 0 0 0-.089.272c0 .157.058.277.175.358a.77.77 0 0 0 .445.12Z"/><path fill="#8417CC" d="m176.556 23-1.412-5.09h.808l.992 3.942h.047l1.032-3.943h.8l1.032 3.945h.047l.989-3.945h.811L180.287 23h-.773l-1.071-3.813h-.04L177.332 23h-.776Zm5.646 0v-3.818h.744V23h-.744Zm.376-4.407a.471.471 0 0 1-.333-.13.421.421 0 0 1-.137-.313c0-.122.046-.227.137-.313a.467.467 0 0 1 .333-.132c.129 0 .239.044.33.132a.41.41 0 0 1 .14.313.417.417 0 0 1-.14.313.462.462 0 0 1-.33.13Zm3.01.589v.596h-2.086v-.596h2.086Zm-1.526-.915h.743v3.612c0 .144.021.253.065.325.043.072.098.12.166.147.07.025.145.038.226.038.06 0 .112-.005.157-.013l.104-.02.135.614a1.46 1.46 0 0 1-.483.08 1.311 1.311 0 0 1-.547-.105.94.94 0 0 1-.41-.338.996.996 0 0 1-.156-.574v-3.766Zm3.033 2.466V23h-.743v-5.09h.733v1.893h.048c.089-.205.226-.369.41-.49.184-.12.424-.18.721-.18.262 0 .49.053.686.16.197.108.349.27.457.483.11.212.164.477.164.795V23h-.743v-2.34c0-.28-.072-.496-.216-.65-.144-.156-.345-.234-.602-.234a.981.981 0 0 0-.472.112.807.807 0 0 0-.326.328 1.063 1.063 0 0 0-.117.517Zm9.209-2.824V23h-.706l-2.587-3.734h-.048V23h-.768v-5.09h.711l2.59 3.738h.048v-3.739h.76Zm2.529 5.168c-.358 0-.67-.082-.937-.246a1.654 1.654 0 0 1-.621-.689 2.278 2.278 0 0 1-.221-1.034 2.3 2.3 0 0 1 .221-1.039c.147-.296.354-.527.621-.69.267-.165.579-.247.937-.247.358 0 .671.082.938.246.266.164.473.395.621.691.147.297.221.643.221 1.04 0 .394-.074.738-.221 1.033a1.668 1.668 0 0 1-.621.689c-.267.164-.58.246-.938.246Zm.003-.624a.893.893 0 0 0 .577-.184c.152-.122.265-.286.338-.49.074-.203.112-.428.112-.673 0-.244-.038-.468-.112-.671a1.098 1.098 0 0 0-.338-.495.885.885 0 0 0-.577-.186.897.897 0 0 0-.582.186c-.152.124-.266.29-.34.495-.073.204-.11.427-.11.67 0 .246.037.47.11.674.074.204.188.367.34.49a.905.905 0 0 0 .582.184Zm2.527.547v-5.09h1.814c.396 0 .724.071.985.215.26.145.454.342.584.592.129.249.194.529.194.84 0 .313-.066.595-.197.845a1.423 1.423 0 0 1-.586.592c-.261.144-.588.216-.982.216h-1.248v-.651h1.178c.25 0 .453-.043.609-.13a.81.81 0 0 0 .343-.357 1.17 1.17 0 0 0 .109-.515 1.15 1.15 0 0 0-.109-.512.786.786 0 0 0-.345-.35c-.156-.085-.362-.127-.617-.127h-.964V23h-.768Zm4.277 0v-3.818h.719v.606h.04a.922.922 0 0 1 .367-.484c.178-.12.378-.18.602-.18a3.208 3.208 0 0 1 .316.018v.711a1.352 1.352 0 0 0-.159-.027 1.532 1.532 0 0 0-.229-.018.97.97 0 0 0-.47.112.832.832 0 0 0-.442.748V23h-.744Zm4.019.077c-.358 0-.671-.082-.938-.246a1.66 1.66 0 0 1-.621-.689 2.278 2.278 0 0 1-.221-1.034 2.3 2.3 0 0 1 .221-1.039c.147-.296.355-.527.621-.69.267-.165.58-.247.938-.247.357 0 .67.082.937.246.266.164.474.395.621.691a2.3 2.3 0 0 1 .221 1.04c0 .394-.073.738-.221 1.033a1.66 1.66 0 0 1-.621.689c-.267.164-.58.246-.937.246Zm.002-.624a.893.893 0 0 0 .577-.184c.152-.122.265-.286.338-.49.074-.203.112-.428.112-.673 0-.244-.038-.468-.112-.671a1.098 1.098 0 0 0-.338-.495.885.885 0 0 0-.577-.186.897.897 0 0 0-.582.186c-.152.124-.266.29-.34.495-.073.204-.11.427-.11.67 0 .246.037.47.11.674.074.204.188.367.34.49a.905.905 0 0 0 .582.184Zm2.527.547v-5.09h.743v1.89h.045c.043-.079.105-.17.186-.275.081-.104.194-.196.338-.274.144-.08.335-.119.572-.119.308 0 .583.078.825.234.242.155.432.38.569.673.14.294.209.647.209 1.06 0 .412-.069.766-.206 1.06-.138.294-.327.52-.567.68a1.47 1.47 0 0 1-.823.236c-.232 0-.421-.04-.569-.117a1.076 1.076 0 0 1-.343-.274 1.983 1.983 0 0 1-.191-.278h-.063V23h-.725Zm.728-1.91c0 .27.039.505.117.707.078.202.19.36.338.475a.865.865 0 0 0 .542.169.873.873 0 0 0 .557-.177 1.1 1.1 0 0 0 .338-.485 1.91 1.91 0 0 0 .116-.688c0-.252-.038-.478-.114-.679a1.033 1.033 0 0 0-.338-.474.884.884 0 0 0-.559-.174.89.89 0 0 0-.547.166 1.025 1.025 0 0 0-.336.465c-.076.199-.114.43-.114.696Zm4.508-.367v-1.834h.917c.09 0 .179.022.269.067a.562.562 0 0 1 .318.527.588.588 0 0 1-.095.338.622.622 0 0 1-.236.211.62.62 0 0 1-.283.072h-.652v-.316h.537c.06 0 .119-.025.177-.077.059-.051.089-.127.089-.228 0-.107-.03-.18-.089-.22a.302.302 0 0 0-.169-.059h-.356v1.519h-.427Zm1.128-.86.445.86h-.47l-.427-.86h.452Zm-.425 1.954c-.275 0-.533-.052-.773-.154a2.01 2.01 0 0 1-1.061-1.062 1.941 1.941 0 0 1-.154-.773c0-.275.051-.533.154-.773a1.99 1.99 0 0 1 1.834-1.215c.275 0 .533.05.773.154a1.99 1.99 0 0 1 1.062 1.061c.103.24.154.498.154.773s-.051.533-.154.773a1.993 1.993 0 0 1-1.062 1.062c-.24.102-.498.154-.773.154Zm0-.492c.275 0 .526-.067.751-.202.227-.136.408-.316.542-.542.134-.227.201-.478.201-.753s-.067-.525-.201-.75a1.515 1.515 0 0 0-.542-.543 1.426 1.426 0 0 0-.751-.203c-.275 0-.526.068-.753.203a1.515 1.515 0 0 0-.542.542 1.441 1.441 0 0 0-.201.751c0 .275.067.526.201.753.134.226.315.406.542.542.227.134.478.202.753.202Z"/><path fill="#979797" d="m176.556 89-1.412-5.09h.808l.992 3.942h.047l1.032-3.943h.8l1.032 3.945h.047l.989-3.945h.811L180.287 89h-.773l-1.071-3.813h-.04L177.332 89h-.776Zm5.646 0v-3.818h.744V89h-.744Zm.376-4.407a.471.471 0 0 1-.333-.13.421.421 0 0 1-.137-.313c0-.122.046-.227.137-.313a.467.467 0 0 1 .333-.132c.129 0 .239.044.33.132a.41.41 0 0 1 .14.313.417.417 0 0 1-.14.313.462.462 0 0 1-.33.13Zm3.01.589v.596h-2.086v-.596h2.086Zm-1.526-.915h.743v3.612c0 .144.021.253.065.325.043.072.098.12.166.147.07.025.145.037.226.037.06 0 .112-.004.157-.012l.104-.02.135.614a1.46 1.46 0 0 1-.483.08 1.311 1.311 0 0 1-.547-.105.94.94 0 0 1-.41-.338.996.996 0 0 1-.156-.574v-3.766Zm3.033 2.466V89h-.743v-5.09h.733v1.893h.048c.089-.205.226-.368.41-.49.184-.12.424-.18.721-.18.262 0 .49.053.686.16.197.108.349.27.457.483.11.212.164.477.164.795V89h-.743v-2.34c0-.28-.072-.496-.216-.65-.144-.156-.345-.234-.602-.234a.981.981 0 0 0-.472.112.807.807 0 0 0-.326.328 1.063 1.063 0 0 0-.117.517Zm4.936 2.344c-.358 0-.67-.082-.937-.246a1.654 1.654 0 0 1-.621-.689 2.278 2.278 0 0 1-.221-1.034 2.3 2.3 0 0 1 .221-1.039c.147-.296.354-.527.621-.69.267-.165.579-.247.937-.247.358 0 .671.082.937.246.267.164.474.395.622.691.147.297.221.643.221 1.04 0 .394-.074.738-.221 1.033a1.663 1.663 0 0 1-.622.689 1.75 1.75 0 0 1-.937.246Zm.003-.624a.893.893 0 0 0 .577-.184c.152-.123.265-.286.338-.49.074-.203.111-.428.111-.673 0-.244-.037-.468-.111-.671a1.098 1.098 0 0 0-.338-.495.885.885 0 0 0-.577-.186.897.897 0 0 0-.582.186c-.152.124-.266.29-.34.495a1.97 1.97 0 0 0-.11.67c0 .246.037.47.11.674.074.204.188.368.34.49a.905.905 0 0 0 .582.184Zm4.885-1.037v-2.234h.746V89h-.731v-.661h-.039a1.193 1.193 0 0 1-.423.51c-.192.134-.432.2-.718.2a1.3 1.3 0 0 1-.652-.16 1.137 1.137 0 0 1-.442-.486c-.106-.213-.159-.478-.159-.793v-2.428h.743v2.339c0 .26.072.467.216.621a.736.736 0 0 0 .562.232.91.91 0 0 0 .761-.42.94.94 0 0 0 .136-.537Zm3.387-2.234v.596h-2.085v-.596h2.085Zm-1.526-.915h.743v3.612c0 .144.022.253.065.325.043.072.098.12.166.147a.67.67 0 0 0 .227.037.868.868 0 0 0 .156-.012 7.74 7.74 0 0 0 .105-.02l.134.614a1.457 1.457 0 0 1-.482.08 1.308 1.308 0 0 1-.547-.105.935.935 0 0 1-.41-.338.989.989 0 0 1-.157-.574v-3.766Zm8.09-.358V89h-.706l-2.588-3.734h-.047V89h-.768v-5.09h.711l2.59 3.738h.047v-3.739h.761Zm2.529 5.168a1.75 1.75 0 0 1-.937-.246 1.663 1.663 0 0 1-.622-.689 2.291 2.291 0 0 1-.221-1.034c0-.396.074-.742.221-1.039a1.66 1.66 0 0 1 .622-.69 1.75 1.75 0 0 1 .937-.247c.358 0 .67.082.937.246.267.164.474.395.621.691a2.3 2.3 0 0 1 .222 1.04c0 .394-.074.738-.222 1.033a1.654 1.654 0 0 1-.621.689 1.753 1.753 0 0 1-.937.246Zm.002-.624a.893.893 0 0 0 .577-.184c.152-.123.265-.286.338-.49.075-.203.112-.428.112-.673a1.93 1.93 0 0 0-.112-.671 1.098 1.098 0 0 0-.338-.495.885.885 0 0 0-.577-.186.896.896 0 0 0-.581.186 1.11 1.11 0 0 0-.341.495 1.977 1.977 0 0 0-.109.67c0 .246.036.47.109.674.075.204.188.368.341.49a.904.904 0 0 0 .581.184Zm2.527.547v-5.09h1.814c.397 0 .725.071.985.215.26.144.455.342.584.592.129.249.194.529.194.84 0 .313-.066.595-.196.845-.13.249-.325.446-.587.592-.26.144-.588.216-.982.216h-1.248v-.651h1.178c.251 0 .454-.043.609-.13a.805.805 0 0 0 .343-.357 1.17 1.17 0 0 0 .11-.515 1.15 1.15 0 0 0-.11-.512.78.78 0 0 0-.345-.35c-.156-.085-.361-.127-.617-.127h-.964V89h-.768Zm4.278 0v-3.818h.718v.606h.04a.924.924 0 0 1 .368-.484c.177-.12.378-.18.601-.18a3.176 3.176 0 0 1 .316.018v.711a1.352 1.352 0 0 0-.159-.027 1.512 1.512 0 0 0-.229-.018.973.973 0 0 0-.47.112.84.84 0 0 0-.442.748V89h-.743Zm4.018.077c-.358 0-.67-.082-.937-.246a1.663 1.663 0 0 1-.622-.689 2.291 2.291 0 0 1-.221-1.034c0-.396.074-.742.221-1.039a1.66 1.66 0 0 1 .622-.69c.267-.165.579-.247.937-.247.358 0 .67.082.937.246.267.164.474.395.621.691a2.3 2.3 0 0 1 .222 1.04c0 .394-.074.738-.222 1.033a1.654 1.654 0 0 1-.621.689 1.753 1.753 0 0 1-.937.246Zm.002-.624a.89.89 0 0 0 .577-.184c.153-.123.265-.286.338-.49.075-.203.112-.428.112-.673a1.93 1.93 0 0 0-.112-.671 1.09 1.09 0 0 0-.338-.495.883.883 0 0 0-.577-.186.896.896 0 0 0-.581.186 1.11 1.11 0 0 0-.341.495 1.977 1.977 0 0 0-.109.67c0 .246.036.47.109.674.075.204.188.368.341.49a.904.904 0 0 0 .581.184Zm2.527.547v-5.09h.743v1.89h.045c.043-.079.105-.17.186-.275a1.06 1.06 0 0 1 .338-.274c.145-.08.335-.119.572-.119.308 0 .584.078.825.234.242.156.432.38.57.673.139.294.209.647.209 1.06 0 .412-.069.766-.207 1.06-.137.294-.326.52-.567.68-.24.157-.514.236-.822.236a1.22 1.22 0 0 1-.57-.117 1.087 1.087 0 0 1-.343-.274 2.172 2.172 0 0 1-.191-.278h-.062V89h-.726Zm.728-1.91c0 .27.039.505.117.707.078.202.191.36.338.475a.867.867 0 0 0 .542.169.871.871 0 0 0 .557-.177c.149-.12.262-.28.338-.484a1.92 1.92 0 0 0 .117-.69c0-.251-.038-.477-.115-.678a1.033 1.033 0 0 0-.338-.475.882.882 0 0 0-.559-.174.891.891 0 0 0-.547.167 1.024 1.024 0 0 0-.335.465 1.92 1.92 0 0 0-.115.696Zm4.508-.367v-1.835h.917c.09 0 .179.023.269.068a.562.562 0 0 1 .318.527.587.587 0 0 1-.331.549.616.616 0 0 1-.283.072h-.651v-.316h.537a.267.267 0 0 0 .176-.077c.06-.051.09-.127.09-.228 0-.107-.03-.18-.09-.22a.3.3 0 0 0-.169-.059h-.355v1.519h-.428Zm1.129-.86.445.86h-.47l-.428-.86h.453Zm-.425 1.954c-.275 0-.533-.052-.773-.154a1.993 1.993 0 0 1-1.062-1.061 1.941 1.941 0 0 1-.154-.774c0-.275.051-.533.154-.773a1.993 1.993 0 0 1 1.062-1.061c.24-.103.498-.154.773-.154s.532.05.773.154a2.012 2.012 0 0 1 1.061 1.061c.103.24.154.498.154.773s-.051.533-.154.773a2.007 2.007 0 0 1-1.061 1.062 1.947 1.947 0 0 1-.773.154Zm0-.492c.275 0 .525-.068.75-.202.227-.136.408-.316.542-.542.134-.227.202-.478.202-.753s-.068-.525-.202-.75a1.515 1.515 0 0 0-.542-.543 1.423 1.423 0 0 0-.75-.203c-.275 0-.527.068-.754.204a1.512 1.512 0 0 0-.541.541 1.433 1.433 0 0 0-.202.751c0 .275.067.526.202.753.134.226.314.406.541.542.227.134.479.202.754.202Z"/></svg>