<svg xmlns="http://www.w3.org/2000/svg" width="765" height="361" fill="none"><path fill="#000" d="M35.028 178.524H13.384v21.868H.822v-54.26h12.562v20.848h21.644v-20.848h12.555v54.26H35.028v-21.868Zm105.059-32.392h12.323l21.959 54.26h-13.423l-3.711-9.379h-21.962l-3.714 9.379h-13.428l21.956-54.26Zm13.983 35.172-7.822-19.829-7.746 19.829h15.568Zm90.848-35.172h10.666l24.41 33.016v-33.016h12.481v54.26h-10.669l-24.404-33.249v33.249h-12.484v-54.26Zm149.776 55.351c-4.265 0-8.161-.715-11.692-2.097-3.521-1.393-6.578-3.332-9.155-5.816-2.59-2.472-4.584-5.452-6.01-8.93-1.424-3.451-2.132-7.256-2.132-11.375 0-4.146.708-7.939 2.132-11.402 1.426-3.453 3.383-6.428 5.924-8.924 2.534-2.463 5.566-4.396 9.077-5.801 3.532-1.4 7.41-2.088 11.614-2.088 3.374 0 6.555.449 9.554 1.346 3 .914 5.708 2.172 8.107 3.801a26.194 26.194 0 0 1 6.203 5.926 24.098 24.098 0 0 1 3.859 7.755h-13.504c-1.363-2.367-3.266-4.208-5.689-5.541-2.417-1.329-5.18-1.982-8.288-1.982-2.435 0-4.646.431-6.677 1.248-2.029.83-3.767 1.994-5.216 3.49-1.454 1.49-2.565 3.287-3.344 5.341-.797 2.065-1.188 4.323-1.188 6.831 0 2.414.391 4.665 1.188 6.743.779 2.054 1.879 3.845 3.302 5.347 1.436 1.49 3.157 2.666 5.223 3.525 2.053.861 4.325 1.273 6.858 1.273 4.071 0 7.439-1.019 10.111-3.029 2.697-2 4.436-4.668 5.211-7.977h-17.928v-9.53h31.214c.315 4.642-.146 8.931-1.388 12.819-1.235 3.912-3.113 7.268-5.646 10.079-2.52 2.823-5.634 5.029-9.33 6.592-3.672 1.564-7.809 2.376-12.39 2.376Zm115.252-55.351h12.329l21.963 54.26H530.8l-3.714-9.379h-21.957l-3.719 9.379h-13.414l21.95-54.26Zm13.995 35.172-7.84-19.829-7.73 19.829h15.57Zm90.836-35.172h23.609c3.176 0 6.023.433 8.58 1.277 2.551.858 4.72 2.091 6.519 3.721 1.8 1.623 3.169 3.592 4.15 5.879.97 2.309 1.459 4.911 1.459 7.801 0 4.029-.932 7.465-2.768 10.312-1.842 2.832-4.429 4.977-7.743 6.424l11.457 18.846h-14.534l-9.882-16.902h-8.277v16.902h-12.57v-54.26Zm21.963 26.963c3.102 0 5.489-.703 7.147-2.123 1.667-1.428 2.485-3.453 2.485-6.09 0-2.635-.818-4.668-2.485-6.079-1.658-1.421-4.046-2.133-7.147-2.133h-9.555v16.425h9.555Zm-115.12-78.73c1.794-14.165 4.617-24.576 8.458-31.223 3.835-6.637 8.815-10.847 14.904-12.621 6.101-1.768 15.243-2.656 27.427-2.656h118.482l-15.56 27.233c-4.06 7.146-8.004 14.156-11.887 21.057h38.229c8.445-17.069 17.261-33.167 26.457-48.29 9.931-16.376 14.904-27.894 14.904-34.533 0-8.418-6.556-12.629-19.642-12.629H516.87c-13.08 0-19.63 4.88-19.63 14.613l-2.701 77.722c0 1.13.097 2.163.254 3.117h26.282c.194-.561.382-1.16.545-1.79Zm32.499 237.789c0 8.869 2.254 15.837 6.772 20.926 4.503 5.09 9.701 7.658 15.578 7.658 11.735 0 20.986-7.101 27.76-21.266 6.313-15.048 16.474-41.38 30.463-79.052 1.708-4.604 3.387-9.148 5.053-13.632H582.68c-19.037 38.945-28.561 67.396-28.561 85.366Zm-138.93-58.526c-4.289 6.967-10.845 11.27-19.624 12.916-8.784 1.66-23.631 2.484-44.572 2.484-2.991 0-5.129.739-6.438 2.193-1.317 1.479-2.156 4.41-2.532 8.797 0 8.809 3.374 13.22 10.103 13.22 26.909-1.127 58.107-1.66 93.623-1.66 35.891 0 67.286.533 94.211 1.66 6.725 0 10.081-4.411 10.081-13.22-.369-4.387-1.212-7.318-2.526-8.797-1.309-1.454-3.46-2.193-6.44-2.193h-5.61c-18.685 0-32.237-.908-40.646-2.75-8.409-1.83-14.583-6.24-18.509-13.208-3.199-5.695-5.102-14.456-5.684-26.282h-49.188c-.632 12.167-2.71 21.121-6.249 26.84Zm55.243-243.681c0-8.434-2.999-12.653-8.984-12.653-1.491 0-3.357.372-5.599 1.102-17.576 6.968-33.831 12.924-48.789 17.882-14.959 4.94-30.26 7.419-45.97 7.419h-5.886c-2.811 0-5.15.645-7.009 1.927-1.875 1.287-2.996 4.674-3.371 10.175 0 8.809 3.371 13.208 10.101 13.208h27.483c11.947 0 20.538 1.093 25.791 3.293 5.223 2.199 8.857 7.067 10.924 14.579.703 2.536 1.235 5.638 1.672 9.276h49.638V29.947h-.001Zm228.215 171.124c-1.733 0-3.133-.533-4.188-1.587-1.054-1.055-1.58-2.388-1.58-3.999 0-1.612.526-2.956 1.58-4.035 1.055-1.066 2.454-1.611 4.188-1.611 1.696 0 3.077.545 4.156 1.611 1.078 1.079 1.611 2.423 1.611 4.035 0 1.611-.533 2.944-1.611 3.999-1.078 1.054-2.459 1.587-4.156 1.587Zm17.804-43.8c0-1.736.558-3.154 1.679-4.248 1.114-1.096 2.581-1.645 4.398-1.645 1.824 0 3.29.549 4.41 1.645 1.115 1.094 1.673 2.512 1.673 4.248 0 1.738-.558 3.156-1.673 4.25-1.12 1.096-2.586 1.645-4.41 1.645-1.817 0-3.284-.549-4.398-1.645-1.121-1.094-1.679-2.512-1.679-4.25Zm1.363 10.547h9.428v32.574h-9.428v-32.574Zm40.762 32.574c-4.138 0-7.312-1.055-9.523-3.162-2.212-2.121-3.32-5.174-3.32-9.186v-12.531h-6.325v-7.695h2.914c.866 0 1.594-.061 2.175-.184.576-.125 1.055-.343 1.424-.652.37-.312.66-.744.866-1.305.206-.558.376-1.248.497-2.078l.558-4.217h7.325v8.436h8.935v7.695h-8.935v11.102c0 3.721 1.817 5.586 5.458 5.586h3.908v8.191h-5.957Z"/></svg>