<svg xmlns="http://www.w3.org/2000/svg" xml:space="preserve" viewBox="0 0 191 194"><path fill="#010101" d="M84 195H1V1h191v194H84m7.1-107.931c5.497-6.638 11.983-12.028 20.344-14.495 6.772-1.999 10.527 1.337 9.448 8.295-.837 5.4-2.344 10.695-3.552 16.036-2.49 11.01-5.722 21.916-7.264 33.057-1.608 11.617 5.267 17.266 16.917 15.52 13.397-2.008 20.762-11.334 27.485-22.1l-6.096-4.001c-3.34 3.58-6.05 6.985-9.307 9.74-1.367 1.156-4.402 1.836-5.743 1.078-1.188-.672-1.782-3.78-1.42-5.566 1.642-8.134 3.918-16.14 5.58-24.27 2.058-10.057 4.394-20.128 5.373-30.313.83-8.622-5.048-13.786-13.802-14.142-11.188-.456-19.699 5.083-27.475 12.197-2.962 2.71-5.657 5.714-9.432 9.56l2.937-20.475c-3.381 0-6.357-.59-8.986.114C79.06 59.189 72.28 62.2 65.168 63.67c-6.025 1.245-7.743 4.526-7.46 10.053l14.948 1.124-14.65 68.862c6.503 0 12.186.03 17.868-.013 2.682-.02 3.838-1.273 4.402-4.126 3.412-17.27 7.11-34.483 10.825-52.502z"/><path fill="#EAEAEA" d="M91.045 87.462c-3.659 17.626-7.357 34.839-10.769 52.109-.564 2.853-1.72 4.106-4.402 4.126-5.682.043-11.365.013-17.868.013l14.65-68.862-14.948-1.124c-.283-5.527 1.435-8.808 7.46-10.053 7.112-1.47 13.892-4.482 20.939-6.367 2.63-.704 5.605-.114 8.986-.114l-2.937 20.475c3.775-3.846 6.47-6.85 9.432-9.56 7.776-7.114 16.287-12.653 27.475-12.197 8.754.356 14.631 5.52 13.802 14.142-.979 10.185-3.315 20.256-5.372 30.313-1.663 8.13-3.939 16.136-5.582 24.27-.36 1.786.233 4.894 1.421 5.566 1.34.758 4.376.078 5.743-1.078 3.258-2.755 5.967-6.16 9.307-9.74l6.096 4.002c-6.723 10.765-14.088 20.09-27.485 22.099-11.65 1.746-18.525-3.903-16.917-15.52 1.542-11.14 4.774-22.047 7.264-33.057 1.208-5.341 2.715-10.637 3.552-16.036 1.08-6.958-2.676-10.294-9.448-8.295-8.361 2.467-14.847 7.857-20.4 14.888z"/></svg>