<svg xmlns="http://www.w3.org/2000/svg" width="288" height="76" fill="none"><path fill="currentColor" d="M156.81 9.82c-.28.01-.56.01-.83 0h-.47c-.82.01-.84.03-.84.82v10.72c0 1.78 0 3.57-.01 5.36 0 .49.15.72.67.69.13-.01.27-.01.41-.01h.4c.12 0 .25.01.37.01.6-.007.9-.303.9-.89V10.39c.02-.43-.19-.59-.6-.57Zm12.66 14.8c-.3-.14-.57-.34-.82-.55-.47-.42-.79-.33-1.21.13-1.31 1.43-3.44 1.45-4.66.11-.54-.6-.52-.72.21-1.02.67-.28 1.33-.55 2-.83 1.54-.64 3.08-1.29 4.62-1.92.42-.16.54-.36.36-.78-.23-.55-.48-1.08-.81-1.58-1.61-2.45-4.68-3.18-7.22-1.69-2.01 1.17-2.78 3.02-2.84 5.24v.21c0 .99.25 1.92.73 2.8 2.07 3.77 7.3 3.93 9.79.92.37-.44.43-.75-.15-1.04Zm-7.59-3.82c.08-1.3 1.52-2.59 3.12-2.6.47 0 1.07.18 1.55.65.27.27.33.51-.11.69-1.04.43-2.08.86-3.13 1.29l-.91.38c-.44.19-.55 0-.52-.41Zm-28.43-5.04c-3.53 0-6.05 2.63-6.06 5.92-.01 3.33 2.36 6.05 5.99 6.06 3.47 0 6.11-2.64 5.97-5.98.18-3.27-2.53-6-5.9-6Zm3.15 5.95c.01 1.74-1.01 3.17-2.5 3.48-1.83.4-3.69-.88-3.91-2.73-.15-1.15-.01-2.25.83-3.15.92-.99 2.34-1.34 3.48-.89 1.05.41 2.22 1.73 2.1 3.04v.25Zm-16.71-5.98c-3.36 0-5.97 2.58-5.98 5.9-.02 3.54 2.52 6.15 5.99 6.14 3.38-.01 6.04-2.64 6.05-6 .02-3.38-2.65-6.04-6.06-6.04Zm2.34 8.52c-.59.63-1.41 1.02-2.33 1.03-1.83 0-3.24-1.54-3.24-3.55s1.45-3.51 3.27-3.51c1.81.01 3.28 1.6 3.27 3.54 0 .97-.37 1.85-.97 2.49Zm29.89-8.02c-.12-.13-.39-.13-.95-.13h-.61c-.51-.02-1.02-.04-.87.81-.2 0-.29-.09-.38-.18a.647.647 0 0 0-.09-.08c-.9-.66-1.92-.99-3.02-.88-2.29.24-3.94 1.44-4.85 3.51-.97 2.2-.73 4.35.78 6.24 1.33 1.67 3.09 2.47 5.28 2.12.84-.13 1.54-.55 2.28-1.17 0 .17.01.32.01.45.01.28.01.51-.01.73-.16 1.24-.58 2.35-1.91 2.76-1.25.4-2.43.27-3.41-.75-.12-.12-.2-.28-.29-.43-.15-.3-.31-.6-.66-.58-.34.01-.67.17-1 .33-.15.07-.29.14-.44.2h-.03s-.06.04-.08.05c-.57.15-.58.46-.3.91 1.32 2.16 3.25 3.14 5.78 2.88 1.88-.19 3.37-1.05 4.22-2.8.44-.91.66-1.89.65-2.91v-9.76c0-.19 0-.36.01-.5 0-.46.01-.7-.11-.82Zm-2.29 5.36c0 .07-.01.13-.01.2h.01c.01 2.06-1.36 3.57-3.2 3.5-1.33-.06-2.23-.8-2.79-1.93-.8-1.62-.22-3.66 1.28-4.68 1.87-1.28 4.46.09 4.7 2.5.01.07.01.13.01.2v.21Zm.63 22.59c.01-.38-.12-.57-.55-.63-.86-.12-1.7-.06-2.53.12-2.09.45-3.87 1.37-4.97 3.37V45.5c0-.28 0-.57.01-.85.01-.5-.21-.69-.7-.68-.5.01-1 .01-1.5.01-.26-.01-.53-.01-.79-.01-.85.01-.86.02-.86.87v19.33c-.01.4.18.55.56.55.52-.01 1.05-.01 1.57 0h.97c.88-.01.89-.01.89-.9v-3.43c-.01-2.42-.01-4.84 0-7.25.01-2.51 1.38-4.43 3.74-5.33 1.13-.43 2.3-.43 3.48-.38.51.03.7-.17.69-.67-.03-.86-.02-1.72-.01-2.58Zm76.63-.32c-.93-.27-1.89-.47-2.86-.33-2.43.34-4.43 1.35-5.66 3.61v-2.56c.01-.42-.17-.6-.59-.6h-2.35c-.86 0-.9.04-.9.9v15.13c.01 1.33.01 2.67-.01 4 0 .53.19.74.72.72.54-.02 1.08-.02 1.62-.02.27.01.53.01.8.01.84 0 .85-.02.85-.87.01-1.22.01-2.44 0-3.66 0-2.3 0-4.59.01-6.88 0-1.04.18-2.05.7-2.96 1.21-2.13 3.24-3.37 6.08-2.77.43.09.66 0 .81-.4.34-.87.7-1.74 1.06-2.61l.03-.06c.14-.34.05-.55-.31-.65Zm-60.65 20.12c-.09-.21-.17-.41-.25-.62-.19-.48-.38-.96-.58-1.43-.04-.1-.08-.18-.1-.25-.11-.26-.16-.4-.27-.46-.13-.08-.34-.03-.82.08h-.01c-1.65.39-2.91-.19-3.41-1.53a3.77 3.77 0 0 1-.24-1.33v-2.42c0-2.57 0-5.13-.01-7.7 0-.5.18-.68.69-.67.58.01 1.16.01 1.74.01.63-.01 1.27-.01 1.91.01.51.01.71-.18.7-.67v-.11c0-.72-.01-1.44.03-2.15.03-.6-.23-.79-.81-.77-.28 0-.56.01-.85.01-.29 0-.56-.01-.85-.01-.61 0-1.21 0-1.82.01-.58.02-.75-.2-.74-.75.01-.62.01-1.24.01-1.86v-2.86c0-.78-.04-.81-.79-.81h-2.36c-.82 0-.84.02-.84.82v.69c-.01 1.38-.01 2.77 0 4.15.01.44-.16.63-.61.62-.47-.01-.93-.01-1.4-.01-.32 0-.64.01-.96 0-.43 0-.64.17-.63.62.02.84.01 1.68 0 2.52 0 .39.17.55.56.55h.83c.47.01.93.02 1.4-.01.61-.04.84.15.82.79-.03 1.23-.02 2.46-.02 3.69.01.49.01.97.01 1.46v1.56c-.01 1.18-.02 2.35.01 3.53.05 1.69.48 3.25 1.66 4.57 1.81 2.03 5.83 2.06 7.77 1.36.36-.12.34-.36.23-.63Zm21.42-12.43c-.02-1.75-.44-3.44-1.37-4.97-2.12-3.49-7.06-3.98-10.12-2.36-1.15.61-2.15 1.4-2.99 2.47v-.61c0-.19-.01-.39-.01-.58 0-.27.01-.54.02-.81.02-.54-.21-.74-.74-.72-.47.01-.95.01-1.42.01-.27 0-.54-.01-.8-.01-.86.01-.89.05-.89.92v14.92c0 1.39 0 2.77-.01 4.16-.01.55.19.78.76.76.52-.02 1.05-.02 1.57-.02.28.01.56.01.84.01.8 0 .82-.02.82-.84V53.51c-.01-.53.03-1.06.13-1.59.5-2.61 2.51-5.49 6.32-4.87 1.49.25 2.62.94 3.3 2.3.46.94.61 1.95.61 2.98.01 2.57.01 5.14.01 7.71v3.88c0 .77.03.79.8.8.29 0 .57 0 .85-.01.54 0 1.09 0 1.63.02.54.01.71-.2.71-.72v-4.87c0-2.53 0-5.06-.02-7.59Zm23.47 2.39c-.03-.69-.06-1.38-.17-2.06-.43-2.57-1.49-4.79-3.56-6.47-1.49-1.2-3.22-1.76-5.1-2.01-3.84-.51-7.71 1.36-9.66 4.66-1.47 2.49-1.96 5.14-1.63 7.97.3 2.6 1.34 4.89 3.3 6.69 2.73 2.51 6.02 3.08 9.57 2.39 2.82-.55 4.88-2.19 6.25-4.68.4-.72.38-.75-.36-1.06-.18-.08-.35-.15-.53-.22-.58-.25-1.17-.49-1.75-.75-.38-.17-.59-.1-.77.29-1.5 3.2-5.43 3.58-7.78 2.57-2.28-.99-3.56-2.78-3.94-5.2-.15-.91-.13-.92.84-.92h9.14c1.76 0 3.52-.01 5.28.02.66 0 .91-.22.88-.84v-.38h-.01Zm-4.96-2.13h-10.21c-.75 0-.82-.1-.56-.77 1.48-3.82 4.99-4.87 8.43-3.51 1.58.62 2.45 1.94 2.94 3.51.19.63.06.77-.6.77Zm-72.12-.78c-.17-2.82-1.51-5.03-4.03-6.43-2.89-1.59-5.93-1.67-8.98-.59-1.89.67-3.25 2.05-4.23 3.78-.25.42-.22.68.29.88.86.34 1.7.72 2.55 1.11.36.17.56.09.72-.28.27-.63.75-1.11 1.32-1.5 1.72-1.16 3.58-1.3 5.49-.64 1.93.67 3.17 2.47 3.14 4.36 0 .49-.12.6-.61.4-3.08-1.25-6.21-1.29-9.3-.13-2.02.76-3.63 2.06-4.32 4.19-1.27 3.94.71 7.71 4.74 8.8 3.28.88 6.31.44 8.72-2.22.06-.07.11-.14.17-.22.14-.19.29-.4.6-.55v.68c.01.49.01.96 0 1.43-.02.44.16.63.62.62.84-.02 1.69-.02 2.53 0 .51.02.71-.19.7-.69-.02-1.56-.01-3.12.01-4.69.01-.97.02-1.94.02-2.91 0-1.8-.03-3.6-.15-5.4Zm-3.77 5.53c-.54 3.38-4.19 5.81-7.54 5-.83-.2-1.59-.58-2.17-1.22-1-1.11-.89-2.85.17-4.1.99-1.15 2.31-1.59 3.77-1.7.24-.01.48-.01.72 0h.68c1.33 0 2.62.22 3.83.87.5.26.63.62.54 1.15ZM114.5 41.52c-.88-4-4.7-6.97-9.05-7.01-2.34-.01-4.68-.01-7.02-.01-.88.01-1.76.01-2.63.01-.81 0-.82.02-.82.83V52.9c0 3.68 0 7.36-.01 11.04 0 .57.16.82.77.79.53-.03 1.07-.02 1.6-.02.25.01.5.01.75.01.86 0 .87-.01.87-.85V53.38c0-.8.03-.81.84-.83.78-.01 1.56-.01 2.34 0 .4 0 .8.01 1.2.01.98 0 1.97-.02 2.96-.1 5.55-.44 9.38-5.55 8.2-10.94Zm-4.68 4.74c-1.02 1.66-2.56 2.44-4.49 2.46-.89.01-1.77.01-2.66.01-.99 0-1.98 0-2.97.01-.55 0-.76-.16-.75-.73.03-1.07.02-2.14.02-3.2V39c-.01-.5.17-.68.68-.67.94.01 1.89.01 2.83 0 1.04 0 2.07 0 3.1.01 2.03.03 3.48 1.02 4.43 2.75.96 1.74.87 3.49-.18 5.17h-.01Zm2.63-28.02c-.05-.51-.28-.71-.8-.7-.84.03-1.67.02-2.5.02h-.01c-.34 0-.68-.01-1.02-.01-.36 0-.71.01-1.07.01h-1.29c-.43 0-.86 0-1.29-.01-.55-.02-.75.19-.71.72.03.4.03.82 0 1.22-.04.56.21.71.73.7.87-.02 1.74-.02 2.61 0h1.04c1.83 0 1.93.19 1.12 1.89-.88 1.85-3.21 3.32-6.07 3-2.92-.32-5.26-2.42-5.79-5.24-.57-3.04.79-5.99 3.45-7.29 2.43-1.19 4.79-1 6.97.65.41.32.69.36 1.03-.05.25-.3.53-.58.83-.83.45-.37.42-.65-.02-1.02-1.78-1.46-3.81-2.14-6.12-2.08-5.23.13-9.85 4.74-8.99 10.66.67 4.67 5.18 8.3 10.28 7.83 4.69-.44 8.1-4.23 7.62-9.46v-.01ZM60.54 0v76h19.68V0H60.54Z"/></svg>