<svg xmlns="http://www.w3.org/2000/svg" width="188" height="68" fill="none"><path fill="#000" d="M99.6 14.06v19.27h-3.57v-12.9h-.08L87.14 33.3V20.43h-.08l-8.84 12.9h-4.34l13.56-19.27h3.26v7.99l5.6-7.99h3.3Zm19.1.03v19.24h-3.57v-12.9h-.03l-8.86 12.9h-4.29l13.51-19.24h3.24Zm15.4 19.24h-4.32l-6.94-10.04h4.08c.46 0 .9-.06 1.32-.18.42-.12.78-.3 1.09-.54.31-.24.55-.54.73-.91.18-.37.27-.81.27-1.32s-.09-.93-.28-1.3c-.19-.37-.44-.67-.76-.91s-.68-.42-1.09-.54a4.55 4.55 0 0 0-1.28-.18h-5.86V14.1h5.88c.86 0 1.68.08 2.48.24.8.16 1.54.51 2.22 1.04.72.57 1.28 1.25 1.67 2.07.39.81.59 1.68.59 2.61 0 .82-.16 1.65-.48 2.49-.32.84-.78 1.54-1.37 2.11-.5.48-.99.83-1.48 1.04-.49.21-1.06.4-1.71.55l5.21 7.09.03-.01Zm9.19 0h-3.55v-15.9h-3.57v-3.34h10.74v3.34h-3.62v15.9Zm5.86-19.27h3.52v19.27h-3.52V14.06Zm22.6.03v19.24h-3.57v-12.9h-.03l-8.86 12.9H155l13.51-19.24h3.24Zm3.54-.05h3.57v15.98h5.86v3.31h-9.43V14.04ZM90.64 34.56V53.8h-3.57V40.9h-.03l-8.86 12.9h-4.29L87.4 34.56h3.24Zm15.4 19.24h-4.32l-6.94-10.04h4.08c.46 0 .9-.06 1.32-.18.42-.12.78-.3 1.09-.54.31-.24.55-.54.73-.91.18-.37.27-.81.27-1.32s-.09-.93-.28-1.3c-.19-.37-.44-.67-.76-.91s-.68-.42-1.09-.54a4.55 4.55 0 0 0-1.28-.18H93v-3.31h5.88c.86 0 1.68.08 2.48.24.8.16 1.54.51 2.22 1.04.72.57 1.28 1.25 1.67 2.07.39.81.59 1.68.59 2.61 0 .82-.16 1.65-.48 2.49-.32.84-.78 1.54-1.37 2.11-.5.48-.99.83-1.48 1.04-.49.21-1.06.4-1.71.55l5.21 7.09.03-.01Zm9.18 0h-3.55V37.9h-3.57v-3.34h10.74v3.34h-3.62v15.9Zm12.33-11.64c.7.24 1.35.52 1.95.83.6.32 1.12.7 1.55 1.16.44.45.77.98 1.01 1.59.24.61.36 1.31.36 2.12 0 .87-.15 1.67-.45 2.4-.3.73-.72 1.35-1.26 1.88-.54.52-1.17.93-1.9 1.22-.73.29-1.53.44-2.4.44h-5.39v-3.24h5.39c.68 0 1.28-.2 1.79-.6.5-.4.76-.96.76-1.68 0-.53-.11-.96-.32-1.3-.21-.33-.49-.61-.82-.82-.33-.21-.71-.39-1.13-.54-.42-.15-.83-.3-1.25-.45-.27-.12-.55-.24-.83-.36-.28-.12-.56-.24-.83-.36-.94-.5-1.64-1.13-2.08-1.89-.45-.76-.67-1.67-.67-2.74 0-.77.14-1.48.41-2.12.27-.64.65-1.19 1.13-1.66.48-.46 1.04-.83 1.7-1.09a5.63 5.63 0 0 1 2.11-.42h6.06v3.16h-6.06c-.53 0-.98.18-1.34.54-.36.36-.54.81-.54 1.36 0 .45.09.81.28 1.1.19.29.43.53.73.71.3.18.63.33.99.44.36.11.71.22 1.05.32Zm15.61-7.63h3.57v15.98h5.86v3.31h-9.43V34.53Zm28.52.06v19.24h-3.57v-12.9h-.03l-8.86 12.9h-4.29l13.51-19.24h3.24Zm13.68 18.11c-.69.48-1.48.79-2.38.92-.9.14-1.76.21-2.58.21h-5.16V34.56h4.16c.5 0 .99.01 1.49.04s.98.09 1.45.18.93.24 1.39.44a4.873 4.873 0 0 1 2.45 2.46c.29.64.44 1.3.44 1.97 0 1.63-.71 2.85-2.13 3.67 2.17.81 3.26 2.41 3.26 4.8 0 .94-.21 1.81-.62 2.59-.41.79-1 1.45-1.77 1.98v.01Zm-5.08-14.83h-1.46v4.21h1.36c.34 0 .68-.03 1.03-.09.34-.06.65-.17.92-.32s.5-.37.67-.64c.17-.27.26-.62.26-1.05 0-.43-.08-.75-.23-1.01a1.73 1.73 0 0 0-.62-.64c-.26-.16-.55-.28-.89-.35-.33-.07-.68-.1-1.04-.1v-.01Zm.41 7.53h-1.88v5.11h1.8c.43 0 .85-.03 1.27-.1.42-.07.8-.2 1.14-.39.34-.19.62-.45.83-.77.21-.33.32-.75.32-1.28 0-.48-.1-.89-.31-1.22-.21-.33-.48-.6-.81-.8-.33-.2-.71-.34-1.13-.42-.42-.09-.83-.13-1.25-.13h.02Z"/><path fill="#ED1C24" d="M33.93 67.86c18.739 0 33.93-15.191 33.93-33.93C67.86 15.191 52.669 0 33.93 0 15.191 0 0 15.191 0 33.93c0 18.739 15.191 33.93 33.93 33.93Z"/><path fill="#000" d="M53.22 35.05c2.15 9.59-5.75 19.8-15.62 21.09-13.64 2.27-25.94-9.51-24.61-23.24 2.18-21.15 30-27.25 40.36-8.55l-5.19 3c-3.95-6.25-12.24-8.93-18.99-5.99C18.31 26 16.8 40.79 26.42 47.64c10.59 7.25 24.43-.28 26.8-12.6v.01Z"/><path fill="#000" d="m48.2 27.37 9.31-.16 2.28-3.23-26.4-17.56 8.16 11.64"/><path fill="#000" d="M59.79 23.98 41.96 8.42l4.18 8.76 13.65 6.8Zm-25.4-10.8H19.13L28.38 17l6.01-3.82ZM18.86 19.9 8.07 30.69l9.25-3.84 1.54-6.95Zm-5.95 15.65v15.26l3.82-9.25-3.82-6.01Zm6.93 15.11 10.79 10.79-3.84-9.25-6.95-1.54Zm14.99 5.76h15.26l-9.25-3.82-6.01 3.82Z"/><path fill="#fff" stroke="#fff" stroke-miterlimit="16" stroke-width=".1" d="m46.113 18.966 6.03 3.18.18.095h-3.466l-.015-.018-2.79-3.18-.178-.204.24.127Z"/></svg>