<svg xmlns="http://www.w3.org/2000/svg" width="71" height="61" fill="none"><path fill="#004F39" d="m35.456 12.738.356-1.876h7.3V30.13c3.415 0 6.506.261 9.538-.055 6.047-.63 10.16-6.19 10.023-13.12-.141-7.06-4.362-11.263-11.447-11.322-5.109-.043-10.217-.009-15.475-.009V.26c7.658 0 15.322-.704 22.789.209 6.781.829 10.423 6.124 11.637 12.724 1.17 6.352-.029 12.239-4.306 17.282-2.66 3.137-6.067 5.179-10.164 5.323-6.563.233-13.141.063-20.02.063V24.506c-.172-.027-.343-.055-.515-.081-.285.66-.563 1.322-.857 1.978-2.654 5.903-7.112 9.353-13.68 9.516-6.483.16-12.975.035-19.657.035v-5.699h6.837c2.48 0 4.96-.046 7.439.01 4.956.112 9.32-1.107 11.445-6.035 2.234-5.183 1.5-10.21-1.943-14.722-1.802-2.362-4.3-3.67-7.266-3.8-2.893-.128-5.797-.027-9.058-.027V24.96H.922V.204c7.214 0 14.406-.502 21.49.157 5.78.538 9.436 4.765 11.75 9.988.309.697.583 1.407.883 2.108.026.063.13.093.41.282Z"/><path fill="#5DDA52" d="M1 40.801h69.6v4.8H1z"/><path fill="#004F39" d="M4.029 60.485c-1.98 0-2.99-1.401-2.99-3.335 0-1.962 1.028-3.373 2.99-3.373 1.625 0 2.625.972 2.756 2.261H5.664c-.094-.7-.608-1.252-1.635-1.252-1.336 0-1.869 1.047-1.869 2.364s.533 2.335 1.869 2.335c1.12 0 1.681-.71 1.737-1.588h-1.55v-.971h2.653v.625c0 1.785-1.103 2.934-2.84 2.934Zm4.09-.084v-6.54h1.093v5.55h3.082v.99H8.12Zm7.698.084c-2.056 0-3.018-1.486-3.018-3.354 0-1.878.962-3.354 3.018-3.354 2.046 0 3.017 1.476 3.017 3.354 0 1.868-.971 3.354-3.017 3.354Zm0-1.009c1.354 0 1.896-1.028 1.896-2.345 0-1.317-.542-2.345-1.896-2.345-1.364 0-1.897 1.028-1.897 2.345 0 1.317.542 2.345 1.897 2.345Zm4.271.925v-6.54h2.84c1.13 0 1.934.626 1.934 1.7 0 .71-.327 1.112-.747 1.337v.037c.523.224.99.682.99 1.579 0 1.196-.803 1.887-2.083 1.887h-2.934Zm1.084-3.859h1.55c.645 0 1.028-.298 1.028-.896 0-.505-.326-.813-.962-.813h-1.616v1.71Zm0 2.878h1.691c.71 0 1.121-.374 1.121-.962 0-.58-.374-.963-1.121-.963h-1.691v1.925Zm8.23-5.559 2.346 6.447v.093h-1.196l-.514-1.514h-2.672l-.514 1.514h-1.158v-.094l2.335-6.446h1.374Zm-1.709 4.064h2.018l-.99-2.915h-.038l-.99 2.915Zm5.077 2.476v-6.54h1.093v5.55h3.083v.99H32.77Zm10.003.084c-1.653 0-2.54-.86-2.597-2.167h1.112c.056.766.598 1.186 1.485 1.186.981 0 1.439-.327 1.439-.934 0-.514-.355-.766-1.01-.906l-.952-.206c-1.13-.243-1.86-.747-1.86-1.85 0-1.102.907-1.83 2.392-1.83 1.44 0 2.439.821 2.448 2.026h-1.11c-.038-.597-.449-1.037-1.355-1.037-.813 0-1.243.3-1.243.841 0 .411.3.673.953.813l.888.187c1.214.252 1.98.822 1.98 1.943 0 1.168-.86 1.934-2.569 1.934Zm5.174-.084v-5.55h-1.97v-.99h5.044v.99H49.05v5.55h-1.103Zm6.69.084c-2.056 0-3.018-1.486-3.018-3.354 0-1.878.962-3.354 3.017-3.354 2.046 0 3.018 1.476 3.018 3.354 0 1.868-.972 3.354-3.018 3.354Zm0-1.009c1.354 0 1.896-1.028 1.896-2.345 0-1.317-.542-2.345-1.897-2.345-1.364 0-1.896 1.028-1.896 2.345 0 1.317.542 2.345 1.896 2.345Zm7.821-1.672 1.672 2.503v.094h-1.242l-1.579-2.467h-1.308v2.467h-1.093v-6.54h2.765c1.355 0 2.14.907 2.14 2.018 0 .953-.533 1.654-1.355 1.925Zm-2.457-2.952v2.092h1.607c.729 0 1.074-.439 1.074-1.055 0-.608-.355-1.037-1.074-1.037h-1.607Zm5.166 5.549v-6.54h4.41v.99H66.26v1.682h3.027v.99H66.26v1.897h3.316v.98h-4.41Z"/></svg>