<svg xmlns="http://www.w3.org/2000/svg" width="162" height="28" fill="none"><g clip-path="url(#a)"><path fill="#126187" d="M101.732 23.387a60.854 60.854 0 0 1-3.527-.808l-.644 1.27c.955.372 2.023.75 3.352 1.152l.819-1.614Z"/><path fill="#186E7B" d="m102.915 23.607-.874 1.721c1.237.348 2.68.713 4.422 1.107l.221.047 1.119-2.202a62.21 62.21 0 0 1-4.89-.671l.002-.002Z"/><path fill="#147B6D" d="M107.859 26.716a48.73 48.73 0 0 0 6.176.7l1.46-2.873c-.572.018-1.157.03-1.757.03-1.539 0-3.108-.064-4.695-.187l-1.184 2.33Z"/><path fill="#0D5290" d="M97.07 22.269a54.13 54.13 0 0 1-2.489-.762c-.165-.055-.24-.044-.333.116a5.37 5.37 0 0 0-.225.467c-.065.183 0 .288.272.402.75.312 1.453.618 2.193.924l.581-1.147Z"/><path fill="#0A885B" d="M126.562 22.77c-2.668.877-5.873 1.5-9.743 1.716l-1.516 2.983a54.357 54.357 0 0 0 9.12-.492l2.139-4.209v.002Z"/><path fill="#0D9444" d="M146.643 9.044s-4.568 2.687-6.087 3.797c-.216.16-.37.377-.535.589-1.676 2.18-5.782 6.48-11.879 8.774l-2.312 4.552c7.813-1.343 15.057-4.895 19.721-10.451.221-.263.295-.608.374-.94.443-1.867 1.07-6.115 1.07-6.115a.222.222 0 0 0-.352-.206Z"/><path fill="#0D5290" d="M121.516 17.926c-.646 0-1.206-.144-1.68-.434a2.61 2.61 0 0 1-1.008-1.262c-.198-.553-.229-1.204-.093-1.953l1.773-9.35h2.334l-1.774 9.33c-.074.487-.024.881.15 1.184.174.302.504.454.989.454.224 0 .448-.033.672-.1.237-.078.448-.183.635-.315l.41 1.815a3.265 3.265 0 0 1-1.157.493c-.423.092-.84.138-1.251.138Zm-3.453-8.62.373-1.973h6.627l-.373 1.973h-6.627Zm-4.624-2.38c.854 0 1.579.19 2.173.57.595.381 1.009.945 1.245 1.692.247.733.272 1.636.074 2.709l-1.096 6.03h-2.322l1.077-5.97c.161-.882.087-1.568-.223-2.057-.31-.502-.873-.753-1.69-.753-.855 0-1.561.258-2.118.774-.557.516-.936 1.304-1.133 2.363l-1.041 5.642h-2.322l1.969-10.877h2.211l-.557 3.096-.372-.978c.47-.774 1.059-1.338 1.765-1.69a5.114 5.114 0 0 1 2.36-.55Zm-12.376 11 1.879-11.067h2.217l-1.88 11.067h-2.216Zm3.493-12.89c-.403 0-.727-.139-.975-.415a1.586 1.586 0 0 1-.355-1.037c0-.47.136-.863.408-1.18.284-.319.65-.478 1.099-.478.39 0 .709.139.958.415.248.262.372.587.372.974 0 .511-.137.926-.408 1.244-.272.317-.638.476-1.099.476Zm-10.493 12.89 1.78-10.877h1.997l-.504 3.096-.184-.896c.413-.883.94-1.487 1.578-1.813.638-.34 1.415-.51 2.333-.51l-.386 2.424a.875.875 0 0 0-.252-.04 1.588 1.588 0 0 0-.268-.02c-.818 0-1.495.264-2.032.794-.537.516-.895 1.344-1.074 2.485l-.89 5.357h-2.098Zm-6.438.179c-.81 0-1.51-.164-2.103-.49a3.234 3.234 0 0 1-1.341-1.492c-.302-.668-.441-1.492-.417-2.473.024-1.363.242-2.548.652-3.556.411-1.008.985-1.785 1.722-2.33.75-.558 1.638-.838 2.665-.838.798 0 1.517.191 2.157.573.641.367 1.149.912 1.523 1.634.387.709.58 1.567.58 2.575 0 .927-.139 1.778-.417 2.555a6.033 6.033 0 0 1-1.142 2.023 5.493 5.493 0 0 1-1.74 1.349 4.876 4.876 0 0 1-2.14.47Zm-6.562 3.821L83.691 7.05h2.157l-.435 2.493-.598 2.902-.326 2.922-1.16 6.56h-2.266Zm6.38-6.008c.653 0 1.227-.17 1.723-.51.496-.355.888-.839 1.178-1.452.29-.613.435-1.321.435-2.125 0-.845-.224-1.512-.67-2.003-.447-.49-1.076-.735-1.886-.735-.64 0-1.214.177-1.722.53-.496.342-.888.818-1.178 1.431-.29.614-.435 1.322-.435 2.126 0 .845.223 1.512.67 2.002.447.491 1.076.736 1.886.736Zm-12.7 2.008a7.947 7.947 0 0 1-1.848-.213 8.511 8.511 0 0 1-1.623-.564 5.333 5.333 0 0 1-1.209-.817l.95-1.983c.334.31.713.576 1.14.797a6.115 6.115 0 0 0 2.797.68c.587 0 1.1-.077 1.537-.233.437-.155.771-.376 1.001-.661a1.54 1.54 0 0 0 .363-1.03c0-.363-.11-.655-.328-.876-.219-.233-.512-.42-.88-.563a10.327 10.327 0 0 0-1.192-.428 31.054 31.054 0 0 1-1.295-.467 5.803 5.803 0 0 1-1.192-.661 3.278 3.278 0 0 1-.88-1.03c-.22-.415-.329-.934-.329-1.556 0-.895.22-1.666.657-2.314.448-.661 1.064-1.173 1.847-1.536.795-.363 1.716-.545 2.763-.545.783 0 1.526.098 2.228.292.702.195 1.306.48 1.813.856l-.88 2.002a5.123 5.123 0 0 0-1.52-.777 5.715 5.715 0 0 0-1.762-.273c-.598 0-1.116.085-1.554.253-.437.169-.771.402-1.001.7-.23.298-.352.648-.363 1.05 0 .376.11.68.328.914.219.22.507.408.863.564.357.156.755.305 1.192.447.438.13.87.279 1.295.447.438.169.84.383 1.209.642.368.26.662.59.88.992.22.389.329.881.329 1.477 0 .895-.225 1.673-.674 2.334-.437.66-1.059 1.173-1.865 1.536-.794.363-1.727.544-2.797.544Z"/><path fill="#0D9444" d="m66.063 17.926 2.168-15h1.832l-2.169 15h-1.831Zm-7.851 0a4.055 4.055 0 0 1-2.1-.563c-.625-.375-1.125-.911-1.502-1.608-.364-.711-.547-1.562-.547-2.554 0-.912.13-1.75.388-2.514a6.214 6.214 0 0 1 1.13-1.99 5.166 5.166 0 0 1 1.678-1.308 4.864 4.864 0 0 1 2.119-.463c.788 0 1.465.161 2.03.483.577.322 1.012.811 1.307 1.468.294.644.43 1.448.406 2.413-.024 1.327-.236 2.494-.636 3.5-.4.991-.96 1.762-1.677 2.312-.718.55-1.583.824-2.596.824Zm.565-2.151c.636 0 1.195-.168 1.678-.503.482-.349.865-.825 1.147-1.428.283-.603.424-1.3.424-2.091 0-.831-.218-1.488-.653-1.971-.436-.483-1.048-.724-1.837-.724a2.84 2.84 0 0 0-1.677.523c-.482.335-.865.804-1.148 1.408-.282.603-.423 1.3-.423 2.09 0 .832.218 1.49.653 1.972.436.482 1.048.724 1.836.724Zm2.313 2.01.424-2.453.6-2.855.3-2.876.442-2.554h2.207l-1.872 10.739h-2.1Zm-15.027.141L48.097 7.05h2.282l-.575 3.096-.211-.896c.473-.883 1.074-1.487 1.803-1.813.73-.34 1.618-.51 2.667-.51l-.441 2.424a1.124 1.124 0 0 0-.288-.04 2.064 2.064 0 0 0-.307-.02c-.934 0-1.707.264-2.321.794-.614.516-1.024 1.344-1.228 2.485l-1.017 5.357h-2.398Zm-7.711 0c-.76 0-1.414-.19-1.959-.569-.533-.393-.914-.956-1.14-1.688-.228-.745-.25-1.653-.069-2.724l1.005-6.019h2.13l-1.006 5.958c-.136.881-.068 1.572.204 2.074.284.488.795.732 1.533.732.761 0 1.397-.258 1.908-.773.523-.515.869-1.301 1.04-2.358l.953-5.633h2.112l-1.806 10.858h-2.026l.51-3.09.341.975c-.431.773-.976 1.342-1.635 1.708a4.187 4.187 0 0 1-2.095.55Zm-7.836 0c-.647 0-1.207-.144-1.68-.434a2.605 2.605 0 0 1-1.008-1.262c-.199-.553-.23-1.204-.093-1.953l1.773-9.35h2.334l-1.774 9.33c-.074.487-.025.881.15 1.184.174.302.504.454.989.454.224 0 .448-.033.672-.1a2.4 2.4 0 0 0 .635-.315l.41 1.815a3.278 3.278 0 0 1-1.157.493c-.423.092-.84.138-1.25.138Zm-3.453-8.62.373-1.973h6.627l-.373 1.973h-6.627Zm-7.851 8.62a4.055 4.055 0 0 1-2.1-.563c-.625-.375-1.125-.911-1.502-1.608-.364-.711-.547-1.562-.547-2.554 0-.912.13-1.75.388-2.514a6.214 6.214 0 0 1 1.13-1.99 5.166 5.166 0 0 1 1.678-1.308 4.864 4.864 0 0 1 2.119-.463c.788 0 1.465.161 2.03.483.577.322 1.012.811 1.307 1.468.294.644.43 1.448.406 2.413-.024 1.327-.236 2.494-.636 3.5-.4.991-.96 1.762-1.677 2.312-.718.55-1.583.824-2.596.824Zm.565-2.151c.636 0 1.195-.168 1.678-.503.482-.349.865-.825 1.147-1.428.283-.603.424-1.3.424-2.091 0-.831-.218-1.488-.653-1.971-.436-.483-1.048-.724-1.837-.724a2.84 2.84 0 0 0-1.677.523c-.482.335-.865.804-1.148 1.408-.282.603-.423 1.3-.423 2.09 0 .832.218 1.49.653 1.972.436.482 1.048.724 1.836.724Zm2.313 2.01.424-2.453.6-2.855.3-2.876.442-2.554h2.207l-1.872 10.739h-2.1ZM.063 21.926 3.275 3.842h1.913l5.703 10.98-.733-.102L12.757-.074h2.306l-3.189 18.07H9.961L4.276 7.016l.733.102-2.64 14.808H.063Z"/></g><defs><clipPath id="a"><path fill="#fff" d="M0 0h162v28H0z"/></clipPath></defs></svg>