<svg xmlns="http://www.w3.org/2000/svg" width="288" height="76" fill="none"><path fill="currentColor" d="M112.14 26.77c.11 2.22-.17 4.33-.89 6.39-2.42 6.97-10.69 6.91-14.55 2.59-2.26-2.53-4-5.4-5.76-8.27-.97-1.58-1.91-3.19-2.88-4.77-.52-.84-.72-.83-1.23.04-2.05 3.48-3.85 7.11-6.25 10.37-1.31 1.78-2.68 3.52-4.69 4.61-3.61 1.97-9.92 1.26-12.12-4.32-1.22-3.09-1.27-6.24-.92-9.46.4-3.67 1.42-7.16 3.18-10.42 1.39-2.58 3.2-4.81 5.74-6.34 4.09-2.45 9.12-1.92 12.64 1.31 1.06.97 2.08 2 3.04 3.07.53.59.86.61 1.34-.02.97-1.28 2.06-2.45 3.3-3.48 3.92-3.25 8.86-3.2 12.7.19 4.15 3.66 6.08 8.46 6.98 13.78.27 1.58.46 3.17.35 4.73h.02Zm-4.97.18c-.08-2.31-.28-4.61-.88-6.85-.82-3.03-1.99-5.91-4.35-8.12-2.23-2.09-5.24-2.26-7.43-.46-1.33 1.09-2.35 2.44-3.31 3.85-.29.42-.29.8-.01 1.24 1.84 3.01 3.63 6.05 5.5 9.04 1.37 2.2 2.63 4.5 4.51 6.33 1.97 1.91 4.74 1.2 5.55-1.41.36-1.17.46-2.39.43-3.62h-.01ZM76.88 11.47c-.84-.11-1.66.19-2.44.7-1.13.73-1.99 1.71-2.71 2.83-2.42 3.8-3.29 8.03-3.39 12.45-.03 1.13.12 2.3.6 3.39 1.05 2.37 3.72 2.95 5.63 1.18.78-.72 1.49-1.5 2.12-2.36 2.71-3.71 5-7.69 7.53-11.51.33-.49.37-.91 0-1.4-.92-1.2-1.82-2.41-2.93-3.43-1.21-1.11-2.57-1.91-4.4-1.86l-.01.01Zm73.17 3.95c-.31.52-.58.97-.84 1.43-2.35 4.23-4.72 8.45-7.02 12.71-.54 1.01-1.2 1.52-2.35 1.35-.25-.04-.51 0-.77 0-3.2-.04-2.38.38-3.94-2.36-2.35-4.12-4.61-8.29-6.91-12.44-.12-.22-.27-.42-.42-.66-.32.31-.2.65-.2.94v20.49c0 1.25-.06 1.33-1.27 1.34-.9.01-1.8.01-2.69 0-1.28-.02-1.46-.19-1.47-1.44-.02-1.35 0-2.69 0-4.04V8.4c0-1.7.05-1.75 1.71-1.75 1.22 0 2.44.03 3.66-.01.8-.03 1.31.24 1.7.96 2.17 4 4.38 7.98 6.58 11.97.9 1.63 1.82 3.24 2.69 4.88.42.79.66.64 1.03-.04 2.33-4.28 4.68-8.54 7.03-12.81.73-1.32 1.5-2.62 2.19-3.96.39-.76.94-1.04 1.77-1.01 1.22.05 2.44 0 3.66.01 1.38 0 1.5.11 1.5 1.47v28.48c0 1.53-.09 1.62-1.64 1.63h-2.12c-1.66 0-1.69-.03-1.69-1.65V16.55c0-.34.09-.7-.18-1.15l-.01.02Zm70.03 20.31c-.29.16-.42.2-.5.29-4.58 4.71-13.81 3.59-16.63-4.15-1.74-4.79-1.51-9.51 1.61-13.81 3.3-4.54 10.48-5.39 14.73-1.74.19.16.33.4.62.41.23-.12.16-.34.17-.52.04-1.02.557-1.53 1.55-1.53h2.79c.6 0 .9.26.91.86 0 .22.01.45.01.67V36.6c0 1.55-.09 1.64-1.63 1.64-.8 0-1.6-.03-2.4 0-.92.04-1.3-.37-1.22-1.27.03-.34 0-.69 0-1.23l-.01-.01Zm-.01-9.52c-.1-.99.24-2.23-.18-3.41-.88-2.44-3.36-3.97-6.16-3.89-2.91.08-4.99 1.57-5.85 4.14-.55 1.64-.73 3.29-.44 5.01.46 2.71 1.86 5.15 5.16 5.81 3.06.61 8.05-1.86 7.48-5.91-.07-.5 0-1.02 0-1.75h-.01Zm-46.39 2.25h-7.31c-1.03 0-1.2.26-.87 1.23.87 2.6 3.02 4.18 5.76 4.33 2.54.14 4.85-.36 6.79-2.1.48-.43.88-.4 1.29.13.56.74 1.15 1.46 1.76 2.16.48.54.36.93-.14 1.37-1.8 1.54-3.87 2.51-6.19 2.9-3.09.53-6.14.44-8.99-1.08-3.32-1.77-5.21-4.63-5.83-8.27-.75-4.42-.03-8.54 3.26-11.85 3.17-3.19 7.08-3.92 11.29-2.77 4.14 1.13 6.25 4.22 7.2 8.25.34 1.45.46 2.91.49 4.38.03 1.1-.19 1.3-1.28 1.31-2.41.01-4.81 0-7.22 0l-.01.01Zm-2.81-4.05v-.02h4.9c.65 0 1.05-.18.96-.95-.25-2.01-1.83-3.89-3.77-4.44-3.42-.97-6.7.93-7.59 4.37-.18.71-.08 1.09.79 1.06 1.57-.05 3.14-.02 4.71-.02Zm16.87 1.39c0-1.99-.01-3.75 0-5.52 0-.77-.3-1.12-1.09-1.1-.8.02-1.6-.02-2.4 0-.71.01-1.08-.29-1.06-1.02.01-.9 0-1.79 0-2.69 0-.62.29-.85.89-.82.8.04 1.6.03 2.4.03 1.15 0 1.24-.1 1.25-1.28.01-1.47.03-2.95 0-4.42-.02-.87.35-1.22 1.2-1.19 1.02.04 2.05.03 3.08 0 .7-.01.99.31.98.99 0 1.6.04 3.21-.01 4.81-.03.86.31 1.12 1.13 1.1 1.63-.04 3.27.01 4.9-.01.78-.01 1.11.32 1.09 1.09-.02.7 0 1.41 0 2.12-.02 1.13-.16 1.29-1.27 1.3-1.54.02-3.08.04-4.62 0-.92-.03-1.25.33-1.23 1.24.04 2.98 0 5.96.03 8.94 0 .73.12 1.47.27 2.19.31 1.45 1.24 2.26 2.76 2.38.95.08 1.92.1 2.87-.14.93-.23 1.15-.05 1.19.92.02.64.01 1.28 0 1.92 0 1.48-.06 1.61-1.48 1.84-1.75.29-3.53.34-5.26 0-2.97-.58-4.91-2.83-5.41-5.9-.37-2.33-.12-4.67-.23-6.78h.02ZM62.7 62.55c0-1.95-.01-3.91 0-5.86 0-1.2.15-1.34 1.31-1.35 1.95-.01 3.91-.03 5.86 0 2.18.04 3.71 1.16 4.09 2.95.26 1.24.01 2.38-.99 3.22-.49.41-.39.56.08.88 1.58 1.08 2.1 2.57 1.63 4.53-.36 1.52-1.68 2.75-3.48 2.85-2.55.14-5.12.07-7.68.07-.77 0-.83-.57-.83-1.14v-6.15h.01Zm5.42 1.1c-3.31.06-2.84-.5-2.87 2.88 0 .13 0 .26.03.38.06.32.25.55.57.55 1.75 0 3.52.25 5.24-.2.79-.21 1.14-.79 1.13-1.58-.01-.81-.22-1.5-1.13-1.79-1.01-.32-2.03-.2-2.98-.24h.01Zm-.36-5.96h-1.63c-.52 0-.96.18-.86.76.16.94-.65 2.41.54 2.72 1.46.38 3.11.35 4.64-.15.72-.24 1.06-.81 1.06-1.55 0-.75-.37-1.26-1.09-1.52-.87-.31-1.76-.26-2.66-.25v-.01Zm86.15 4.9c0-2.02.02-4.04 0-6.06-.01-.85.33-1.22 1.2-1.2 1.99.03 3.97-.02 5.96.02 2.44.05 4.29 1.7 4.58 3.98.36 2.87-.84 4.84-3.38 5.58-1.45.42-2.93.21-4.4.26-1.33.04-1.4.09-1.41 1.43v2.02c-.02 1.14-.13 1.21-1.29 1.25-.91.04-1.33-.31-1.25-1.22V62.6l-.01-.01Zm4.97-4.9c-.48 0-.96.01-1.44 0-.68-.02-1.01.26-1 .96.02 1.09 0 2.18 0 3.27 0 .51.16.9.76.89 1.43-.04 2.88.2 4.29-.29 1.15-.4 1.63-1.02 1.61-2.3-.01-1.21-.57-1.98-1.65-2.31-.84-.25-1.71-.24-2.57-.22Zm17.38 8.5c0 .83.01 1.67 0 2.5 0 .43.11 1.03-.48 1.1-.63.08-1.44.38-1.86-.31-.31-.52-.47-.31-.78-.11-.85.57-1.79.83-2.82.8-2.14-.05-3.37-1.17-3.46-3.18-.08-1.93 1.25-3.42 3.26-3.58.83-.06 1.67-.02 2.5-.04.37 0 .83.09 1.01-.36.2-.49.02-.94-.32-1.33-.85-.96-2.53-1-3.74.04-.66.57-1.11.41-1.66-.04-.48-.38-.51-.78-.12-1.23.43-.49.96-.86 1.55-1.11 1.52-.63 3.07-.67 4.58-.05 1.8.74 2.25 2.33 2.33 4.08.04.93 0 1.86 0 2.79l.01.03Zm-5.38 1.97c1.07 0 2.39-.9 2.72-1.85.22-.64.1-1.1-.68-1.12-.83-.02-1.66-.09-2.49.11-.8.2-1.2.74-1.2 1.52 0 .69.87 1.35 1.64 1.34h.01Zm-48.49-2.75h-2.89c-.67 0-.83.33-.6.95.51 1.37 2.19 2.49 4.41 1.2.42-.24.79-.54 1.3-.12.93.76.95 1.3-.09 1.9-1.84 1.06-3.79 1.23-5.71.28-1.85-.92-2.56-2.61-2.65-4.59-.05-1.09 0-2.18.49-3.2 1.03-2.18 3.18-3.3 5.62-2.89 2.02.33 3.53 2.1 3.78 4.42.147 1.36-.463 2.04-1.83 2.04h-1.83v.01Zm-1.22-1.78v.01h1.63c.67 0 .82-.33.67-.93-.27-1.04-1.19-1.76-2.25-1.73-1.05.03-2.18.94-2.38 1.91-.11.53.16.72.61.73.57.02 1.15 0 1.73 0l-.01.01Zm92.06 1.78h-2.88c-.67 0-.83.32-.6.94.65 1.72 2.5 2.24 4.41 1.23.38-.2.72-.55 1.22-.21 1 .67 1.05 1.33.01 1.95-1.83 1.1-3.79 1.25-5.69.31-1.79-.88-2.55-2.54-2.68-4.48-.14-2.31.38-4.38 2.56-5.59 1.71-.95 3.53-1 5.2.08 1.79 1.16 2.25 3.02 2.24 5.03 0 .6-.41.73-.91.73h-2.88v.02-.01Zm-1.22-1.78c.57 0 1.15.01 1.72 0 .66-.02.81-.37.62-.96-.32-1.02-1.18-1.7-2.18-1.69-1.07 0-2.16.82-2.46 1.81-.16.54.06.81.58.83.57.03 1.15 0 1.72 0v.01Zm-125.65.94v4.23c0 .41.03.95-.52.98-.62.04-1.41.42-1.8-.37-.24-.47-.39-.39-.69-.15-.61.49-1.3.82-2.09.89-2.76.25-4.36-1.15-4.52-4.09-.11-1.95-.03-3.91-.05-5.86-.01-.93.58-1 1.28-1 .72 0 1.24.12 1.22 1.05-.03 1.76.02 3.52.04 5.29.02 1.59.5 2.35 1.62 2.58.99.21 2.41-.7 2.89-1.84.21-.51.27-1.05.26-1.6 0-1.51.02-3.01-.03-4.52-.02-.73.28-.99.96-.96.67.03 1.43-.11 1.42.94v4.42l.01.01Zm109.08-.17c0-1.35-.01-2.69 0-4.04 0-.42-.18-1.02.47-1.08.62-.06 1.41-.39 1.8.41.27.57.48.32.77.09.78-.62 1.65-.95 2.67-.89 2.06.11 3.22 1.12 3.66 3.15.51 2.32.24 4.66.26 7 0 1.09-.87.77-1.49.83-.69.07-1.01-.22-1-.93.02-1.73.01-3.46 0-5.2-.02-1.84-.74-2.77-2.1-2.75-1.47.02-2.75 1.48-2.73 3.04.02 1.6-.02 3.21.02 4.81.02.84-.37 1.03-1.12 1.03-.75 0-1.24-.14-1.22-1.04.04-1.47 0-2.95 0-4.43h.01Zm-102.5 5.77c-1.49.06-2.86-.28-4.01-1.3-.41-.36-.85-.72-.28-1.25.46-.43.85-1.32 1.7-.49.63.62 1.45.8 2.26.99.3.07.66.09.95 0 .59-.18 1.36-.27 1.4-1.09.04-.81-.65-1.04-1.27-1.22-.58-.17-1.19-.27-1.78-.4-.25-.06-.51-.09-.75-.17-1.63-.49-2.55-1.49-2.62-2.84-.07-1.35.79-2.67 2.34-3.17 1.91-.61 3.81-.51 5.48.77.43.33 1.02.7.46 1.41-.6.74-1.12.82-1.83.28-.93-.71-1.96-.91-3.08-.53-.45.15-.82.42-.84.94-.03.56.39.78.84.91.92.26 1.87.45 2.79.73 2.16.65 2.91 1.71 2.66 3.69-.2 1.57-1.52 2.63-3.45 2.75-.32.02-.64 0-.96 0l-.01-.01Zm49.58.01c-1.58.08-2.98-.34-4.15-1.43-.35-.33-.69-.68-.14-1.09.47-.35.76-1.33 1.61-.62.56.46 1.18.74 1.85.97.79.27 1.51.18 2.23-.15.38-.17.67-.39.67-.84 0-.43-.23-.73-.59-.92-.75-.41-1.59-.47-2.4-.67-.31-.08-.63-.13-.93-.23-1.73-.57-2.58-1.62-2.53-3.09.05-1.39 1.1-2.7 2.68-3.01 1.89-.38 3.78-.36 5.33 1.1.35.33.8.71.26 1.2-.46.42-.89 1.11-1.69.43-.97-.83-2.09-1.06-3.33-.65-.43.15-.72.41-.74.89-.02.5.29.77.73.89.92.26 1.86.48 2.78.75 2.2.65 3.03 1.75 2.78 3.62-.22 1.67-1.66 2.79-3.68 2.86h-.77l.03-.01Zm-10.16-.02c-1.69.12-3.01-.31-4.15-1.23-.44-.35-.88-.78-.29-1.35.47-.45.81-1.18 1.71-.42 1.13.95 2.45 1.38 3.92.66.37-.18.67-.4.66-.86 0-.43-.25-.72-.62-.9-.72-.37-1.54-.44-2.31-.64-.31-.08-.63-.12-.93-.22-1.75-.55-2.64-1.6-2.59-3.04.05-1.48 1.12-2.78 2.81-3.11 1.77-.35 3.53-.28 5.01.97.41.35 1.05.73.41 1.4-.5.53-.99.98-1.78.29-.91-.8-2.01-.93-3.16-.55-.47.15-.78.45-.77.98.01.5.36.74.79.85.99.27 2 .45 2.97.77 2.03.68 2.75 1.74 2.52 3.53-.22 1.65-1.43 2.69-3.36 2.86-.35.03-.7 0-.84 0v.01Zm-27.79-5.62v-4.43c0-.4 0-.86.52-.85.59 0 1.38-.41 1.69.4.21.57.33.45.7.19 2.94-2.1 5.96-.84 6.56 2.72.36 2.1.17 4.22.18 6.34 0 .93-.64.95-1.33.95-.7 0-1.2-.13-1.18-.99.02-1.54 0-3.08 0-4.62v-.48c-.04-1.83-.75-2.81-2.07-2.8-1.43 0-2.75 1.33-2.8 2.89-.05 1.6-.06 3.21 0 4.81.03.95-.38 1.2-1.26 1.2-.92 0-1.04-.45-1.02-1.2.04-1.38.01-2.76.01-4.14v.01Zm83.04-.05c0-.74-.01-1.47 0-2.21.02-.7-.25-1.12-1-1.08-.71.04-.95-.32-.96-.99-.01-.69.28-1.02.96-1 .75.02 1.04-.37 1-1.08v-.48c.01-1.32.7-1.78 1.96-1.34.46.16.42.52.41.86-.06 2.25-.03 2.02 2.13 2.04.66 0 1.42-.12 1.44.92.02.7-.22 1.12-.99 1.07h-.1c-1.66.06-2.487.94-2.48 2.64 0 .67 0 1.35.01 2.02.06 1.75.95 2.52 2.68 2.26.46-.07.87-.15.91.46.04.55.21 1.18-.54 1.47-2.65 1.01-5.32-.73-5.41-3.54-.02-.67 0-1.35 0-2.02h-.02Zm-8.85.02c0-1.38-.01-2.75 0-4.13 0-.43-.09-.98.51-1.1.58-.11 1.3-.32 1.7.23.34.47.49.3.8.07.55-.41 1.15-.68 1.86-.66 1.12.02 1.69.96 1.18 1.95-.18.36-.5.33-.82.35-1.91.11-2.88 1.14-2.9 3.08-.01 1.5-.03 3.01 0 4.51.02.81-.37 1.05-1.12 1.04-.74 0-1.25-.13-1.23-1.03.03-1.44 0-2.88 0-4.32l.02.01Zm42.86-4.37c.82-.88 1.67-1.27 2.75-1.2.8.05.95.49.95 1.15 0 .62-.04 1.11-.89 1.16-2.03.12-2.91 1.11-2.93 3.16-.01 1.47-.02 2.95 0 4.42.01.8-.36 1.06-1.12 1.05-.74-.01-1.24-.12-1.23-1.04.03-2.79 0-5.58.01-8.37 0-.49-.12-1.13.62-1.2.69-.06 1.53-.36 1.83.87h.01ZM99.46 64.5c0-1.41.02-2.82 0-4.23-.02-.88.46-1.07 1.22-1.07.73 0 1.14.22 1.13 1.05a488.5 488.5 0 0 0 0 8.56c0 .8-.34 1.06-1.11 1.05-.74 0-1.26-.13-1.24-1.03.03-1.44 0-2.89 0-4.33Zm2.65-8.33c.02.85-.56 1.48-1.39 1.5-.9.02-1.48-.5-1.52-1.35-.04-.95.49-1.53 1.42-1.54.87-.01 1.48.55 1.5 1.39h-.01Z"/></svg>