<svg xmlns="http://www.w3.org/2000/svg" width="467.571" height="175.789"><g data-name="Raggruppa 38" style="mix-blend-mode:multiply;isolation:isolate"><g data-name="Raggruppa 7"><g data-name="Raggruppa 6"><g fill="#161615" fill-rule="evenodd" data-name="Raggruppa 4"><g data-name="Raggruppa 1"><path d="M109.65 41.684a35.67 35.67 0 0 0-32.666 9.094C74.191 53.426 99.17 8.641 116.07 37.712c.371.642.713 1.232 1.021 1.777-2.953-1.274-6.054-3.992-11.83-5.24s-16.269 5.947-13.535 4.38c3.729-1.947 7.877-5.716 19.315 1.25 11.257 6.862 16.263 4.041 16.63 3.651.526.121-1.98 1.17-4.585 1.473-5.489.662-8.456-2.17-13.436-3.319Z" data-name="Tracciato 1"/><path d="M146.378 25.435a35.673 35.673 0 0 1 28.715-18.051c3.834-.269-46.086-11.937-35.972 20.127.228.711.441 1.368.625 1.963 1.052-3.041 1.127-7.176 4.1-12.3 2.948-5.105 15.346-8.027 12.338-7.047-3.949 1.442-9.531 1.979-12.08 15.131-2.494 12.952-7.949 14.739-8.49 14.772-.264.447 2.2-.7 4.185-2.418 4.18-3.623 4.073-7.715 6.578-12.176Z" data-name="Tracciato 2"/></g><g data-name="Raggruppa 2"><path d="M129.087 24.484C126.634 12.947 121.16 3.861 114.24.413c-2.168-1.072 27.181-2.349 18.81 27.639-.189.674-.353 1.276-.517 1.836-.348-3.277-.055-7.418-1.322-13.164-1.278-5.728-8.069-11.23-6.446-9.617 2.133 2.262 5.256 3.961 5.635 17.654.375 13.481 3.316 16.41 3.617 16.539.123.522-1.2-1.138-2.181-3.275-2.081-4.492-1.69-8.582-2.749-13.541Z" data-name="Tracciato 3"/><path d="M120.574 28.242c-6.873-9.565-9.908-19.739-7.8-27.182.67-2.322-20.027 18.539 7.791 32.531.607.307 1.17.584 1.684.846-2.174-2.469-5.442-5.031-8.825-9.828s-2.882-13.541-2.781-11.258c.238 3.1-.615 6.565 9.256 16.055 9.734 9.347 9.908 13.51 9.795 13.8.314.44-.033-1.644-.947-3.818-1.924-4.558-5.209-7.016-8.176-11.15Z" data-name="Tracciato 4"/><path d="M126.02 25.66c-3.867-10.52-8.357-19.7-12.023-24.393-1.135-1.463 10.427 4.775 14.515 28.453.09.533.174 1.012.248 1.446-.955-2.889-1.863-6.391-3.812-11.629a64.827 64.827 0 0 0-5.008-9.905c1.426 2.5 3.107 4.735 6.676 16.6 3.525 11.676 5.445 14.933 5.609 15.127a20.279 20.279 0 0 1-1.7-3.367c-1.967-4.375-2.832-7.789-4.5-12.334Z" data-name="Tracciato 5"/><path d="M123.511 26.771c-5.179-9.947-8.943-19.439-9.949-25.314-.31-1.831-3.484 10.925 11.285 29.9.311.414.617.8.893 1.146-1.51-2.664-3.469-5.668-6.035-10.654a59.719 59.719 0 0 1-3.936-10.361c.877 2.73 1.4 5.486 7.768 16.115 6.263 10.457 7.383 14.08 7.416 14.314a21.939 21.939 0 0 0-1.34-3.523c-1.918-4.408-3.858-7.332-6.1-11.625Z" data-name="Tracciato 6"/></g><g data-name="Raggruppa 3"><path d="M145.38 43.684a22.694 22.694 0 0 1 19.4 9.443c1.431 1.977-9.029-28.892-22.951-12.662-.321.358-.578.692-.856 1 2.012-.462 4.248-1.816 8.022-1.925 3.748-.112 9.488 5.6 7.957 4.295-2.117-1.643-4.278-4.483-12.237-1.438-7.828 2.994-10.638.652-10.822.377-.336.01 1.106.949 2.707 1.451 3.361 1.041 5.537-.4 8.779-.539Z" data-name="Tracciato 7"/><path d="M123.82 53.23a22.677 22.677 0 0 0-6.065 20.7c.493 2.4-15.31-26.133 6.067-25.5.473.012.91.03 1.312.045-1.685 1.176-4.193 1.928-6.816 4.635s-2.234 10.781-2.17 8.768c.2-2.668-.443-6.17 7.164-10.006 7.479-3.785 7.643-7.432 7.553-7.76.234-.236-.035 1.465-.746 2.979-1.492 3.193-4.008 3.828-6.3 6.146Z" data-name="Tracciato 8"/></g></g><path fill="#161615" fill-rule="evenodd" d="M167.513 149.784c-21.347 12.634-49.267 1.564-53.9-26.469a26.913 26.913 0 0 1 .187-9.678c4.9-28.256 28.26-28.183 43.762-25.891 14.375 2.133 25.57-18.052 11.295-30.238-11.477-9.791-16.807 6.737-24.461 1.967-7.883-4.924-2.379-7.463-2.379-7.463-5.158 5.762 5.82 6.817 11.215 4.42 27.211-12.084 31.1 31.361 6.951 32.5-2.844.119-4.537-.369-7.992-.724l-5.414-.354c-1.877.02-4.543.027-6.441.213-18.243 1.728-30.188 21.377-25.249 38.453 6.389 22.053 31.948 31.543 50.838 19.973Z" data-name="Tracciato 9"/><g data-name="Raggruppa 5"><path fill="#161615" d="m128.765 90.9-1.245-13.434h-.5l-41.889 88.9c-3.591 7.519-4.1 9.066-5.632 9.066-1.2 0-2.057-1.713-5.311-7.871-4.433-8.383-19.142-37.951-20-39.658-1.535-3.086-20.689-44.116-22.564-48.737h-.688l-6.832 79.338c-.17 2.739-.17 5.809-.17 8.713a5.469 5.469 0 0 0 4.45 5.3 30.852 30.852 0 0 0 6.492.861c.689 0 1.367.338 1.367.854 0 1.2-1.033 1.549-3.076 1.549-6.328 0-14.52-.53-15.9-.53-1.537 0-9.74.53-14.359.53-1.7 0-2.9-.352-2.9-1.549 0-.516.857-.854 1.712-.854a21.711 21.711 0 0 0 5.122-.517c5.638-1.03 6.16-7.688 6.841-14.19l12.3-111.472c.344-1.877.858-3.073 1.891-3.073 1.013 0 1.693.688 2.556 2.563l52.3 107.549 50.272-107.365c.681-1.543 1.361-2.739 2.562-2.739s1.713 1.364 2.047 4.614l4.2 38.453c-4.852.183-13.046 3.699-13.046 3.699Zm20.264 62.426.039.39c.68 6.168 1.883 15.733 9.232 18.123a36.882 36.882 0 0 0 11.108 1.547c.859 0 1.363.164 1.363.854 0 1.019-1.523 1.549-3.584 1.549-3.752 0-22.221-.53-28.549-1.039-3.935-.344-4.781-.86-4.781-1.709 0-.678.336-1.028 1.193-1.2s1.024-3.074.674-6.152l-1.494-16.16" data-name="Tracciato 10"/></g></g></g><g fill="#161615" data-name="Raggruppa 10"><g data-name="Raggruppa 8"><path d="M178.727 157.836c0-3.619 0-4.274-.067-5.016-.032-.8-.2-1.156-1-1.315a2.944 2.944 0 0 0-.767-.085c-.1 0-.2-.04-.2-.141 0-.141.126-.187.373-.187 1.041 0 2.435.074 2.635.074.5 0 1.861-.074 2.941-.074 2.884 0 3.936 1 4.316 1.329a4.081 4.081 0 0 1 1.151 2.77 5.38 5.38 0 0 1-5.7 5.534 3.478 3.478 0 0 1-.513-.025c-.106 0-.243-.034-.243-.155 0-.189.137-.225.62-.225a3.857 3.857 0 0 0 4.031-3.772 4.984 4.984 0 0 0-1.3-3.592 3.993 3.993 0 0 0-3.172-1.164 2.935 2.935 0 0 0-1.018.141c-.141.052-.186.2-.186.454v9.556c0 2.23 0 4.065.108 5.035.077.677.205 1.178.915 1.275.313.043.83.1 1.038.1.144 0 .207.081.207.133 0 .113-.126.191-.373.191-1.308 0-2.769-.078-2.877-.078-.056 0-1.542.078-2.228.078-.263 0-.362-.04-.362-.191 0-.052.014-.133.173-.133a3.84 3.84 0 0 0 .7-.1c.447-.1.566-.6.675-1.275.115-.969.115-2.8.115-5.035Z" data-name="Tracciato 11"/><path d="M203.984 157.836c0-3.619 0-4.274-.029-5.016-.052-.8-.225-1.156-1.007-1.315a2.993 2.993 0 0 0-.8-.085c-.081 0-.166-.04-.166-.141 0-.141.117-.187.376-.187 1.041 0 2.488.074 2.606.074.272 0 2.052-.074 2.76-.074a7.225 7.225 0 0 1 4.253 1.025 4.045 4.045 0 0 1 1.612 3.161c0 1.724-.733 3.458-2.823 5.388 1.908 2.415 3.494 4.5 4.827 5.941a4.943 4.943 0 0 0 2.85 1.682 5.916 5.916 0 0 0 .908.067c.112 0 .218.081.218.133 0 .151-.133.191-.564.191h-1.653a4.525 4.525 0 0 1-2.477-.443c-1.009-.531-1.839-1.675-3.145-3.421-.978-1.277-2.079-2.846-2.525-3.437a.393.393 0 0 0-.321-.137l-2.869-.049c-.121 0-.139.067-.139.185v.564c0 2.23 0 4.065.113 5.035.067.677.2 1.178.915 1.275.3.043.823.1 1.034.1.137 0 .177.081.177.133 0 .113-.11.191-.375.191-1.266 0-2.754-.078-2.869-.078-.022 0-1.468.078-2.167.078-.258 0-.373-.04-.373-.191 0-.052.052-.133.178-.133a3.957 3.957 0 0 0 .7-.1c.461-.1.573-.6.657-1.275.113-.969.113-2.8.113-5.035Zm1.891 2.03a.261.261 0 0 0 .139.276 6.51 6.51 0 0 0 2.459.362 3.034 3.034 0 0 0 1.731-.427 4.258 4.258 0 0 0 1.428-3.606c0-2.877-1.524-4.629-4.019-4.629a6.434 6.434 0 0 0-1.558.144.262.262 0 0 0-.18.265Z" data-name="Tracciato 12"/><path d="M238.741 150.775c5.249 0 9.154 3.307 9.154 8.711 0 5.207-3.693 9.514-9.287 9.514-6.389 0-9.028-4.941-9.028-9.134a9 9 0 0 1 9.161-9.091Zm.5 17.359c2.093 0 6.42-1.232 6.42-7.992 0-5.588-3.4-8.6-7.081-8.6-3.867 0-6.78 2.569-6.78 7.67-.003 5.411 3.259 8.922 7.438 8.922Z" data-name="Tracciato 13"/><path d="M263.168 157.832c0-3.619 0-4.274-.049-5.016-.029-.8-.247-1.156-.993-1.315a3.031 3.031 0 0 0-.8-.085.146.146 0 0 1-.164-.141c0-.141.1-.187.351-.187 1.041 0 2.511.074 2.61.074.483 0 5.2 0 5.732-.027a4.233 4.233 0 0 0 1.023-.081c.158-.054.247-.144.331-.144.1 0 .141.09.141.214 0 .151-.1.418-.184 1.09-.031.218-.07 1.246-.122 1.538-.007.108-.07.252-.166.252-.112 0-.173-.126-.173-.285a2.923 2.923 0 0 0-.2-.89 1.812 1.812 0 0 0-1.591-.735l-3.57-.078c-.151 0-.218.078-.218.252v6.418c0 .144.022.211.151.211l2.976-.011c.409 0 .749 0 1.059-.023.542-.061.852-.11 1.074-.42.077-.123.144-.236.243-.236.115 0 .137.074.137.187 0 .144-.137.521-.2 1.3-.045.463-.1 1.418-.1 1.565 0 .2 0 .443-.151.443s-.155-.081-.155-.207c-.047-.236-.074-.564-.151-.83a1.471 1.471 0 0 0-1.21-.859c-.573-.063-3.111-.063-3.518-.063-.1 0-.151.049-.151.211v1.989c0 2.23 0 4.065.126 5.035.056.677.2 1.178.874 1.275.344.043.847.1 1.064.1.135 0 .18.081.18.133 0 .113-.106.191-.369.191-1.277 0-2.749-.078-2.878-.078-.1 0-1.569.078-2.266.078-.252 0-.355-.04-.355-.191 0-.052.04-.133.184-.133a3.868 3.868 0 0 0 .692-.1c.479-.1.593-.6.675-1.275.11-.969.11-2.8.11-5.035Z" data-name="Tracciato 14"/><path d="M285.968 157.836c0-3.619 0-4.274-.077-5.016-.041-.8-.229-1.156-1.02-1.315a2.852 2.852 0 0 0-.767-.085c-.1 0-.184-.04-.184-.141 0-.141.121-.187.373-.187 1.029 0 2.468.074 2.668.074s1.609-.074 2.307-.074c.25 0 .369.047.369.187 0 .1-.09.141-.182.141a2.548 2.548 0 0 0-.587.085c-.62.078-.8.5-.848 1.315-.056.742-.056 1.4-.056 5.016v3.275c0 3.334.746 4.791 1.733 5.73a4.585 4.585 0 0 0 3.523 1.292 4.938 4.938 0 0 0 3.648-1.688c1.077-1.32 1.355-3.3 1.355-5.7v-2.907c0-3.619 0-4.274-.045-5.016-.058-.8-.232-1.156-1-1.315a3.075 3.075 0 0 0-.789-.085c-.094 0-.182-.04-.182-.141 0-.141.119-.187.362-.187 1.052 0 2.336.074 2.473.074s1.255-.074 1.949-.074c.254 0 .369.047.369.187 0 .1-.088.141-.186.141a1.753 1.753 0 0 0-.578.085c-.639.108-.816.5-.857 1.315-.04.742-.04 1.4-.04 5.016v2.484c0 2.516-.285 5.3-2.145 6.965a6.915 6.915 0 0 1-4.809 1.715 7.219 7.219 0 0 1-4.777-1.645c-1.126-1.086-2-2.732-2-6.113Z" data-name="Tracciato 15"/><path d="M333.875 165.682c.077.83.247 2.142 1.245 2.459a5.144 5.144 0 0 0 1.538.214c.088 0 .166.022.166.121 0 .126-.213.2-.472.2-.521 0-3.049-.077-3.876-.144-.549-.047-.683-.1-.683-.24 0-.081.045-.141.16-.155s.162-.418.1-.831l-1.122-12h-.052l-5.732 12.1c-.454 1.03-.535 1.234-.746 1.234-.162 0-.274-.248-.71-1.075-.609-1.14-2.608-5.162-2.727-5.393-.207-.43-2.828-6-3.075-6.643h-.1l-.929 10.779c-.016.387-.016.818-.016 1.218a.761.761 0 0 0 .587.711 5.824 5.824 0 0 0 .9.119c.081 0 .178.036.178.121 0 .164-.122.2-.411.2-.866 0-1.981-.077-2.171-.077-.207 0-1.324.077-1.949.077-.243 0-.42-.04-.42-.2 0-.085.117-.121.236-.121a3.255 3.255 0 0 0 .715-.067c.76-.148.827-1.055.924-1.924l1.682-15.188c.041-.25.115-.4.247-.4.151 0 .24.088.351.353l7.138 14.635 6.818-14.624c.106-.213.176-.364.362-.364.162 0 .232.18.268.634Z" data-name="Tracciato 16"/><path d="M351.341 157.832c0-3.619 0-4.274-.041-5.016-.059-.8-.25-1.156-1-1.315a3.169 3.169 0 0 0-.805-.085c-.1 0-.187-.04-.187-.141 0-.141.117-.187.369-.187 1.052 0 2.524.074 2.632.074.169 0 4.782 0 5.323-.027a5.775 5.775 0 0 0 1.014-.11c.108-.025.207-.115.337-.115.043 0 .1.09.1.214 0 .151-.13.418-.2 1.09-.022.218-.052 1.246-.121 1.538-.009.108-.067.252-.155.252-.141 0-.2-.126-.2-.3a2.766 2.766 0 0 0-.122-.847c-.176-.364-.4-.645-1.657-.775-.387-.067-2.909-.081-3.192-.081-.1 0-.14.081-.14.225v6.431c0 .144.007.229.14.229.31 0 3.188 0 3.7-.056.576-.049.879-.078 1.119-.321.133-.189.232-.3.335-.3.063 0 .1.058.1.187s-.1.521-.175 1.3a23.335 23.335 0 0 0-.113 1.5c0 .185 0 .436-.151.436-.123 0-.173-.092-.173-.2a3.019 3.019 0 0 0-.07-.762c-.112-.346-.3-.737-1.209-.823-.638-.074-2.938-.121-3.354-.121-.112 0-.155.07-.155.166v2.055c0 .783-.02 3.471 0 3.972.074 1.61.434 1.909 2.7 1.909a6.713 6.713 0 0 0 2.259-.259c.587-.254.856-.722 1.014-1.661.07-.285.09-.369.225-.369s.137.193.137.369c0 .159-.176 1.751-.292 2.237-.191.62-.349.62-1.259.62-3.527 0-5.081-.159-5.764-.159-.049 0-.436.038-.928.038-.461.007-.989.04-1.351.04-.243 0-.366-.04-.366-.191 0-.052.049-.133.185-.133a3.7 3.7 0 0 0 .7-.1c.468-.1.587-.6.683-1.275.115-.969.115-2.8.115-5.035Z" data-name="Tracciato 17"/><path d="M375.853 157.836c0-3.619 0-4.274-.043-5.016-.025-.8-.207-1.156-.982-1.315a3.15 3.15 0 0 0-.805-.085c-.088 0-.193-.04-.193-.141 0-.141.144-.187.389-.187 1.052 0 2.513.074 2.624.074.265 0 2.041-.074 2.76-.074a7.255 7.255 0 0 1 4.238 1.025 4.08 4.08 0 0 1 1.619 3.161c0 1.724-.737 3.458-2.83 5.388 1.9 2.415 3.491 4.5 4.853 5.941a4.831 4.831 0 0 0 2.853 1.682 5.579 5.579 0 0 0 .886.067c.115 0 .211.081.211.133 0 .151-.13.191-.557.191h-1.652a4.481 4.481 0 0 1-2.48-.443c-1.016-.531-1.828-1.675-3.149-3.421-.983-1.277-2.071-2.846-2.554-3.437a.291.291 0 0 0-.288-.137l-2.842-.049c-.108 0-.166.067-.166.185v.564c0 2.23 0 4.065.106 5.035.074.677.2 1.178.922 1.275.306.043.83.1 1.016.1.155 0 .207.081.207.133 0 .113-.122.191-.385.191-1.277 0-2.713-.078-2.837-.078-.041 0-1.5.078-2.2.078-.247 0-.357-.04-.357-.191 0-.052.032-.133.173-.133a3.945 3.945 0 0 0 .69-.1c.458-.1.6-.6.668-1.275.106-.969.106-2.8.106-5.035Zm1.891 2.03a.3.3 0 0 0 .166.276 6.236 6.236 0 0 0 2.432.362 2.99 2.99 0 0 0 1.738-.427 4.248 4.248 0 0 0 1.425-3.606c0-2.877-1.531-4.629-4.026-4.629a6.454 6.454 0 0 0-1.555.144.248.248 0 0 0-.18.265Z" data-name="Tracciato 18"/><path d="M405.714 161.943c0 2.23 0 4.065.112 5.035.074.677.207 1.178.908 1.275.331.043.834.1 1.048.1.137 0 .173.081.173.133 0 .113-.121.191-.369.191-1.277 0-2.738-.078-2.853-.078s-1.576.078-2.28.078c-.247 0-.355-.04-.355-.191a.151.151 0 0 1 .169-.133 4.056 4.056 0 0 0 .713-.1c.454-.1.564-.6.665-1.275.113-.969.113-2.8.113-5.035v-4.107c0-3.619 0-4.274-.063-5.016-.029-.8-.261-1.182-.775-1.3a2.4 2.4 0 0 0-.715-.1c-.1 0-.186-.04-.186-.141 0-.141.126-.187.355-.187.782 0 2.244.074 2.358.074s1.576-.074 2.3-.074c.243 0 .355.047.355.187 0 .1-.09.141-.189.141a2.455 2.455 0 0 0-.591.085c-.605.108-.8.5-.852 1.315-.045.742-.045 1.4-.045 5.016Z" data-name="Tracciato 19"/><path d="M427.699 151.67c.259-.755.348-.893.492-.893s.25.11.531.838c.351.886 3.986 10.481 5.415 14.006.834 2.086 1.513 2.448 2 2.6a3.457 3.457 0 0 0 .922.141c.141 0 .24.022.24.133 0 .151-.229.191-.468.191-.344 0-2.037 0-3.662-.04-.421-.038-.679-.038-.679-.164a.187.187 0 0 1 .144-.18c.141-.043.292-.25.141-.609l-2.167-5.728a.191.191 0 0 0-.2-.144h-5.011c-.1 0-.167.067-.214.191l-1.407 4.116a4.907 4.907 0 0 0-.321 1.565c0 .454.479.668.886.668h.229c.173 0 .247.036.247.133 0 .151-.151.191-.355.191-.564 0-1.573-.077-1.816-.077-.27 0-1.544.077-2.625.077-.31 0-.457-.04-.457-.191 0-.1.11-.133.218-.133a6.27 6.27 0 0 0 .654-.059c1.1-.141 1.563-1.011 1.956-2.174Zm2.414 9.309c.119 0 .119-.063.1-.164l-2.23-6.277q-.17-.505-.335 0l-2.061 6.277c-.04.119 0 .164.07.164Z" data-name="Tracciato 20"/></g><g data-name="Raggruppa 9"><path d="M150.82 97.84c.159-.926.483-1.436.937-1.436s.8.277 1.508 1.717l15.24 31.477 15.156-31.857c.413-.883.73-1.336 1.239-1.336s.834.562 1 1.717l5.09 34.5c.5 3.522 1.066 5.137 2.729 5.636a11.5 11.5 0 0 0 3.466.571c.508 0 .884.052.884.377 0 .454-.67.6-1.428.6-1.387 0-9.1-.144-11.343-.321-1.3-.1-1.634-.277-1.634-.6 0-.281.229-.461.616-.623.335-.112.521-.83.292-2.4l-3.352-24.571h-.214l-12.162 25.349c-1.281 2.625-1.576 3.123-2.075 3.123-.519 0-1.066-1.119-1.944-2.787-1.344-2.574-5.766-11.1-6.405-12.668-.524-1.178-3.878-8.216-5.834-12.387h-.2l-2.9 22.21a19.8 19.8 0 0 0-.187 2.617c0 1.066.733 1.569 1.682 1.787a11.428 11.428 0 0 0 2.351.29c.439 0 .83.094.83.377 0 .5-.5.6-1.342.6-2.336 0-4.851-.144-5.861-.144-1.052 0-3.732.144-5.512.144-.56 0-1.02-.1-1.02-.6 0-.283.351-.377.9-.377a6.506 6.506 0 0 0 1.659-.18c1.587-.328 2.037-2.505 2.28-4.4Z" data-name="Tracciato 21"/><path d="M209.73 125.239c-.281 0-.4.119-.5.466l-3.019 7.983a10.644 10.644 0 0 0-.852 3.406c0 .987.51 1.731 2.237 1.731h.838c.683 0 .866.094.866.44 0 .44-.357.535-.974.535-1.794 0-4.166-.144-5.921-.144-.605 0-3.673.144-6.584.144-.721 0-1.052-.1-1.052-.535 0-.346.225-.44.652-.44a16.019 16.019 0 0 0 1.735-.132c2.57-.322 3.63-2.223 4.755-5.006l13.992-35.058c.679-1.625 1.023-2.226 1.565-2.226.513 0 .838.51 1.407 1.783 1.355 3.053 10.258 25.841 13.848 34.33 2.12 5.009 3.736 5.8 4.9 6.079a13.441 13.441 0 0 0 2.336.229c.45 0 .738.052.738.44 0 .44-.506.535-2.567.535-2.01 0-6.076 0-10.559-.1-1-.049-1.654-.049-1.654-.44 0-.346.211-.44.767-.513a.907.907 0 0 0 .486-1.284l-4.437-11.829a.567.567 0 0 0-.571-.4Zm11.388-2.776c.261 0 .321-.184.261-.335l-5.024-13.8c-.043-.221-.117-.494-.272-.494-.178 0-.274.272-.351.494l-5.119 13.742c-.056.207 0 .391.24.391Z" data-name="Tracciato 22"/><path d="M246.552 113.812c0-8.479 0-10.047-.122-11.834-.1-1.886-.542-2.783-2.4-3.185a11.431 11.431 0 0 0-2.149-.162c-.638 0-.958-.122-.958-.51s.384-.483 1.221-.483c2.952 0 6.477.162 8.035.162 1.735 0 5.249-.162 8.6-.162 6.98 0 16.276 0 22.4 6.362a19.96 19.96 0 0 1 5.4 14.149 22.058 22.058 0 0 1-6.094 15.572c-2.561 2.644-8.358 6.585-18.7 6.585-4.076 0-9.084-.65-11.865-.65-1.3 0-4.82.144-7.045.144-.728 0-1.119-.144-1.119-.535 0-.288.24-.44.9-.44a10.456 10.456 0 0 0 2.012-.229c1.11-.225 1.391-1.468 1.612-3.078.27-2.343.27-6.747.27-11.892Zm6.967 6.142c0 5.921.07 10.206.137 11.28.056 1.385.166 3.622.618 4.246.708 1.056 2.886 2.237 7.3 2.237 5.7 0 9.478-1.129 12.841-4.028 3.565-3.068 4.69-8.154 4.69-13.911 0-7.092-2.959-11.669-5.352-13.945-5.15-4.917-11.519-5.6-15.857-5.6a14.621 14.621 0 0 0-3.621.407 1 1 0 0 0-.684 1.1c-.07 1.9-.07 6.769-.07 11.184Z" data-name="Tracciato 23"/><path d="M292.71 118.733c0-9.547 6.315-21.875 23.044-21.875 13.9 0 22.552 8.059 22.552 20.851s-8.929 22.9-23.1 22.9c-16.029 0-22.496-12.007-22.496-21.876Zm37.782 1.045c0-12.506-7.209-20.261-16.352-20.261-6.4 0-13.713 3.576-13.713 17.472 0 11.613 6.409 20.826 17.116 20.826 3.921 0 12.949-1.897 12.949-18.038Z" data-name="Tracciato 24"/><path d="m356.953 100.756-8.3.218c-3.255.115-4.6.384-5.418 1.617a6.212 6.212 0 0 0-.953 1.949c-.117.45-.288.675-.605.675-.418 0-.524-.3-.524-.893 0-.879 1.07-5.969 1.178-6.427.166-.721.324-1.038.679-1.038a14.278 14.278 0 0 0 2.388.657c1.626.159 3.761.285 5.57.285h22.1a24.071 24.071 0 0 0 5.368-.566c.423 0 .45.322.45 1.16 0 1.185-.159 5.049-.159 6.5-.059.544-.166.883-.5.883-.439 0-.557-.292-.616-1.115l-.052-.612c-.121-1.454-1.628-3.022-6.585-3.131l-7.045-.158v22.871c0 5.144 0 9.549.283 11.948.168 1.555.506 2.8 2.19 3.022a26.242 26.242 0 0 0 2.833.229c.625 0 .9.151.9.44 0 .391-.465.535-1.088.535-3.687 0-7.18-.144-8.745-.144-1.284 0-4.8.144-7.039.144-.733 0-1.117-.144-1.117-.535 0-.288.225-.44.9-.44a10.3 10.3 0 0 0 2.017-.229c1.128-.225 1.427-1.468 1.614-3.078.27-2.343.27-6.747.27-11.892Z" data-name="Tracciato 25"/><path d="m396.585 100.756-8.327.218c-3.222.115-4.57.384-5.393 1.617a6.161 6.161 0 0 0-.957 1.949c-.144.45-.27.675-.616.675-.387 0-.492-.3-.492-.893 0-.879 1.038-5.969 1.164-6.427.144-.721.324-1.038.668-1.038a13.583 13.583 0 0 0 2.4.657c1.6.159 3.743.285 5.562.285h22.115a24.112 24.112 0 0 0 5.368-.566c.38 0 .436.322.436 1.16 0 1.185-.166 5.049-.166 6.5-.041.544-.155.883-.492.883-.436 0-.573-.292-.63-1.115l-.052-.612c-.11-1.454-1.625-3.022-6.564-3.131l-7.056-.158v22.871c0 5.144 0 9.549.286 11.948.162 1.555.492 2.8 2.174 3.022a27.369 27.369 0 0 0 2.846.229c.6 0 .9.151.9.44 0 .391-.447.535-1.059.535-3.684 0-7.219-.144-8.781-.144-1.273 0-4.795.144-7.02.144-.728 0-1.129-.144-1.129-.535 0-.288.223-.44.908-.44a10 10 0 0 0 2.01-.229c1.1-.225 1.441-1.468 1.621-3.078.274-2.343.274-6.747.274-11.892Z" data-name="Tracciato 26"/><path d="M421.993 118.733c0-9.547 6.3-21.875 23.022-21.875 13.918 0 22.555 8.059 22.555 20.851s-8.923 22.9-23.108 22.9c-16.006 0-22.469-12.007-22.469-21.876Zm37.767 1.045c0-12.506-7.2-20.261-16.339-20.261-6.43 0-13.724 3.576-13.724 17.472 0 11.613 6.378 20.826 17.119 20.826 3.913 0 12.944-1.897 12.944-18.038Z" data-name="Tracciato 27"/></g></g></g></svg>