<svg xmlns="http://www.w3.org/2000/svg" width="152" height="197" fill="none"><path fill="#1D1D1B" d="M135.029 33.602c-1.219 3.637-4.2 5.749-5.76 9.386 8.177 6.359 13.022 13.664 17.868 22.4 2.417 4.845-1.818 7.872-5.15 10.29 3.637 5.749 10.595 10 9.691 18.162 0 5.455-4.2 10-8.787 12.413-4.835 1.818-9.386 1.514-14.525 2.417a51.63 51.63 0 0 1 6.306 46.908c-8.787 25.131-32.393 39.656-58.428 40.56-24.174.914-43.576-13.317-56.9-30.564-2.1-4.845 3.637-6.968 4.541-10.9-8.167-6.968-14.83-14.83-19.066-24.51-.3-4.2 3.332-6.306 6.054-8.471-6-4.845-12.36-12.413-9.638-21.462 1.219-4.541 5.15-7.872 9.092-9.691 3.942-1.819 9.68-.6 13.916-.9-8.172-13.965-12.712-34.849-5.754-50.594C27.265 15.135 52.119 1.209 76.906 0c24.174 0 46.015 13.317 58.123 33.634v-.032Z"/><path fill="#fff" d="M134.114 32.961c-.3 4.845-10.595 9.691-2.417 13.327 6.958 6.306 12.707 13.664 15.44 22.7-.61 3.626-4.541 3.931-6.306 6.958 5.14 6.054 12.707 12.718 9.386 22.072-3.941 7.872-13.926 9.081-22.072 9.386-.9 3.941 3.332 6.054 4.2 9.691 8.787 17.542 4.2 40.549-7.862 55.38-15.766 18.467-41.779 27.243-65.68 20.884-15.762-4.843-29.668-16.037-39.054-29.659.3-3.637 5.15-6.054 4.845-10-8.167-5.749-13.317-13.916-18.467-22.387-3.027-5.749 5.75-6.958 5.455-10.9-4.845-3.626-8.776-7.557-10-14.221-.6-3.931.914-7.568 3.332-10.9 4.845-5.444 13.317-4.845 19.97-5.444-.956-5.1-4.583-9.6-6.086-14.778-6.664-17.258-1.209-36.934 9.081-50.86C42.972 7.257 65.706-2.424 88.703 1.81c18.467 3.332 34.506 14.83 45.405 31.174l.006-.023Z"/><path fill="#1D1D1B" d="M123.214 31.48c-5.444 7.262-13.664 11.2-22.072 14.84 5.15-5.455 11.5-9.386 16.039-15.766-12.707-16.04-37.533-23.008-55.39-20.286a1.65 1.65 0 0 1 1.8-1.482c-1.514-.61-3.931 0-5.14-.3.6 0 .9 1.21.6.9l-.9-.9a4.288 4.288 0 0 1 1.818-.61c2.1.61 3.332-1.818 5.749-1.818 22.38-4.208 45.696 7.868 57.496 25.421Z"/><path fill="#1D1D1B" d="M61.477 9.386c-.61.3-.61.9-.914.9l-.295-1.205 1.21.305Zm49.934 17.554c.61 2.427 3.931 4.54 1.209 6.663a129.844 129.844 0 0 0-15.429 13.664l2.722 1.21v.61c-10.9-2.46-24.826-9.124-35.116-.957-2.1 2.733-1.5 6.306-.294 9.386 2.722 5.455 7.568 10 13.012 14.231 11.8-9.354 25.425-18.814 39.95-23.617 3.941-1.209 6.968 1.818 9.386 3.941a211.069 211.069 0 0 1 13.664 17.866 5.957 5.957 0 0 1-4.2 6.306c-11.2 1.21-21.8-3.027-32.088-4.845v-.6c9.691 2.428 21.189 4.845 30.88 5.15 1.5-.9 4.541-1.514 4.835-4.2l-.294-1.818c-4.541 7.872-17.868 2.1-25.73 1.514l-10.379-2.752.914-.61c9.386 2.722 19.371 5.15 29.051 5.455 2.428-.61 4.845-2.1 5.749-4.2l-.631-1.23c-8.167.914-19.066 3.637-26.938-1.514-2.1-1.818-5.749-4.54-5.749-8.47 1.209 4.844 5.749 8.166 10.29 9.984 6.958 1.514 15.135 1.514 21.494-1.209-5.455-7.263-9.386-13.664-17.258-18.162-15.766 3.028-29.66 13.928-42.683 23.314 21.494 21.483 58.428 43.587 48.737 80.5-6.054 17.258-24.521 29.366-42.977 30.575-15.44 1.514-28.757-4.2-40.56-11.8-2.417-1.219-2.417-3.941-3.332-6.054l16.648-15.139-3.332-1.219.3-.6c11.2 1.514 28.757 10.595 36.02-2.428.6-7.557-4.846-13-10-17.542-1.515 2.417-5.14.3-7.863-.3-10.29 8.471-22.4 15.429-34.81 21.179-7.264 1.209-10.9-4.541-15.44-9.375-3.627-5.444-10.596-9.985-8.472-16.943 3.637-3.332 8.471-2.428 13.664-2.1 6.958 1.209 15.135 2.1 21.8 4.541-11.2-1.209-21.494-6.054-33-3.332-1.808 1.219-4.2 3.941-2.1 6.054l.6.61c.3-2.1 1.818-4.845 4.541-5.444 10.3-.914 20.884 1.5 30.88 4.2l-.61.6c-10.29-2.722-19.066-5.444-30.27-3.931a5.853 5.853 0 0 0-3.93 5.14l.9.914c8.481-2.428 19.97-4.2 27.242 1.514 1.818 1.514 2.733 3.931 3.637 6.306-.9 0-1.209-2.1-1.818-3.332-6.958-9.071-19.066-5.739-28.452-3.931v1.514c6.958 5.749 12.108 21.788 24.174 14.83a196.757 196.757 0 0 0 34.506-22.072C55.706 107.428 32.085 89.57 24.826 62.968c-3.31-16.344 5.171-32.11 18.152-40.865 19.066-14.84 50.85-10.3 68.4 4.835l.033.001Z"/><path fill="#fff" d="m111.412 28.158 1.209 4.2-17.248 14.267c-9.081-2.1-22.072-6.664-30.575-.3-2.417 2.722-3.027 7.862-1.5 11.194 10.581 15.76 25.716 23.906 38.434 37.528 12.718 14.231 30.586 31.174 24.815 53.866-3.931 16.354-19.066 27.548-34.2 31.794-18.467 4.53-36.324-.914-50.251-11.814l-1.5-3.321 17.248-15.146c9.386 1.514 22.4 6.968 30.564-.6 2.428-3.332 2.428-6.664.914-10.9l-5.455-7.557c-20.916-18.456-43.272-35.41-55.99-60.572-4.543-14.219-3.334-30.268 7.565-40.858 12.718-12.68 32.382-19.05 50.85-14.5a73.049 73.049 0 0 1 25.12 12.72Z"/><path fill="#1D1D1B" d="M110.508 28.157c.9 1.515 2.722 4.542 0 5.445L95.972 45.71c-10.595-2.1-21.483-6.968-31.468 0-2.428 2.721-3.941 6.306-2.733 9.69 2.428 8.776 10.3 13.916 16.649 19.97 20.275 21.19 59.027 44.501 44.8 80.816-9.375 17.868-29.051 26.276-49.031 25.425a67.06 67.06 0 0 1-31.79-13.066c-2.721-2.722.3-4.541 1.819-6.054l12.108-10.552c11.5.3 23.91 7.568 33.3-2.417a11.292 11.292 0 0 0 .9-10.29c-9.985-15.766-28.147-26.276-40.255-40.246-13.925-15.134-29.964-32.991-21.787-55.401 6.348-17.248 23.3-26.024 40.56-28.494 15.429-1.21 29.356 4.844 41.464 13.021v.044Z"/><path fill="#fff" d="M108.08 27.548c1.219 1.21 3.637 3.027 2.428 5.15L95.667 44.806c-9.375-2.386-21.483-6.359-30.554-.914a14.557 14.557 0 0 0-4.551 9.038c.61 6.968 5.455 12.718 10.595 17.258 17.552 15.135 38.437 32.688 50.545 53.877 4.541 9.68 5.455 23 0 32.677-8.471 16.049-26.634 23.617-45.1 23.922-12.4-.3-23.9-6.306-33.634-12.718l-.61-1.816 14.536-13.664c10.889 1.514 26.024 7.872 33.9-3.332 6.054-15.125-12.413-23.6-20.275-32.067C51.786 98.378 20.906 77.493 28.778 45.1c5.149-17.87 23.008-26.634 40.266-29.05 14.82-1.22 27.842 3.625 39.036 11.498Z"/><path fill="gray" stroke="#1D1D1B" stroke-miterlimit="3.86" stroke-width=".72" d="m83.57 19.077-2.754 20.58c-3.931 0-9.68-.3-13.916 1.209l-5.728-21.79c7.263-1.513 15.125-2.427 22.4 0h-.002Z"/><path fill="#1D1D1B" d="M109.299 30.271 95.373 42.687l-12.455-2.726 3.027-20.884c8.776 2.1 15.766 6.306 23.312 11.194h.042Z"/><path fill="gray" stroke="#1D1D1B" stroke-miterlimit="3.86" stroke-width=".72" d="M65.113 41.779a15.967 15.967 0 0 0-6.306 9.985L47.6 49.347c.9-7.273.9-15.766-2.1-22.072 3.027-4.2 8.787-6.054 13.664-7.568l6.065 22.072h-.116Z"/><path fill="#fff" d="M107.785 30.27c-3.637 3.027-8.177 7.872-13.022 10.9l-10.595-2.425 2.1-18.456c7.872 1.818 15.44 6.054 21.494 9.985l.023-.004Z"/><path fill="#1D1D1B" d="M43.619 27.852C48.454 40.864 46.341 56 37.313 65.996l-4.845 4.54c-5.749-9.08-3.931-23.007 1.209-32.087 2.722-3.637 5.749-9.081 10-10.595l-.058-.002ZM96.886 51.46c-9.691-4.2-23.007-7.568-31.773-.3 4.53-6.958 14.515-5.14 21.778-3.93 3.384 1.497 7.872 1.497 9.995 4.23Z"/><path fill="#1D1D1B" d="M95.67 54.792c-5.392 6.36-10.89-3.332-16.953-4.54-2.722-1.515-7.872-.61-10.29 1.512-.3 0-.3.9-.9.61.9-2.428 3.626-3.027 6.044-3.637 9.08-.9 13.664 10.29 22.072 6.054l.027.001Z"/><path fill="gray" stroke="#1D1D1B" stroke-miterlimit="3.86" stroke-width=".72" d="M58.744 53.887c.9 4.2 2.722 8.776 5.749 11.5L41.8 84.459l-1.818-.914-6.664-10.592c6.054-6.054 11.814-13.012 13.664-21.494l11.76 2.428Z"/><path fill="#1D1D1B" d="M89.624 60.846c-5.76-3.027-13.022-9.69-20.285-5.15l-1.514 1.514c-.294-2.1 2.733-3.32 4.845-3.626 6.307-.916 12.707 3.625 16.954 7.262Zm41.463.609c.61 3.027-2.722 3.027-4.2 3.626-7.568 1.209-14.83-3.332-20.285-7.872 7.273-3.931 20.59-4.2 24.521 4.2l-.036.046Z"/><path fill="#1D1D1B" d="M87.199 62.663c-2.417-.913-4.845-3.026-7.263-4.2-4.2-.913-8.776-.913-11.8 2.1.914-1.818 3.332-2.721 5.444-3.332a17.87 17.87 0 0 1 13.664 5.456l-.045-.023Z"/><path fill="#fff" d="M129.879 62.663c-4.2 3.626-11.8 1.209-16.344-1.209l-5.15-3.941a45.976 45.976 0 0 1 21.494 5.15Z"/><path fill="#1D1D1B" d="M105.967 80.521c13.317 1.514 32.383-4.54 40.56 9.081 1.513 1.818.9 4.845.61 7.263-2.428 3.332-5.455 6.054-9.691 6.664a8.028 8.028 0 0 1-8.177-5.15 6.247 6.247 0 0 1 3.637-7.568c1.209 0 1.818-.3 2.417.61v.6c-1.513-1.514-3.321 0-4.2 1.22-1.818 1.513-1.209 3.93-.9 5.748 1.818 3.332 5.444 4.541 9.071 3.626a16.36 16.36 0 0 0 7.273-6.306c1.209-3.637-.61-7.273-2.722-9.386-10.3-8.776-23.911-4.845-36.934-5.15-4.541-6.054-4.845-14.525-6.958-22.072l6.054 20.884-.04-.064ZM84.778 65.08c-3.637-2.416-10-5.14-14.525-1.817.3-2.1 2.722-1.514 4.2-2.417 3.93.3 7.862 1.513 10.29 4.2l.035.035Z"/><path fill="#1D1D1B" d="M101.732 83.547c3.626 3.93 10.595 1.514 14.83 2.1 8.167.294 21.494-3.027 26.634 5.749a7.612 7.612 0 0 1-2.417 8.47c-2.722.915-5.15.915-7.568-1.208a3.712 3.712 0 0 1-.61-3.931c.61-.61 1.818-1.514 2.428-.3.294.9.9 3.626 2.722 2.1 1.5-1.21 1.5-3.626.9-5.444-5.444-7.568-18.467-4.541-25.73-4.845 1.818 2.722 8.776-1.21 10 2.428-2.428 4.2 2.722 8.776-.3 11.8a40.9 40.9 0 0 1-11.814-12.108v-1.8c-4.2 0-9.375 0-10.889-4.845a154.643 154.643 0 0 1-4.545-20.574c2.417 6.958 2.722 15.766 6.359 22.4v.008ZM82.35 66.594a18.782 18.782 0 0 0-10.89-1.212c3.322-2.414 8.472-.3 10.89 1.212Zm-2.115 1.516c-1.514.61-4.845-1.209-7.263-.6 2.105-1.221 5.143-.306 7.263.6Z"/><path fill="gray" stroke="#1D1D1B" stroke-miterlimit="3.86" stroke-width=".72" d="M75.393 76.285c0 8.177-5.14 15.135-11.8 19.066-4.2 1.21-11.194 6.054-13.926-.3l-6.962-8.78c6.958-6.959 15.135-12.708 22.7-19.067a95.65 95.65 0 0 1 9.985 9.081h.003Z"/><path fill="#1D1D1B" d="M96.886 82.644a1.776 1.776 0 0 1-2.407 1.818 17.29 17.29 0 0 0-8.471-6.968 57.071 57.071 0 0 1 6.054-10.29c3.332 3.931 3.332 9.985 4.845 15.44h-.021Z"/><path fill="#fff" d="M95.667 83.548c-2.417-1.818-4.835-5.749-9.07-6.664 2.1-2.722 4.2-5.444 5.14-8.47 3.026 4.203 3.635 9.69 3.93 15.134Z"/><path fill="gray" stroke="#1D1D1B" stroke-miterlimit="3.86" stroke-width=".72" d="M97.19 96.868a26.28 26.28 0 0 0-20.58 15.135l-1.207 6.665c-6.958-4.845-14.83-12.718-20.58-18.772 9.386-1.514 18.467-8.167 21.483-16.344l1.219-5.15c6.958 6.065 14.22 11.562 19.676 18.467h-.01Z"/><path fill="#1D1D1B" d="M22.724 98.683c1.209 3.332-.6 6.958-3.626 7.568-.61 0-1.514.61-1.818-.3 1.818.3 4.541-1.818 5.15-3.931.9-3.332-2.1-5.749-4.541-6.968-4.541-1.209-8.177 1.22-10.9 4.2-2.733 2.417-2.1 6.306-.61 9.081 8.219 11.866 25.425 7 38.752 7l2.1.9c2.1 6.664 4.541 13.317 5.749 20.275-2.1-5.14-3.626-12.707-5.749-18.761l-1.808-1.755c-13.664-.61-32.688 6.044-40.56-8.787a9.783 9.783 0 0 1 1.209-8.167c2.428-2.1 4.845-4.845 8.787-5.15a8.408 8.408 0 0 1 7.862 4.845l.003-.05Z"/><path fill="#1D1D1B" d="M41.801 108.637v1.513c3.931 0 8.471-.9 9.985 3.941a109.084 109.084 0 0 1 6.054 19.97c-3.027-7.263-3.027-18.152-10.29-23.3l-25.425 1.24c-3.637.914-8.776 0-11.509-3.027-2.1-1.818-1.209-5.749-.6-8.167 1.808-2.1 3.931-3.94 7.568-2.733a2.784 2.784 0 0 1 1.514 3.941c-2.722 1.818-3.027-3.637-5.455-.3a6.108 6.108 0 0 0 .914 6.306c6.36 4.2 16.04 3.027 23.007 2.1-2.733-1.209-6.359 1.219-8.482-1.209 2.428-3.931-.6-7.263-.9-11.194.9-1.513 3.027-.61 3.626.294l9.993 10.625Z"/><path fill="#fff" d="M40.592 108.973h-10.3c1.513-3.626-.6-7.263-1.209-10.9l.61-.294c4.15 3.19 7.82 6.96 10.899 11.194Z"/><path fill="gray" stroke="#1D1D1B" stroke-miterlimit="3.86" stroke-width=".72" d="M110.245 109.887a294.005 294.005 0 0 1-23.354 19.665l-9.985-9.354a23.342 23.342 0 0 1 8.776-16.649c3.637-3.332 7.872-4.2 12.413-5.455 4.2 2.1 8.471 7.872 12.108 11.814l.042-.021Z"/><path fill="#1D1D1B" d="M63.592 117.454c1.21 1.514 4.2.6 3.332 3.321a33.98 33.98 0 0 0-6.075 9.081c-3.637-2.417-3.027-7.568-4.54-11.5 0-2.1-1.515-4.845 0-6.306 3.331.61 4.2 4.845 7.262 5.455l.021-.051Z"/><path fill="#fff" d="m59.658 118.358.61-1.514c0 .3.294.9-.3 1.209 1.21-1.209 2.722 1.513 3.027 1.818.9-1.818.6 1.514 1.514.6v-.9c1.21 2.417-2.733 3.637-3.027 6.306a4.353 4.353 0 0 0-2.1.6l.914.914a1.144 1.144 0 0 0 .294-.914h.263c.3.3-.6 1.209-.3 1.513a37.089 37.089 0 0 1-3.332-11.5h.3l-.3-1.513c1.818.3 1.818 1.818 2.428 3.332l.01.049Z"/><path fill="#1D1D1B" d="M58.144 116.54h.3v1.209h-.3v-1.209Zm2.723 3.027.3-.9.61 1.209-.914-.3.004-.009Zm-1.819 1.818-.294-.914-.3.3 1.21-1.808c.3.909-1.52 1.508-.616 2.422Z"/><path fill="#fff" d="M78.713 128.038c-1.818.914-4.2 0-5.75-.9l2.1-1.818 3.65 2.718Z"/><path fill="#1D1D1B" stroke="#1D1D1B" stroke-miterlimit="3.86" stroke-width=".72" d="M121.103 154.673a45.425 45.425 0 0 1-11.2 13.874c-6.306-12.108-3.027-28.147 5.15-37.838l4.541-5.14c5.14 7.263 5.14 20.569 1.514 29.051l-.005.053Z"/><path fill="#1D1D1B" d="M80.816 131.37c-2.417 1.514-5.749.9-8.167-.3l-1.818-.9.3-.61c3.337 1.505 6.06 3.019 9.685 1.81Z"/><path fill="#1D1D1B" d="M82.056 133.483v.914c-4.2 2.1-9.985.294-13.664-2.722l.61-.914c3.931 3.027 8.167 4.845 13.012 2.722h.042Zm-36.02 7.263c-7.872 2.722-17.553 3.626-23.607-3.027-.914-.9-1.818-1.808-1.219-3.027 3.941-2.722 9.691-2.722 13.926-1.209a25.605 25.605 0 0 1 10.9 7.263Z"/><path fill="#fff" d="M43.913 139.237c-7.263-.3-14.525-.9-21.483-3.931 6.958-4.545 16.04-.309 21.483 3.931Z"/><path fill="#1D1D1B" d="M83.57 136.51c-2.428 2.417-6.359 2.417-9.69 1.818-3.028-.9-6.307-2.417-7.863-4.845 4.835 3.332 11.195 6.359 17.553 3.027Z"/><path fill="#1D1D1B" d="M80.816 142.27c1.818-.3 2.428-2.1 3.941-2.722 0 1.818-2.1 2.417-3.637 3.332-7.263 2.1-13.012-3.027-17.868-6.958 5.14 3.016 10.584 8.167 17.542 6.306l.022.042Z"/><path fill="#1D1D1B" d="m85.082 144.077.294.294c-1.808 1.818-3.931 4.2-7.568 3.637-6.958 0-11.194-5.14-16.638-7.862-1.818.9-4.2 0-4.845 2.417-.6-1.818 2.428-3.027 4.2-3.332 7.568 3.332 16.649 13.317 24.521 4.845l.036.001Z"/><path fill="gray" stroke="#1D1D1B" stroke-miterlimit="3.86" stroke-width=".72" d="M104.756 147.102c-.3 6.958 0 16.039 3.027 22.7a37.661 37.661 0 0 1-13.306 6.958 191.096 191.096 0 0 1-6.653-22.4c3.332-1.818 5.444-5.749 6.653-9.386l10.3 2.1-.021.028Z"/><path fill="#1D1D1B" d="M86.89 146.19c-6.306 8.482-19.665 3.637-28.441.914-.914-.914-3.027-.3-3.027-1.818 9.08 3.93 22.387 7.872 31.468.904Zm-19.065 30.88c-8.776-.9-16.04-5.749-23.607-10v-.9l13.926-11.8 11.8 2.1-2.1 20.59-.02.01Z"/><path fill="#fff" d="M68.739 157.394a80.247 80.247 0 0 1-2.428 19.066c-8.167-3.027-14.525-4.845-20.884-9.985l13.664-11.2 9.69 2.1-.042.019Z"/><path fill="gray" stroke="#1D1D1B" stroke-miterlimit="3.86" stroke-width=".72" d="M91.736 177.07a45.81 45.81 0 0 1-22.072.9l2.428-21.189c4.593.567 9.255.048 13.611-1.514 2.722 6.968 4.2 14.536 6.054 21.8l-.02.003Z"/><path fill="#fff" d="m123.824 164.353.3-.9h.3l-.61.9h.01Zm-12.108 12.107 1.209-.6v.9l-1.209-.3Z"/></svg>