<svg xmlns="http://www.w3.org/2000/svg" width="327" height="60" fill="none"><g clip-path="url(#a)"><mask id="b" width="44" height="45" x="0" y="11" maskUnits="userSpaceOnUse" style="mask-type:luminance"><path fill="#fff" d="M44 11.5H0v44h44v-44Z"/></mask><g mask="url(#b)"><path fill="#3FA41C" d="M44 11.5c-12.15 0-22 9.85-22 22v22c12.15 0 22-9.85 22-22v-22Z"/><path fill="#1844AB" d="M0 11.5v22c0 12.15 9.85 22 22 22v-22c0-12.15-9.85-22-22-22Z"/></g></g><path fill="#13244B" d="M78.05 15c3.2 0 5.767.933 7.7 2.8 1.933 1.867 2.9 4.333 2.9 7.4 0 3.2-1 5.733-3 7.6-1.967 1.833-4.633 2.75-8 2.75h-8.5V50H65.8V15h12.25Zm-.65 17.4c2.433 0 4.333-.633 5.7-1.9s2.05-3.017 2.05-5.25c0-2.267-.683-4.017-2.05-5.25-1.367-1.233-3.133-1.85-5.3-1.85h-8.65V32.4h8.25Zm20.927-12.5c-.433.467-.983.7-1.65.7-.667 0-1.25-.233-1.75-.7a2.314 2.314 0 0 1-.7-1.7c0-.633.233-1.183.7-1.65.5-.467 1.083-.7 1.75-.7.633 0 1.183.233 1.65.7.467.433.7.983.7 1.65 0 .667-.233 1.233-.7 1.7ZM94.977 50V25h3.35v25h-3.35Zm8.042 0 8.65-13-7.8-12h3.8l6 9.25h.3l5.85-9.25h3.85l-7.75 12 8.6 13h-3.85l-6.75-10.3h-.3l-6.75 10.3h-3.85Zm46.463-13.15c0 .533-.033.983-.1 1.35h-18.95c.1 2.867.9 5.167 2.4 6.9 1.534 1.7 3.534 2.55 6 2.55 1.8 0 3.317-.383 4.55-1.15 1.267-.8 2.134-1.95 2.6-3.45h3.25c-.533 2.367-1.733 4.2-3.6 5.5-1.866 1.3-4.133 1.95-6.8 1.95-3.466 0-6.283-1.167-8.45-3.5-2.166-2.333-3.25-5.417-3.25-9.25 0-4 1.084-7.2 3.25-9.6 2.167-2.433 4.934-3.65 8.3-3.65 3.134 0 5.717 1.083 7.75 3.25 2.034 2.167 3.05 5.2 3.05 9.1Zm-10.8-9.5c-2.266 0-4.15.783-5.65 2.35-1.5 1.567-2.35 3.533-2.55 5.9h15.7c-.033-2.467-.75-4.45-2.15-5.95-1.366-1.533-3.15-2.3-5.35-2.3ZM156.061 50V14.5h3.35V50h-3.35Zm32.897-35v3.2h-10.25V50h-3.45V18.2h-10.3V15h24Zm21.672 31.8c-2.3 2.467-5.217 3.7-8.75 3.7-3.533 0-6.45-1.233-8.75-3.7-2.267-2.5-3.4-5.6-3.4-9.3 0-3.733 1.133-6.833 3.4-9.3 2.3-2.467 5.217-3.7 8.75-3.7 3.5 0 6.417 1.25 8.75 3.75 2.333 2.467 3.5 5.55 3.5 9.25 0 3.733-1.167 6.833-3.5 9.3Zm-8.75.7c2.633 0 4.767-.967 6.4-2.9 1.667-1.933 2.5-4.3 2.5-7.1s-.833-5.167-2.5-7.1c-1.667-1.933-3.8-2.9-6.4-2.9-2.633 0-4.767.967-6.4 2.9-1.633 1.933-2.45 4.3-2.45 7.1s.817 5.167 2.45 7.1c1.667 1.933 3.8 2.9 6.4 2.9ZM233.812 15c3.2 0 5.766.933 7.7 2.8 1.933 1.867 2.9 4.333 2.9 7.4 0 3.2-1 5.733-3 7.6-1.967 1.833-4.634 2.75-8 2.75h-8.5V50h-3.35V15h12.25Zm-.65 17.4c2.433 0 4.333-.633 5.7-1.9 1.366-1.267 2.05-3.017 2.05-5.25 0-2.267-.684-4.017-2.05-5.25-1.367-1.233-3.134-1.85-5.3-1.85h-8.65V32.4h8.25ZM250.739 50V14.5h3.35V50h-3.35Zm31.08-2.65h.65V50h-1.65c-2.367 0-3.733-1.1-4.1-3.3-1.933 2.533-4.7 3.8-8.3 3.8-2.367 0-4.3-.583-5.8-1.75-1.467-1.2-2.2-2.967-2.2-5.3 0-2.267.783-4.05 2.35-5.35 1.6-1.3 3.717-2.067 6.35-2.3l7.3-.7v-1.65c0-1.867-.5-3.35-1.5-4.45-.967-1.1-2.4-1.65-4.3-1.65-3.267 0-5.217 1.75-5.85 5.25h-3.35c.267-2.4 1.2-4.35 2.8-5.85 1.633-1.5 3.767-2.25 6.4-2.25 2.8 0 5.017.783 6.65 2.35 1.667 1.567 2.5 3.733 2.5 6.5V45.2c0 1.433.683 2.15 2.05 2.15Zm-5.4-6.9V37.7l-6.4.6c-1.9.167-3.417.683-4.55 1.55s-1.7 2.05-1.7 3.55c0 1.467.467 2.55 1.4 3.25.933.7 2.133 1.05 3.6 1.05 2.067 0 3.85-.6 5.35-1.8 1.533-1.2 2.3-3.017 2.3-5.45Zm18.506 10.05c-1.967 0-3.4-.5-4.3-1.5-.9-1.033-1.35-2.383-1.35-4.05v-17.2h-5.3V25h1.7c1.467 0 2.483-.267 3.05-.8.567-.533.85-1.467.85-2.8v-3.2h3.05V25h6.05v2.75h-6.05v16.7c0 2.133 1.033 3.2 3.1 3.2a7.7 7.7 0 0 0 2.45-.4V50c-1.267.333-2.35.5-3.25.5Zm28.776-13.65c0 .533-.033.983-.1 1.35h-18.95c.1 2.867.9 5.167 2.4 6.9 1.534 1.7 3.534 2.55 6 2.55 1.8 0 3.317-.383 4.55-1.15 1.267-.8 2.134-1.95 2.6-3.45h3.25c-.533 2.367-1.733 4.2-3.6 5.5-1.866 1.3-4.133 1.95-6.8 1.95-3.466 0-6.283-1.167-8.45-3.5-2.166-2.333-3.25-5.417-3.25-9.25 0-4 1.084-7.2 3.25-9.6 2.167-2.433 4.934-3.65 8.3-3.65 3.134 0 5.717 1.083 7.75 3.25 2.034 2.167 3.05 5.2 3.05 9.1Zm-10.8-9.5c-2.266 0-4.15.783-5.65 2.35-1.5 1.567-2.35 3.533-2.55 5.9h15.7c-.033-2.467-.75-4.45-2.15-5.95-1.366-1.533-3.15-2.3-5.35-2.3Z"/><defs><clipPath id="a"><path fill="#fff" d="M0 11h44v45H0z"/></clipPath></defs></svg>