<svg xmlns="http://www.w3.org/2000/svg" width="363" height="52" fill="none"><path fill="#575757" d="M160.3 13.4c-4.4-7.9-12.8-13-22.4-13-14.2 0-25.6 10.8-25.6 25.6s11.5 25.5 25.7 25.5c10.3 0 18.9-5.5 23-14.3l-5.7-1.5C152.1 42 145.4 46 137.9 46c-11.1 0-19.7-8-19.7-19.9 0-11.9 8.4-20 19.7-20 6.9 0 13.2 3.4 16.6 8.8l5.8-1.5Zm95.9 37.3h6.2L241 1.4h-5.3l-21.4 49.3h6.2l5.5-12.9h24.7l5.5 12.9Zm-28-18 7.8-18.3c1.1-2.5 2.2-6 2.3-6h.1c.1 0 1.3 3.4 2.3 6l7.8 18.3h-20.3Zm47-31.3h-5.8v49.3h5.8V1.4Zm48.3 49.3-12-19.6c6.5-2.1 10.3-7.1 10.3-14.2 0-9.5-6.9-15.6-18.5-15.6h-15v49.3h5.8V32.3h9.2c.9 0 1.8 0 2.5-.1L317 50.7h6.5Zm-29.4-23.5V6.8h9.8c7.5 0 12 3.9 12 10.1 0 5.9-4.1 10.2-12 10.2l-9.8.1Z"/><path fill="#575757" d="M160.3 13.4c-4.4-7.9-12.8-13-22.4-13-14.2 0-25.6 10.8-25.6 25.6s11.5 25.5 25.7 25.5c10.3 0 18.9-5.5 23-14.3l-5.7-1.5C152.1 42 145.4 46 137.9 46c-11.1 0-19.7-8-19.7-19.9 0-11.9 8.4-20 19.7-20 6.9 0 13.2 3.4 16.6 8.8l5.8-1.5Zm95.9 37.3h6.2L241 1.4h-5.3l-21.4 49.3h6.2l5.5-12.9h24.7l5.5 12.9Zm-28-18 7.8-18.3c1.1-2.5 2.2-6 2.3-6h.1c.1 0 1.3 3.4 2.3 6l7.8 18.3h-20.3Zm47-31.3h-5.8v49.3h5.8V1.4Zm48.3 49.3-12-19.6c6.5-2.1 10.3-7.1 10.3-14.2 0-9.5-6.9-15.6-18.5-15.6h-15v49.3h5.8V32.3h9.2c.9 0 1.8 0 2.5-.1L317 50.7h6.5Zm-29.4-23.5V6.8h9.8c7.5 0 12 3.9 12 10.1 0 5.9-4.1 10.2-12 10.2l-9.8.1Z"/><mask id="a" fill="#fff"><path d="m160.3 13.4.2-.1C156 5.3 147.6.2 137.9.2c-7.1 0-13.6 2.7-18.2 7.3-4.7 4.6-7.5 11.1-7.5 18.5s2.9 13.9 7.5 18.5c4.7 4.6 11.1 7.3 18.2 7.3 10.4 0 19.2-5.7 23.3-14.5l.1-.2-6.1-1.7-.1.1c-3.2 6.1-9.8 10.1-17.2 10.1-11 0-19.5-7.9-19.5-19.8C118.4 14 126.7 6 137.9 6c6.9 0 13.1 3.4 16.4 8.7l.1.1 6.2-1.6-.1-.2-.2.4-.1-.2-5.9 1.5.1.2.2-.1c-3.4-5.5-9.8-8.9-16.7-8.9-5.7 0-10.7 2-14.2 5.6-3.5 3.6-5.7 8.5-5.7 14.5s2.2 11 5.7 14.6c3.5 3.6 8.5 5.6 14.1 5.6 7.6 0 14.3-4 17.6-10.3l-.2-.1-.1.2 5.7 1.5.1-.2-.2-.1c-4.1 8.7-12.7 14.3-22.9 14.3-14.1 0-25.4-10.7-25.4-25.5S123.7.5 137.8.5c9.6 0 17.8 5 22.2 12.9h.3Zm95.9 37.3v.2h6.5L241.1 1.2h-5.5L214 50.9h6.6l5.5-12.9h24.5l5.5 12.9h.1v-.2l.2-.1-5.5-13h-25l-5.5 12.9h-5.8l21.3-49h5l21.3 49h-5.9l-.1.2Zm-28-18 .2.1 7.8-18.3c.5-1.3 1.1-2.8 1.5-3.9.2-.6.4-1.1.6-1.5.1-.2.1-.3.2-.4l.1-.1-.1-.1v.2c.1 0 .1-.1.1-.1l-.1-.1v.2h.1v-.3l-.1.1s0 .1.1.1v-.2l-.1.1s.1.3.3.7c.4 1.1 1.3 3.4 2 5.3l7.7 18.1h-20.1l-.2.1v.2h20.6l-7.9-18.6c-.5-1.3-1.1-2.8-1.5-3.9-.2-.6-.4-1.1-.6-1.5-.1-.2-.1-.3-.2-.4l-.1-.1v-.1s0-.1-.1-.1h-.1c-.1 0-.1.1-.1.1l-.1.1c-.1.3-.4 1.1-.9 2.3-.4 1.1-.9 2.5-1.4 3.7L227.9 33h.3v-.3Zm47 18h.2V1.2h-6.1v49.7h6.1v-.2h-.2v-.2h-5.6v-49h5.4v49.1l.2.1Zm48.3 0 .2-.1-12-19.6-.2.1.1.2c6.6-2.1 10.4-7.2 10.4-14.3 0-4.8-1.8-8.8-5-11.5-3.2-2.7-7.9-4.3-13.7-4.3h-15.2v49.7h6.1V32.5h9c.9 0 1.8 0 2.5-.1v-.2l-.2.1 11.2 18.5h6.9l-.2-.3.1.2v-.2h-6.4L306 32.1h-.1c-.8.1-1.7.1-2.5.1H294v18.4h-5.4v-49h14.8c5.8 0 10.3 1.5 13.5 4.2 3.1 2.7 4.8 6.5 4.8 11.2 0 7-3.7 11.9-10.2 14l-.2.1 12.1 19.8.1-.2Zm-29.4-23.5h.2V7h9.6c3.7 0 6.7 1 8.7 2.7 2 1.7 3.1 4.2 3.1 7.3 0 2.9-1 5.4-3 7.2-2 1.8-4.9 2.8-8.8 2.8h-9.8v.4h9.8c4 0 7-1.1 9.1-2.9 2-1.9 3.1-4.5 3.1-7.5 0-3.2-1.1-5.8-3.2-7.6-2.1-1.8-5.1-2.8-8.9-2.8h-10v20.7h.2l-.1-.1Z"/></mask><path fill="#575757" d="m160.3 13.4.2-.1C156 5.3 147.6.2 137.9.2c-7.1 0-13.6 2.7-18.2 7.3-4.7 4.6-7.5 11.1-7.5 18.5s2.9 13.9 7.5 18.5c4.7 4.6 11.1 7.3 18.2 7.3 10.4 0 19.2-5.7 23.3-14.5l.1-.2-6.1-1.7-.1.1c-3.2 6.1-9.8 10.1-17.2 10.1-11 0-19.5-7.9-19.5-19.8C118.4 14 126.7 6 137.9 6c6.9 0 13.1 3.4 16.4 8.7l.1.1 6.2-1.6-.1-.2-.2.4-.1-.2-5.9 1.5.1.2.2-.1c-3.4-5.5-9.8-8.9-16.7-8.9-5.7 0-10.7 2-14.2 5.6-3.5 3.6-5.7 8.5-5.7 14.5s2.2 11 5.7 14.6c3.5 3.6 8.5 5.6 14.1 5.6 7.6 0 14.3-4 17.6-10.3l-.2-.1-.1.2 5.7 1.5.1-.2-.2-.1c-4.1 8.7-12.7 14.3-22.9 14.3-14.1 0-25.4-10.7-25.4-25.5S123.7.5 137.8.5c9.6 0 17.8 5 22.2 12.9h.3Zm95.9 37.3v.2h6.5L241.1 1.2h-5.5L214 50.9h6.6l5.5-12.9h24.5l5.5 12.9h.1v-.2l.2-.1-5.5-13h-25l-5.5 12.9h-5.8l21.3-49h5l21.3 49h-5.9l-.1.2Zm-28-18 .2.1 7.8-18.3c.5-1.3 1.1-2.8 1.5-3.9.2-.6.4-1.1.6-1.5.1-.2.1-.3.2-.4l.1-.1-.1-.1v.2c.1 0 .1-.1.1-.1l-.1-.1v.2h.1v-.3l-.1.1s0 .1.1.1v-.2l-.1.1s.1.3.3.7c.4 1.1 1.3 3.4 2 5.3l7.7 18.1h-20.1l-.2.1v.2h20.6l-7.9-18.6c-.5-1.3-1.1-2.8-1.5-3.9-.2-.6-.4-1.1-.6-1.5-.1-.2-.1-.3-.2-.4l-.1-.1v-.1s0-.1-.1-.1h-.1c-.1 0-.1.1-.1.1l-.1.1c-.1.3-.4 1.1-.9 2.3-.4 1.1-.9 2.5-1.4 3.7L227.9 33h.3v-.3Zm47 18h.2V1.2h-6.1v49.7h6.1v-.2h-.2v-.2h-5.6v-49h5.4v49.1l.2.1Zm48.3 0 .2-.1-12-19.6-.2.1.1.2c6.6-2.1 10.4-7.2 10.4-14.3 0-4.8-1.8-8.8-5-11.5-3.2-2.7-7.9-4.3-13.7-4.3h-15.2v49.7h6.1V32.5h9c.9 0 1.8 0 2.5-.1v-.2l-.2.1 11.2 18.5h6.9l-.2-.3.1.2v-.2h-6.4L306 32.1h-.1c-.8.1-1.7.1-2.5.1H294v18.4h-5.4v-49h14.8c5.8 0 10.3 1.5 13.5 4.2 3.1 2.7 4.8 6.5 4.8 11.2 0 7-3.7 11.9-10.2 14l-.2.1 12.1 19.8.1-.2Zm-29.4-23.5h.2V7h9.6c3.7 0 6.7 1 8.7 2.7 2 1.7 3.1 4.2 3.1 7.3 0 2.9-1 5.4-3 7.2-2 1.8-4.9 2.8-8.8 2.8h-9.8v.4h9.8c4 0 7-1.1 9.1-2.9 2-1.9 3.1-4.5 3.1-7.5 0-3.2-1.1-5.8-3.2-7.6-2.1-1.8-5.1-2.8-8.9-2.8h-10v20.7h.2l-.1-.1Z"/><path fill="#575757" d="m238.5 8.5-.353-.353-.147.146V8.5h.5Zm17.2 42.2v.2h1v-.2h-1ZM238.954 8.247l-.1-.1-.707.707.1.1.707-.707ZM238 8.5v.2h1v-.2h-1Zm.247-.453-.1.1.707.707.1-.1-.707-.707ZM275.2 51.2h.2v-1h-.2v1ZM160.3 13.4v1h.236l.211-.105-.447-.895Zm.2-.1.447.895.94-.47-.515-.915-.872.49Zm-40.8-5.8.7.715.007-.008-.707-.707Zm0 37-.707.707.008.008.699-.715Zm41.5-7.2-.894-.447-.006.012-.006.013.906.422Zm.1-.2.895.447.542-1.084-1.168-.326-.269.963Zm-6.1-1.7.269-.963-.563-.157-.413.413.707.707Zm-.1.1-.707-.707-.108.108-.07.135.885.464Zm-.7-20.7-.707.707.404.404.553-.143-.25-.968Zm6.2-1.6.25.969 1.198-.31-.553-1.106-.895.447Zm-.1-.2.895-.447-.895-1.789-.894 1.789.894.447Zm-.3.2.895-.447-.361-.72-.78.198.246.97Zm-5.8 1.7-.894.447.447.895.894-.447-.447-.895Zm.2-.1.447.895.979-.49-.575-.93-.851.525Zm.8 21.1.886.464.473-.902-.912-.456-.447.894Zm-.2-.1.447-.894-.894-.447-.447.894.894.447Zm-.1.2-.894-.447-.551 1.101 1.191.313.254-.967Zm5.7 1.5-.254.967.785.207.364-.727-.895-.447Zm.1-.2.895.447.447-.894-.895-.447-.447.894Zm-.2-.1.447-.894-.915-.458-.436.926.904.426Zm-.7-23.8-.873.487.286.513H160v-1Zm96.2 37.3-.894-.447-1.342 2.683 2.683-1.341-.447-.895Zm6.5.2v1h1.525l-.608-1.398-.917.398ZM241.1 1.2l.917-.398-.261-.602h-.656v1Zm-5.5 0v-1h-.656l-.261.602.917.398ZM214 50.9l-.917-.398-.608 1.398H214v-1Zm6.6 0v1h.661l.259-.608-.92-.392Zm5.5-12.9v-1h-.661l-.259.608.92.392Zm24.5 0 .92-.392-.259-.608h-.661v1Zm5.5 12.9-.92.392.259.608h.661v-1Zm.3-.3.447.895.84-.42-.366-.864-.921.39Zm-5.5-13 .921-.39-.258-.61h-.663v1Zm-25 0v-1h-.661l-.259.608.92.392Zm-5.5 12.9v1h.661l.259-.608-.92-.392Zm-5.8 0-.917-.398-.608 1.398h1.525v-1Zm21.3-49v-1h-.656l-.261.602.917.398Zm5 0 .917-.398-.261-.602h-.656v1Zm21.3 49v1h1.525l-.608-1.398-.917.398Zm-5.9 0v-1h-.618l-.276.553.894.447Zm-28.1-17.8-.447-.894-.553.276v.618h1Zm.2.1-.447.895.95.475.417-.978-.92-.392Zm7.8-18.3.92.392.007-.016.007-.017-.934-.359Zm1.5-3.9.94.342.005-.013.004-.013-.949-.316Zm.8-1.9-.707-.707.707.707Zm.1-.1h1-1Zm-.1-.1.949-.316-1.949.316h1Zm.1.2v1h1v-1h-1Zm.2.5.94-.342-.02-.054-.025-.051-.895.447Zm2 5.3-.938.346.008.023.01.023.92-.392Zm7.7 18.1v1h1.512l-.592-1.391-.92.391Zm-20.1 0v-1h-.236l-.211.106.447.894Zm-.2.3h-1v1h1v-1Zm20.6 0v1h1.511l-.59-1.39-.921.39Zm-7.9-18.6-.933.36.006.015.007.016.92-.39Zm-1.5-3.9-.948.316.004.013.004.013.94-.342Zm-.8-1.9.707-.707-.707.707Zm-.1-.1h-1v.414l.293.293.707-.707Zm0-.1h1-1Zm-.3 0 .707.707.293-.293V8.3h-1Zm-.1.1-.707-.707-.167.167-.074.224.948.316Zm-.9 2.3-.923-.384-.009.02-.008.022.94.342Zm-1.4 3.7.921.391.002-.006-.923-.385ZM227.9 33l-.92-.39-.591 1.39h1.511v-1Zm.3 0v1h1v-1h-1Zm47 17.7-.447.895 1.447.723V50.7h-1Zm.2-49.5h1v-1h-1v1Zm-6.1 0v-1h-1v1h1Zm0 49.7h-1v1h1v-1Zm6.1 0v1h1v-1h-1Zm-.2-.4h1v-1h-1v1Zm-5.6 0h-1v1h1v-1Zm0-49v-1h-1v1h1Zm5.4 0h1v-1h-1v1Zm0 49.1h-1v.618l.553.277.447-.895Zm48.7 0 .447.895.975-.488-.569-.929-.853.522Zm-12-19.6.853-.522-.479-.783-.821.41.447.895Zm-.2.1-.447-.894-.894.447.447.894.894-.447Zm.1.2-.894.447.382.766.815-.26-.303-.953ZM288.1 1.2v-1h-1v1h1Zm0 49.7h-1v1h1v-1Zm6.1 0v1h1v-1h-1Zm0-18.4v-1h-1v1h1Zm11.5-.1.142.99.858-.123V32.4h-1Zm0-.2h1v-1.618l-1.447.724.447.894Zm-.2.1-.447-.894-.97.485.562.927.855-.518Zm11.2 18.5-.855.518.292.482h.563v-1Zm6.9 0v1h1.869l-1.037-1.554-.832.554Zm-.2-.3.832-.554-1.726 1.001.894-.447Zm.1 0h1v-1h-1v1Zm-6.4 0-.856.517.292.483h.564v-1ZM306 32.1l.856-.516-.291-.484H306v1Zm-.1 0v-1h-.062l-.062.008.124.992Zm-11.9.1v-1h-1v1h1Zm0 18.4v1h1v-1h-1Zm-5.4 0h-1v1h1v-1Zm0-49v-1h-1v1h1Zm28.3 4.2.657-.754-.006-.005-.006-.005-.645.764ZM311.5 31l-.307-.951-.072.023-.068.034.447.894Zm-.2.1-.447-.894-.974.487.568.929.853-.522Zm12.1 19.8-.853.522.941 1.54.807-1.615-.895-.447Zm-29.1-23.7v1h1v-1h-1Zm0-20.2V6h-1v1h1Zm-.2 20v-1h-1v1h1Zm0 .4h-1v1h1v-1Zm18.9-2.9.651.76.019-.017.019-.018L313 24.5ZM294 6.6v-1h-1v1h1Zm0 20.7h-1v1h1v-1Zm.2 0v1h2.415l-1.708-1.707-.707.707ZM160.747 14.295l.2-.1-.894-1.79-.2.1.894 1.79Zm.625-1.485C156.696 4.497 147.964-.8 137.9-.8v2c9.336 0 17.404 4.903 21.729 12.59l1.743-.98ZM137.9-.8c-7.353 0-14.111 2.797-18.907 7.593l1.414 1.414C124.812 3.803 131.054 1.2 137.9 1.2v-2Zm-18.899 7.586C114.101 11.58 111.2 18.342 111.2 26h2c0-7.142 2.699-13.38 7.2-17.785l-1.399-1.43ZM111.2 26c0 7.668 3.007 14.421 7.793 19.207l1.414-1.414C115.993 39.38 113.2 33.133 113.2 26h-2Zm7.801 19.215c4.888 4.784 11.539 7.585 18.899 7.585v-2c-6.84 0-12.988-2.599-17.5-7.014l-1.399 1.429ZM137.9 52.8c10.78 0 19.939-5.917 24.207-15.078l-1.813-.844C156.362 45.318 147.921 50.8 137.9 50.8v2Zm24.195-15.053.1-.2-1.789-.894-.1.2 1.789.894Zm-.526-1.61-6.1-1.7-.537 1.927 6.1 1.7.537-1.927Zm-7.076-1.444-.1.1 1.414 1.414.1-.1-1.414-1.414Zm-.278.343c-3.021 5.758-9.272 9.564-16.315 9.564v2c7.758 0 14.707-4.194 18.086-10.635l-1.771-.93ZM137.9 44.6c-10.458 0-18.5-7.462-18.5-18.8h-2c0 12.463 8.958 20.8 20.5 20.8v-2Zm-18.5-18.8c0-5.658 1.986-10.346 5.257-13.618C127.93 8.91 132.544 7 137.9 7V5c-5.843 0-10.98 2.09-14.657 5.768-3.678 3.679-5.843 8.89-5.843 15.032h2ZM137.9 7c6.579 0 12.446 3.242 15.551 8.229l1.698-1.057C151.654 8.559 145.122 5 137.9 5v2Zm15.693 8.407.1.1 1.414-1.414-.1-.1-1.414 1.414Zm1.057.361 6.2-1.6-.5-1.936-6.2 1.6.5 1.936Zm6.845-3.015-.1-.2-1.789.894.1.2 1.789-.894Zm-1.889-.2-.2.4 1.789.894.2-.4-1.789-.894Zm1.589.4-.1-.2-1.789.894.1.2 1.789-.894Zm-1.241-.722-5.9 1.5.493 1.938 5.9-1.5-.493-1.938Zm-6.548 2.916.1.2 1.789-.894-.1-.2-1.789.894Zm1.441.648.2-.1-.894-1.79-.2.1.894 1.79Zm.604-1.52C151.853 8.454 145.117 4.9 137.9 4.9v2c6.584 0 12.647 3.245 15.85 8.426l1.701-1.052ZM137.9 4.9c-5.936 0-11.206 2.086-14.917 5.903l1.434 1.394C127.706 8.814 132.436 6.9 137.9 6.9v-2Zm-14.917 5.903C119.303 14.59 117 19.738 117 26h2c0-5.738 2.098-10.388 5.417-13.803l-1.434-1.394ZM117 26c0 6.257 2.299 11.508 5.983 15.297l1.434-1.394C121.101 36.493 119 31.743 119 26h-2Zm5.983 15.297c3.709 3.815 8.978 5.903 14.817 5.903v-2c-5.361 0-10.092-1.912-13.383-5.297l-1.434 1.394ZM137.8 47.2c7.953 0 15.005-4.19 18.486-10.836l-1.772-.928c-3.118 5.954-9.467 9.764-16.714 9.764v2Zm18.047-12.194-.2-.1-.894 1.789.2.1.894-1.79Zm-1.541.347-.1.2 1.789.894.1-.2-1.789-.894Zm.54 1.614 5.7 1.5.509-1.934-5.7-1.5-.509 1.934Zm6.849.98.1-.2-1.789-.894-.1.2 1.789.894Zm-.348-1.541-.2-.1-.894 1.789.2.1.894-1.79Zm-1.551.368C155.862 45.12 147.616 50.5 137.8 50.5v2c10.585 0 19.539-5.82 23.805-14.873l-1.809-.853ZM137.8 50.5c-13.56 0-24.4-10.265-24.4-24.5h-2c0 15.365 11.761 26.5 26.4 26.5v-2ZM113.4 26c0-14.235 10.84-24.5 24.4-24.5v-2c-14.639 0-26.4 11.135-26.4 26.5h2Zm24.4-24.5c9.236 0 17.102 4.803 21.327 12.387l1.747-.973C156.298 4.698 147.764-.5 137.8-.5v2ZM160 14.4h.3v-2h-.3v2Zm96.2 37.5h6.5v-2h-6.5v2Zm7.417-1.398-21.6-49.7-1.834.797 21.6 49.7 1.834-.797ZM241.1.2h-5.5v2h5.5v-2Zm-6.417.602-21.6 49.7 1.834.797 21.6-49.7-1.834-.797ZM214 51.9h6.6v-2H214v2Zm7.52-.608 5.5-12.9-1.84-.784-5.5 12.9 1.84.784ZM226.1 39h24.5v-2h-24.5v2Zm23.58-.608 5.5 12.9 1.84-.784-5.5-12.9-1.84.784ZM256.1 51.9h.1v-2h-.1v2Zm.547-.305.2-.1-.894-1.79-.2.1.894 1.79Zm.674-1.384-5.5-13-1.842.779 5.5 13 1.842-.78ZM250.9 36.6h-25v2h25v-2Zm-25.92.607-5.5 12.9 1.84.784 5.5-12.9-1.84-.784ZM220.4 49.5h-5.8v2h5.8v-2Zm-4.883 1.399 21.3-49-1.834-.797-21.3 49 1.834.797ZM235.9 2.5h5v-2h-5v2Zm4.083-.601 21.3 49 1.834-.797-21.3-49-1.834.797ZM262.2 49.5h-5.9v2h5.9v-2Zm-6.794.553-.1.2 1.789.894.1-.2-1.789-.894Zm-27.653-16.458.2.1.894-1.79-.2-.1-.894 1.79Zm1.567-.403 7.8-18.3-1.84-.784-7.8 18.3 1.84.784Zm7.814-18.333c.491-1.278 1.102-2.806 1.506-3.917l-1.88-.684c-.396 1.09-.985 2.562-1.493 3.883l1.867.718Zm1.515-3.943c.191-.572.373-1.024.546-1.369l-1.789-.894a12.54 12.54 0 0 0-.654 1.631l1.897.632Zm.546-1.369c.04-.08.07-.15.093-.208l.027-.07.014-.035c.005-.013-.004.013-.026.05a.637.637 0 0 1-.096.123l-1.414-1.414a1.427 1.427 0 0 0-.321.498c-.046.114-.041.112-.066.162l1.789.894Zm.012-.14.1-.1-1.414-1.414-.1.1 1.414 1.414Zm-.707.293a1.088 1.088 0 0 0 1.085-.92.972.972 0 0 0 .012-.104l.003-.041v-.033c0-.001 0-.002-1-.002h-1v-.016l.001-.016.002-.035a.902.902 0 0 1 .897-.833v2Zm0 0h.1v-2h-.1v2Zm1.1-1v-.3h-2v.3h2Zm-1.1-.2-1 .001v.016l.001.018.002.04a1.162 1.162 0 0 0 .115.422 1.092 1.092 0 0 0 .982.603v-2a.909.909 0 0 1 .898.833l.002.035v.031l-1 .001Zm1.1.1v-.2h-2v.2h2Zm-1.1-.1-.948.317v.001l.001.002.002.006.005.016.019.053a7.383 7.383 0 0 0 .327.752l1.789-.894a5.18 5.18 0 0 1-.236-.541l-.01-.027-.001-.004v.002h.001l-.949.317Zm-.64 1.042c.387 1.063 1.328 3.475 2.002 5.304l1.877-.691c-.727-1.971-1.586-4.16-1.999-5.297l-1.88.684Zm2.02 5.35 7.7 18.1 1.84-.783-7.7-18.1-1.84.783ZM248.5 31.6h-20.1v2h20.1v-2Zm-20.547.106-.2.1.894 1.789.2-.1-.894-1.79Zm-.753.994v.2h2v-.2h-2Zm1 1.2h20.6v-2h-20.6v2Zm21.521-1.39-7.9-18.6-1.841.781 7.9 18.6 1.841-.782Zm-7.887-18.569c-.509-1.321-1.098-2.793-1.494-3.883l-1.88.684c.404 1.11 1.015 2.639 1.507 3.917l1.867-.718Zm-1.485-3.857a12.685 12.685 0 0 0-.654-1.631l-1.789.894c.172.345.355.798.546 1.37l1.897-.633Zm-.654-1.631c-.026-.05-.021-.048-.066-.162a1.433 1.433 0 0 0-.322-.498l-1.414 1.414a.631.631 0 0 1-.095-.123c-.022-.037-.031-.063-.026-.05l.013.035.027.07c.023.057.053.127.094.208l1.789-.894Zm-.388-.66-.1-.1-1.414 1.414.1.1 1.414-1.414Zm.193.607v-.1h-2v.1h2Zm-1-.1h1v-.034l-.003-.041A1.096 1.096 0 0 0 238.4 7.2v2a.917.917 0 0 1-.888-.751.691.691 0 0 1-.009-.083l-.002-.035-.001-.016v-.014c0-.001 0-.002 1-.002Zm-.1-1.1h-.1v2h.1v-2Zm-.1 0a1.1 1.1 0 0 0-.982.603 1.162 1.162 0 0 0-.115.422l-.002.04-.001.019v.015l1 .001 1 .001v.031l-.002.035a.869.869 0 0 1-.091.33.909.909 0 0 1-.807.503v-2Zm-.807.393-.1.1 1.414 1.414.1-.1-1.414-1.414Zm-.341.491a42.019 42.019 0 0 1-.875 2.232l1.846.769c.503-1.207.814-2.034.926-2.369l-1.897-.632Zm-.892 2.274c-.404 1.111-.894 2.484-1.383 3.658l1.846.769c.511-1.227 1.021-2.654 1.417-3.743l-1.88-.684Zm-1.38 3.651-7.9 18.6 1.841.782 7.9-18.6-1.841-.782ZM227.9 34h.3v-2h-.3v2Zm1.3-1v-.3h-2v.3h2Zm47.2 17.7V1.2h-2v49.5h2Zm-1-50.5h-6.1v2h6.1v-2Zm-7.1 1v49.7h2V1.2h-2Zm1 50.7h6.1v-2h-6.1v2Zm7.1-1v-.2h-2v.2h2Zm-.2-.2v-.2h-2v.2h2Zm-1-1.2h-5.6v2h5.6v-2Zm-4.6 1v-49h-2v49h2Zm-1-48h5.4v-2h-5.4v2Zm4.4-1v49.1h2V1.5h-2Zm.553 49.995.2.1.894-1.79-.2-.1-.894 1.79Zm49.394.1.2-.1-.894-1.79-.2.1.894 1.79Zm.606-1.517-12-19.6-1.706 1.044 12 19.6 1.706-1.044Zm-13.3-19.972-.2.1.894 1.789.2-.1-.894-1.79Zm-.647 1.441.1.2 1.789-.894-.1-.2-1.789.894Zm1.297.706c3.474-1.105 6.262-3.019 8.179-5.637C321.999 23.997 323 20.733 323 17h-2c0 3.367-.899 6.203-2.532 8.435-1.633 2.231-4.045 3.918-7.171 4.912l.606 1.906ZM323 17c0-5.062-1.906-9.354-5.355-12.264l-1.29 1.528C319.306 8.754 321 12.462 321 17h2Zm-5.355-12.264C314.224 1.849 309.276.2 303.3.2v2c5.624 0 10.077 1.551 13.055 4.064l1.29-1.528ZM303.3.2h-15.2v2h15.2v-2Zm-16.2 1v49.7h2V1.2h-2Zm1 50.7h6.1v-2h-6.1v2Zm7.1-1V32.5h-2v18.4h2Zm-1-17.4h9v-2h-9v2Zm9 0c.876 0 1.856.002 2.642-.11l-.283-1.98c-.614.088-1.434.09-2.359.09v2Zm3.5-1.1v-.2h-2v.2h2Zm-1.447-1.094-.2.1.894 1.789.2-.1-.894-1.79Zm-.608 1.512 11.2 18.5 1.711-1.036-11.2-18.5-1.711 1.036ZM316.7 51.8h6.9v-2h-6.9v2Zm7.732-1.554-.2-.3-1.664 1.109.2.3 1.664-1.11Zm-1.926.701.1.2 1.789-.894-.1-.2-1.789.894Zm1.994-.247v-.2h-2v.2h2Zm-1-1.2h-6.4v2h6.4v-2Zm-5.544.484-11.1-18.4-1.712 1.033 11.1 18.4 1.712-1.033ZM306 31.1h-.1v2h.1v-2Zm-.224.008c-.727.09-1.562.092-2.376.092v2c.786 0 1.751.002 2.624-.108l-.248-1.984Zm-2.376.092H294v2h9.4v-2Zm-10.4 1v18.4h2V32.2h-2Zm1 17.4h-5.4v2h5.4v-2Zm-4.4 1v-49h-2v49h2Zm-1-48h14.8v-2h-14.8v2Zm14.8 0c5.63 0 9.88 1.454 12.855 3.964l1.29-1.528C314.12 2.146 309.37.6 303.4.6v2Zm12.843 3.954C319.106 9.047 320.7 12.562 320.7 17h2c0-4.962-1.805-9.047-5.143-11.954l-1.314 1.508ZM320.7 17c0 3.32-.875 6.079-2.468 8.245-1.594 2.168-3.956 3.807-7.039 4.804l.615 1.903c3.416-1.104 6.154-2.965 8.035-5.522 1.882-2.558 2.857-5.749 2.857-9.43h-2Zm-9.647 13.106-.2.1.894 1.789.2-.1-.894-1.79Zm-.606 1.516 12.1 19.8 1.706-1.043-12.1-19.8-1.706 1.043Zm13.848 19.725.1-.2-1.789-.894-.1.2 1.789.894ZM294.1 28.2h.2v-2h-.2v2Zm1.2-1V7h-2v20.2h2Zm-1-19.2h9.6V6h-9.6v2Zm9.6 0c3.532 0 6.28.955 8.053 2.462l1.295-1.524C311.02 7.045 307.768 6 303.9 6v2Zm8.053 2.462c1.745 1.484 2.747 3.689 2.747 6.538h2c0-3.35-1.198-6.146-3.452-8.062l-1.295 1.524ZM314.7 17c0 2.659-.909 4.873-2.669 6.457l1.338 1.486c2.24-2.016 3.331-4.801 3.331-7.943h-2Zm-2.669 6.457C310.267 25.045 307.633 26 303.9 26v2c4.067 0 7.234-1.045 9.469-3.056l-1.338-1.487ZM303.9 26h-9.8v2h9.8v-2Zm-10.8 1v.2h2V27h-2Zm0 .2v.2h2v-.2h-2Zm1 1.2h9.8v-2h-9.8v2Zm9.8 0c4.187 0 7.434-1.154 9.751-3.14l-1.302-1.52c-1.882 1.615-4.635 2.66-8.449 2.66v2Zm9.789-3.175c2.211-2.1 3.411-4.968 3.411-8.225h-2c0 2.743-.999 5.075-2.789 6.775l1.378 1.45ZM317.1 17c0-3.443-1.193-6.34-3.549-8.36l-1.302 1.52c1.844 1.58 2.851 3.883 2.851 6.84h2Zm-3.549-8.36c-2.327-1.994-5.58-3.04-9.551-3.04v2c3.63 0 6.376.954 8.249 2.56l1.302-1.52ZM304 5.6h-10v2h10v-2Zm-11 1v20.7h2V6.6h-2Zm1 21.7h.2v-2h-.2v2Zm.907-1.707-.1-.1-1.414 1.414.1.1 1.414-1.414Z" mask="url(#a)"/><path fill="#575757" d="M349.5 1.3c-1.9-.6-3.9-.9-6-.9-9.9 0-17.1 5.7-17.1 13.4 0 8.5 8.3 11.1 14 12.8 7 2.2 15.5 3.7 15.5 10.9 0 5.1-4.4 9-11.8 9-8 0-12.8-5.1-13.5-10.8l-5.6 1.5c1.5 8.3 8.2 14.5 18.8 14.5 10.9 0 18-6.1 18-14.4 0-9.6-9.4-12.7-16.3-14.7-6.5-2-13.4-3.7-13.4-9.1 0-4.9 4.6-8 11.1-8 2.2 0 4.4.5 6.2 1.4l.1-5.6Z"/><path fill="#DA9A23" d="M33.7 17.1c0-9.8-6.9-15.7-18.3-15.7H.2V7h15.2c7.6 0 12.3 3.6 12.3 10.1 0 6.3-4.4 10.2-12.3 10.2H.2v23.5H6V32.9h9.4c11.3 0 18.3-6 18.3-15.8Z"/><path fill="#DA9A23" d="M33.7 17.1h.2c0-4.9-1.8-8.9-4.9-11.7-3.2-2.7-7.8-4.2-13.6-4.2H0v6h15.4c3.8 0 6.8.9 8.9 2.6 2.1 1.7 3.2 4.1 3.2 7.3 0 3.1-1.1 5.6-3.1 7.3-2 1.7-5.1 2.7-9 2.7H0v23.8h6.2V33.1h9.2c5.7 0 10.4-1.5 13.6-4.3 3.2-2.8 4.9-6.8 4.9-11.7h-.4c0 4.9-1.7 8.7-4.8 11.4-3.1 2.7-7.6 4.2-13.3 4.2H5.8v17.8H.4V27.4h15c4 0 7.1-1 9.2-2.8 2.1-1.8 3.2-4.4 3.2-7.6 0-3.3-1.2-5.9-3.4-7.6-2.2-1.8-5.3-2.7-9.1-2.7H.3V1.6h15C21 1.6 25.5 3 28.7 5.7c3.2 2.7 4.8 6.5 4.8 11.4h.2Zm73-.2c0-9.8-6.9-15.7-18.3-15.7H73.3v5.6h15.2c7.6 0 12.3 3.6 12.3 10.1 0 6.3-4.3 10.2-12.3 10.2H73.3v23.5H79V32.7h9.4c11.4 0 18.3-6 18.3-15.8Z"/><path fill="#DA9A23" d="M106.7 16.9h.2c0-4.9-1.8-8.9-4.9-11.7C98.8 2.5 94.2 1 88.4 1H73.1v6h15.3c3.8 0 6.8.9 8.9 2.6 2.1 1.7 3.2 4.1 3.2 7.3 0 3.1-1.1 5.6-3.1 7.3-2 1.7-5.1 2.7-9 2.7H73.1v23.8h6.2V32.9h9.2c5.7 0 10.4-1.5 13.6-4.3 3.2-2.8 4.9-6.8 4.9-11.7h-.4c0 4.9-1.7 8.7-4.8 11.4-3.1 2.7-7.6 4.2-13.3 4.2h-9.6v17.8h-5.4v-23h15c4 0 7.1-1 9.2-2.8 2.1-1.8 3.2-4.4 3.2-7.6 0-3.3-1.2-5.9-3.4-7.6-2.2-1.8-5.3-2.7-9.1-2.7h-15V1.4h15c5.7 0 10.2 1.5 13.3 4.1 3.1 2.6 4.8 6.5 4.8 11.4h.2Z"/><path fill="#575757" d="M66.1 36.2c1.2-3 1.9-6.1 2.3-9.3h-5.9c-.2 1.6-.5 2.9-.7 3.8-.2.7-.5 1.6-.8 2.8 0 .1-.1.2-.1.3-.1.3-.2.7-.3 1.1-.5 1.2-1.4 3-2.9 5.4l-.4.6c-1 1.5-2.4 2.8-4.2 3.9-1.8 1.2-4 1.8-6.5 1.8-2.2 0-4.3-.7-6.2-2.2-2-1.5-2.9-3.5-2.9-6.2 0-2.5.8-4.6 2.3-6.3 1-1.1 3.1-2.8 6.3-5l5.5-3.1c2.8-1.9 4.8-3.5 5.9-4.9 2-2.4 3-5.3 3-8.5 0-2.8-1-5.2-3-7.2s-4.7-3-8.2-3c-3.7 0-6.6 1.1-8.8 3.2-2.2 2.2-3.3 4.9-3.3 8.1 0 1.6.4 3.2 1.1 4.9.7 1.7 2.2 3.7 4.3 6.2-3.9 2.3-6.5 4.3-7.9 5.9-2.3 2.6-3.5 5.8-3.5 9.6 0 3.6 1.2 6.8 3.6 9.6 2.4 2.8 6.2 4.2 11.4 4.2 3.5 0 6.7-.8 9.4-2.5 1.5-.9 3.3-2.4 5.1-4.5l4.7 5.8h8l-8.9-10.8c-.1 0-.1 0-.1-.1l.1.1c.1-.2.7-1.4 1.6-3.7Zm-23-25.4c0-1 .2-2 .8-2.8 1-1.7 2.7-2.5 5.3-2.5 1.7 0 3 .5 4 1.6s1.5 2.4 1.5 3.8c0 1.9-.7 3.6-2 5.2-.8 1-2.3 2.2-4.5 3.7-1.8-2-3.1-3.7-3.8-5-.7-1.3-1.3-2.6-1.3-4Z"/><path fill="#DA9A23" d="M176.6 0h-8.2v50.8h8.2V29.5h-8.2v-8.2h8.2V0Z"/><path fill="#36A7E9" d="M199.4 21.3h-22.8v8.2h22.8v-8.2Z"/><path fill="#32673E" d="M176.6 21.3h-8.2v8.2h8.2v-8.2Z"/><path fill="#C10077" d="m199.4 21.3 8.3 8.2h-8.3v21.3h8.3V29.5l-8.3-8.2Z"/><path fill="#381778" d="M199.4 21.3v8.2h8.3l-8.3-8.2Z"/></svg>