<svg xmlns="http://www.w3.org/2000/svg" width="169" height="70" fill="none"><path fill="#154679" d="M91.6 20.74a7.285 7.285 0 0 0-2.17-1.81c-.81-.44-1.73-.65-2.76-.65-.86 0-1.65.18-2.37.54-.73.36-1.36.84-1.9 1.44-.54.6-.96 1.28-1.27 2.04-.31.76-.46 1.55-.46 2.37 0 .82.16 1.65.47 2.43.32.78.75 1.47 1.31 2.07.56.6 1.21 1.08 1.95 1.44.74.36 1.54.54 2.4.54.99 0 1.85-.21 2.58-.63.73-.42 1.41-.99 2.04-1.71h4c-.36.84-.83 1.6-1.42 2.28-.59.68-1.27 1.27-2.03 1.75-.76.48-1.58.85-2.45 1.12-.87.27-1.75.4-2.64.4-1.33 0-2.59-.26-3.76-.77a9.75 9.75 0 0 1-3.07-2.1c-.87-.89-1.56-1.93-2.07-3.11a9.52 9.52 0 0 1-.76-3.75c0-1.32.25-2.53.76-3.68.5-1.15 1.19-2.16 2.07-3.03.87-.86 1.89-1.55 3.04-2.05 1.16-.5 2.39-.76 3.71-.76.94 0 1.86.13 2.75.4.89.27 1.71.64 2.46 1.13.75.49 1.43 1.08 2.04 1.77.61.69 1.1 1.48 1.48 2.35H91.6v-.02Zm15.59 13.6a9.55 9.55 0 0 1-3.73-.74 9.97 9.97 0 0 1-3.08-2.04 9.642 9.642 0 0 1-2.09-3.04 9.216 9.216 0 0 1-.77-3.75c0-1.34.25-2.61.76-3.79.5-1.17 1.2-2.19 2.08-3.07.88-.87 1.91-1.56 3.08-2.07 1.17-.5 2.43-.76 3.76-.76 1.33 0 2.59.25 3.77.76 1.18.5 2.21 1.19 3.08 2.07.87.87 1.57 1.9 2.08 3.07s.77 2.43.77 3.79c0 1.36-.26 2.58-.77 3.75a9.642 9.642 0 0 1-2.09 3.04 9.97 9.97 0 0 1-3.08 2.04c-1.17.5-2.43.74-3.76.74h-.01Zm0-16.02c-.87 0-1.69.17-2.45.51a6.319 6.319 0 0 0-3.31 3.43c-.32.78-.47 1.6-.47 2.48 0 .88.16 1.67.49 2.44.32.77.77 1.45 1.32 2.03.56.58 1.21 1.04 1.98 1.39.76.34 1.58.51 2.45.51.87 0 1.69-.17 2.45-.51.76-.34 1.42-.8 1.98-1.39.56-.58 1-1.26 1.32-2.03.32-.77.49-1.58.49-2.44 0-.86-.16-1.7-.47-2.48-.32-.78-.75-1.46-1.31-2.04a6.491 6.491 0 0 0-1.98-1.39c-.76-.34-1.59-.51-2.48-.51h-.01Zm24.07 16.02h-4.31l-6.93-10.04h4.08c.46 0 .9-.06 1.32-.18.42-.12.78-.3 1.09-.54.31-.24.55-.54.73-.91.18-.37.27-.81.27-1.32s-.09-.93-.28-1.3c-.19-.37-.44-.67-.76-.91s-.68-.42-1.09-.54a4.55 4.55 0 0 0-1.28-.18h-5.85v-3.31h5.88c.86 0 1.68.08 2.48.24.8.16 1.54.51 2.22 1.04.72.56 1.27 1.25 1.67 2.07.39.81.59 1.68.59 2.61 0 .82-.16 1.65-.47 2.49-.32.84-.77 1.54-1.37 2.1-.5.48-.99.83-1.48 1.04-.49.21-1.06.4-1.71.55l5.21 7.08-.01.01Zm13.52-17.74c.65.56 1.12 1.22 1.41 1.98.29.75.44 1.57.44 2.44 0 .87-.15 1.69-.44 2.44a5.16 5.16 0 0 1-1.41 2 5.7 5.7 0 0 1-2.57 1.31c-.45.1-.9.17-1.37.19-.47.03-.97.04-1.5.04h-4.15v-3.36h.08c.46 0 4.64-.03 5.12-.08.48-.05.92-.17 1.31-.35.39-.18.71-.44.96-.78s.37-.81.37-1.41c0-.6-.12-1.05-.35-1.4-.23-.35-.53-.62-.91-.81-.38-.19-.8-.31-1.26-.36-.46-.05-.92-.08-1.39-.08h-1.31v15.96h-3.57v-19.3h5.08c.53 0 1.03.01 1.5.04s.93.09 1.37.19c.44.1.88.26 1.31.46.43.21.85.5 1.26.87l.02.01Zm13.74 17.74a9.55 9.55 0 0 1-3.73-.74 9.97 9.97 0 0 1-3.08-2.04 9.642 9.642 0 0 1-2.09-3.04 9.216 9.216 0 0 1-.77-3.75c0-1.34.25-2.61.76-3.79.5-1.17 1.2-2.19 2.08-3.07.88-.87 1.91-1.56 3.08-2.07 1.17-.5 2.43-.76 3.76-.76 1.33 0 2.59.25 3.77.76 1.18.5 2.21 1.19 3.08 2.07.87.87 1.57 1.9 2.08 3.07s.77 2.43.77 3.79c0 1.36-.26 2.58-.77 3.75a9.642 9.642 0 0 1-2.09 3.04 9.97 9.97 0 0 1-3.08 2.04c-1.17.5-2.43.74-3.76.74h-.01Zm0-16.02c-.87 0-1.69.17-2.45.51a6.319 6.319 0 0 0-3.31 3.43c-.32.78-.47 1.6-.47 2.48 0 .88.16 1.67.49 2.44.32.77.77 1.45 1.32 2.03.56.58 1.21 1.04 1.98 1.39.76.34 1.58.51 2.45.51.87 0 1.69-.17 2.45-.51.76-.34 1.42-.8 1.98-1.39.56-.58 1-1.26 1.32-2.03.32-.77.49-1.58.49-2.44 0-.86-.16-1.7-.47-2.48-.32-.78-.75-1.46-1.31-2.04a6.491 6.491 0 0 0-1.98-1.39c-.76-.34-1.59-.51-2.48-.51h-.01ZM78 36h3.57v15.97h5.85v3.31H78V36Zm11.75.03h3.52v19.25h-3.52V36.03Zm17.12 18.12c-.68.48-1.48.79-2.37.92-.9.14-1.76.21-2.58.21h-5.16V36.03h4.16c.5 0 .99.01 1.49.04s.98.09 1.45.18.93.24 1.39.44c.45.2.88.47 1.27.83.5.45.89.99 1.18 1.63.29.64.44 1.3.44 1.96 0 1.63-.71 2.85-2.13 3.67 2.17.8 3.26 2.4 3.26 4.8 0 .94-.21 1.81-.62 2.59-.41.79-1 1.45-1.77 1.98h-.01Zm-5.08-14.81h-1.46v4.21h1.36c.34 0 .68-.03 1.03-.09.34-.06.65-.17.92-.32s.5-.37.67-.64c.17-.27.26-.62.26-1.05 0-.43-.08-.75-.23-1.01a1.73 1.73 0 0 0-.62-.64c-.26-.16-.55-.28-.89-.35-.33-.07-.68-.1-1.04-.1v-.01Zm.41 7.52h-1.87v5.11h1.8c.43 0 .85-.03 1.27-.1.42-.07.8-.2 1.14-.38.34-.19.62-.44.83-.77.21-.32.32-.75.32-1.28 0-.48-.1-.89-.31-1.22-.21-.33-.47-.6-.81-.8-.33-.2-.71-.34-1.13-.42-.42-.09-.83-.13-1.24-.13v-.01ZM112.37 36h10.37v3.36h-6.8v4.7h3.85v3.34h-3.85v4.54h6.8v3.34h-10.37V36Zm25.76 19.28h-4.31l-6.93-10.04h4.08c.46 0 .9-.06 1.32-.18.42-.12.78-.3 1.09-.54.31-.24.55-.54.73-.91.18-.37.27-.81.27-1.32s-.09-.93-.28-1.3c-.19-.37-.44-.67-.76-.91s-.68-.42-1.09-.54a4.55 4.55 0 0 0-1.28-.18h-5.85v-3.31H131c.86 0 1.68.08 2.48.24.8.16 1.54.51 2.22 1.04.72.56 1.27 1.25 1.67 2.07.39.81.59 1.68.59 2.61 0 .82-.16 1.65-.47 2.49-.32.84-.77 1.54-1.37 2.1-.5.48-.99.83-1.48 1.04-.49.21-1.06.4-1.71.55l5.21 7.08-.01.01Zm11.94 0a9.55 9.55 0 0 1-3.73-.74 9.97 9.97 0 0 1-3.08-2.04 9.642 9.642 0 0 1-2.09-3.04 9.216 9.216 0 0 1-.77-3.75c0-1.34.25-2.61.76-3.79.5-1.17 1.2-2.19 2.08-3.07.88-.87 1.91-1.56 3.08-2.07 1.17-.5 2.43-.76 3.76-.76 1.33 0 2.59.25 3.77.76 1.18.5 2.21 1.19 3.08 2.07.87.87 1.57 1.9 2.08 3.07s.77 2.43.77 3.79c0 1.36-.26 2.58-.77 3.75a9.642 9.642 0 0 1-2.09 3.04 9.97 9.97 0 0 1-3.08 2.04c-1.17.5-2.43.74-3.76.74h-.01Zm0-16.02c-.87 0-1.69.17-2.45.51a6.319 6.319 0 0 0-3.31 3.43c-.32.78-.47 1.6-.47 2.48 0 .88.16 1.67.49 2.44.32.77.77 1.45 1.32 2.03.56.58 1.21 1.04 1.98 1.39.76.34 1.58.51 2.45.51.87 0 1.69-.17 2.45-.51.76-.34 1.42-.8 1.98-1.39.56-.58 1-1.26 1.32-2.03.32-.77.49-1.58.49-2.44 0-.86-.16-1.7-.47-2.48-.32-.78-.75-1.46-1.31-2.04a6.491 6.491 0 0 0-1.98-1.39c-.76-.34-1.59-.51-2.48-.51h-.01ZM34.93 69.87C15.67 69.87 0 54.19 0 34.93 0 15.67 15.67 0 34.93 0c19.26 0 34.93 15.67 34.93 34.93 0 19.26-15.67 34.93-34.93 34.93v.01Z"/><mask id="a" width="70" height="70" x="0" y="0" maskUnits="userSpaceOnUse" style="mask-type:alpha"><path fill="#154679" d="M34.93 69.87C15.67 69.87 0 54.19 0 34.93 0 15.67 15.67 0 34.93 0c19.26 0 34.93 15.67 34.93 34.93 0 19.26-15.67 34.93-34.93 34.93v.01Z"/></mask><g fill="#fff" mask="url(#a)"><path d="M31.922 20.515c3.573-.773 5.933-3.888 5.269-6.957-.664-3.07-4.099-4.932-7.672-4.16-3.574.774-5.933 3.888-5.27 6.958.664 3.07 4.1 4.931 7.673 4.159Z"/><path d="M33.96 24.261c8.866-1.626 16.356-7.49 17.857-9.306l2.874 8.55s-4.616 3.358-12.61 6.107c0 0 12.16-1.217 21.727 7.375C71.037 43.47 70.89 50.96 70.89 50.96l-8.09 8.5s-1.248-13.607-9.988-19.104c-8.739-5.498-18.611-2.078-22.105.126-6.578 4.154-12.296 14.383-15.17 27.245l-9.862-3s5.182-24.35 20.542-32.114c0 0-14.562 1.542-26.218-3l1.878-10.104s13.051 8.236 32.093 4.742l-.01.011Z"/></g></svg>