<svg xmlns="http://www.w3.org/2000/svg" width="288" height="76" fill="none"><path fill="currentColor" d="M34.35 20.15s-.51.16-1.35.42c-.14-.46-.35-1.02-.65-1.58-.96-1.82-2.35-2.79-4.04-2.79-.11 0-.23.01-.34.02h-.01s-.03-.04-.05-.06c0 0-.07-.08-.1-.12-.73-.79-1.68-1.17-2.81-1.14-2.18.06-4.36 1.64-6.12 4.44-1.24 1.97-2.18 4.45-2.45 6.36-2.51.78-4.26 1.32-4.3 1.33-1.26.4-1.3.44-1.47 1.63-.13.9-3.44 26.51-3.44 26.51l27.47 4.75V20.1c-.13 0-.26.03-.33.05h-.01ZM28 22.12l-1.78.55c-.93.29-1.89.58-2.85.88.45-1.72 1.3-3.42 2.34-4.54.39-.41.93-.88 1.57-1.14.6 1.26.73 3.05.72 4.25Zm-2.97-5.77c.51-.01.94.1 1.31.35-.59.31-1.16.74-1.7 1.32-1.39 1.49-2.45 3.8-2.87 6.02-1.32.41-2.62.81-3.8 1.18.75-3.51 3.69-8.77 7.06-8.87Zm-4.25 19.98c.06.92 1.05 1.56 2.26 2.33 1.84 1.18 4.18 2.68 4.38 5.99.27 4.31-2.29 7.25-5.97 7.49-4.42.28-6.85-2.33-6.85-2.33l.94-3.99s2.45 1.85 4.41 1.72c1.28-.08 1.74-1.12 1.69-1.86-.08-1.34-1.09-2.05-2.23-2.86-1.45-1.03-3.11-2.21-3.29-5.02-.27-4.22 2.5-8.49 8.61-8.87 2.35-.15 3.56.45 3.56.45l-1.4 5.23s-1.56-.71-3.4-.59c-2.71.17-2.74 1.88-2.71 2.31Zm8.67-14.66c-.01-1.1-.15-2.65-.66-3.97 1.66.31 2.47 2.19 2.82 3.31-.64.2-1.37.42-2.15.67l-.01-.01Zm120.98 11.07h-3.82l.2-.92c.32-1.87 1.44-3.55 3.27-3.55.98 0 1.75.28 1.75.28l1.08-4.3s-.96-.48-2.99-.48c-2.03 0-3.9.56-5.38 1.83-1.87 1.59-2.75 3.9-3.19 6.21l-.16.92h-2.55l-.8 4.14h2.55l-2.91 15.37h5.5l2.91-15.37h3.78l.76-4.14v.01Zm-73.29 2.51c1.47-1.75 3.38-2.91 5.81-2.91 2.87 0 4.5 1.87 4.5 4.98 0 .96-.16 2.39-.4 3.59L84.9 52.26h-5.5l2.07-10.99c.16-.76.24-1.68.24-2.43 0-1.2-.48-2.03-1.71-2.03-1.76 0-3.63 2.23-4.34 5.85l-1.83 9.6h-5.5l5.34-28.08h5.5l-2.11 11.03.08.04Zm-15.97 3.02c0 .88.72 1.52 2.11 2.27 2.15 1.24 3.94 2.91 3.94 5.26 0 4.38-3.55 6.81-8.49 6.81-3.4 0-5.42-1.36-5.42-1.36l1.36-3.9s2.19 1.2 4.5 1.2c1.56 0 2.39-.88 2.39-1.87 0-.99-.6-1.67-2.27-2.63-2.07-1.2-3.62-2.87-3.62-5.06 0-3.87 3.33-6.61 8.13-6.61 3.44 0 4.62.92 4.62.92l-1.28 3.9s-1.62-.76-3.43-.76c-1.56 0-2.55.72-2.55 1.83h.01Zm38.71-5.93c-6.61 0-10.99 5.97-10.99 12.63 0 4.26 2.63 7.69 7.57 7.69 6.49 0 10.87-5.81 10.87-12.63 0-3.94-2.31-7.69-7.45-7.69Zm-2.7 16.09c-1.87 0-2.67-1.59-2.67-3.58 0-3.15 1.63-8.29 4.62-8.29 1.95 0 2.59 1.67 2.59 3.31 0 3.39-1.63 8.56-4.54 8.56Zm18.4-12.82s2.1-3.27 5.81-3.27c4.02 0 5.65 3.31 5.65 7.01 0 6.69-4.22 13.3-10.68 13.3-2.1 0-3.23-.72-3.23-.72h-.12l-1.51 8.13H106l3.82-20.11c.44-2.27.88-5.3 1.12-7.29h4.86l-.32 2.95h.1Zm-1.72 12.11s.84.8 2.27.8c3.07 0 5.18-5.05 5.18-8.6 0-1.48-.52-3.03-2.19-3.03-1.91 0-3.71 2.27-4.34 5.69l-.92 5.14Zm21.04-23.26c-1.75 0-3.15 1.4-3.15 3.19 0 1.63 1.04 2.75 2.59 2.75h.08c1.71 0 3.19-1.16 3.23-3.19 0-1.59-1.08-2.75-2.75-2.75Zm-2.2 27.79h-5.49l3.7-19.48h5.54l-3.75 19.48Zm25.98-6.09c1.54-4.73 4.98-13.38 4.98-13.38h5.73l-6.73 14.42c-2.39 4.94-4.7 8.56-7.21 10.91-1.95 1.83-4.26 2.75-5.38 2.99l-1.51-4.66c.92-.32 2.07-.8 3.11-1.56 1.28-.88 2.35-2.07 2.99-3.31.16-.28.2-.52.12-.92l-3.31-17.89h5.77s1.25 11.86 1.36 13.38h.08v.02ZM46.98 56.98l-11.4 2.83V20.53l2.69 2.62s3.21.05 3.37.06c.17.01.36.14.4.37.03.23 4.94 33.4 4.94 33.4Zm126.12-4.94c-.47 1.71-.76 3.47-1.06 5.24-.13.76-.25 1.51-.39 2.27-.67.74-1.33.68-2.06.11l.64-3.49v-.03c1.37-7.45 2.72-14.87 4.09-22.28.03-.17.12-.33.21-.47.04-.06.07-.12.1-.18.57-.21 1.06-.22 1.62-.01l-.06.54c-.08.64-.17 1.29.04 2.04.32-.27.61-.54.9-.81.57-.53 1.13-1.04 1.78-1.45 1.61-1.01 3.37-1.11 5.06-.71 1.8.43 2.58 2.03 3.07 3.72.97 3.33-.04 6.38-1.34 9.37-.81 1.86-1.98 3.51-3.63 4.73-2.34 1.73-4.89 2.59-7.83 1.64-.1-.03-.19-.08-.28-.13-.25-.13-.51-.27-.85-.1h-.01Zm11.22-16.5c-1.87-1.77-3.52-1.3-4.96-.32-1.62 1.1-2.92 2.62-3.6 4.48-1.21 3.31-1.77 6.77-2.22 10.21 3.58 1.88 7.22.13 8.86-2.51.79-1.27 1.44-2.58 2.01-3.95.32-.77.44-1.57.56-2.38l.03-.22c.19-1.21.2-2.45-.02-3.66-.11-.63-.27-1.21-.66-1.64v-.01Zm16.03 16.5c.6.33 1.11.24 1.89.06-.24-4.28.61-8.38 1.46-12.51.43-2.11.87-4.24 1.17-6.4-2.09-.89-4.35-.74-6.54-.28-2.86.61-4.95 2.5-6.62 4.8-2.12 2.93-3.09 6.2-2.82 9.86.15 1.99.95 3.59 2.6 4.51 1.72.96 3.56.76 5.31-.36 1.34-.86 2.31-2.03 3.35-3.42.13.68.11 1.33.09 1.94-.02.63-.04 1.22.11 1.78v.02Zm1.99-17.44c.06.04.13.1.22.17-.16.8-.31 1.61-.45 2.4-.33 1.82-.67 3.6-1.09 5.37-.56 2.27-1.65 4.33-3.21 6.1-1.32 1.49-2.92 2.34-5.09 1.95-1.29-.76-1.74-2.03-1.78-3.54-.13-4.1 1.22-7.64 4.18-10.45 1.8-1.71 4.08-2.42 6.59-2.26.13 0 .26.04.37.1.08.04.14.09.26.17v-.01Zm55.94-.77c.91 1.42 1.37 2.81.83 4.46-.48 1.46-1.49 2.38-2.73 3.13-1.83 1.1-3.84 1.46-5.94 1.49h-.5c-.8-.02-1.63-.05-2.34.72v.78c0 .6.02 1.22-.02 1.85-.16 2.86 2.31 5.2 5.84 4.23.59-.16 1.17-.4 1.73-.63.25-.1.51-.21.76-.3.48.27.72.62.67 1.16-.11.48-.47.82-.87.97-2.2.84-4.46 1.35-6.77.47-1.41-.53-2.4-1.58-2.89-2.99-.75-2.15-1.1-4.32-.49-6.64.75-2.87 1.91-5.48 3.96-7.65 2.08-2.2 6.04-3.19 8.75-1.02l.01-.03Zm-10.26 7.3c2 .38 3.8-.06 5.59-.5h.03c1.11-.28 1.99-.77 2.62-1.51.93-1.08 1.02-2.7.19-3.86-.73-1.01-1.7-1.17-3.24-.67-.43.14-.83.3-1.22.54-2.25 1.37-3.22 3.55-3.97 6ZM238.3 52.1c.73.2 1.29.25 1.77 0 .33-.27.44-.56.5-.89l.07-.42c.56-3.15 1.13-6.3 1.76-9.43.05-.24.1-.48.16-.72.24-1.08.48-2.18.35-3.3-.22-1.88-.76-3.63-2.69-4.39-1.41-.55-2.91-.47-4.35.11-1.54.62-2.66 1.77-3.86 3.34.05-.35.12-.68.19-.99.19-.85.34-1.59-.09-2.34-.17.02-.33 0-.5 0-.42-.03-.83-.06-1.18.38-.01 2.02-.44 4-.86 5.98-.22 1.03-.44 2.07-.61 3.11-.31 1.95-.69 3.88-1.06 5.82-.21 1.09-.42 2.18-.62 3.27-.02.1.05.23.11.34.03.05.06.1.08.15.55.19 1.04.2 1.63-.03.05-.18.11-.36.17-.55.15-.45.3-.92.39-1.42v-.04c.48-2.84.96-5.68 1.57-8.5.64-2.98 2.22-5.36 4.95-6.87 1.49-.83 3.7-.34 4.27 1 .35.82.62 1.72.44 2.65l-.9 4.77v.02c-.16.86-.33 1.73-.49 2.59-.2 1.05-.39 2.11-.59 3.16-.2 1.07-.4 2.13-.59 3.18l-.02.02Zm42.49-18.49c-.06.6-.28.98-.63 1.39-.22-.06-.44-.13-.67-.2-.55-.17-1.11-.35-1.68-.47-.59-.13-1.13.07-1.73.28-.28.1-.57.2-.88.28-.06.07-.13.16-.22.27l-.04.06c-.08.1-.17.2-.26.31-1.23 1.49-1.24 3.15.06 4.56.57.62 1.18 1.17 1.9 1.66 1.93 1.3 2.88 3.2 2.6 5.51-.28 2.29-1.59 3.89-3.78 4.78-2.49 1.02-4.33.82-6.31-.81.07-.52.25-.97.79-1.38 2.02.77 4.14 1.5 6.26-.33 1.4-2.1 1.28-2.46.6-4.44l-.06-.18c-.12-.12-.23-.24-.35-.35-.73-.75-1.5-1.53-2.43-2.19-1.73-1.22-2.43-3.03-2.11-5.12.33-2.16 1.65-3.76 3.69-4.33 1.75-.49 3.71-.67 5.27.72l-.02-.02Zm-57.2-.59h4.33l-.14.56c-.09.36-.17.67-.26 1.04h-4.35c-.47 2.44-.91 4.76-1.36 7.08-.1.54-.21 1.08-.32 1.61-.27 1.35-.54 2.7-.74 4.06-.01.1-.03.19-.05.29-.17 1.03-.35 2.14.95 2.93.52.03 1.16.05 1.75.08.47.4.38.84.28 1.28-2.7 1.5-4.97.21-5.08-2.79-.06-1.62.28-3.16.61-4.71.14-.65.28-1.3.4-1.96.3-1.77.64-3.53.97-5.28.14-.75.29-1.51.43-2.26-.48-.3-.97-.29-1.44-.28-.33 0-.67.01-.99-.09-.19-.28-.08-.53.02-.77.08-.19.15-.37.09-.57.49-.24.96-.23 1.42-.22.35 0 .71 0 1.06-.09.46-.43.54-1 .64-1.61.1-.66.21-1.36.78-1.99.18-.17.7-.38 1.32-.51.03.06.06.11.1.17.07.12.14.24.13.34-.11.85-.25 1.69-.38 2.56-.06.36-.11.72-.17 1.1v.03Zm-13.84.12s.06 0 .1-.01c.57-.09.92-.14 1.27.13.21.37.18.78.15 1.2-.03.4-.06.8.12 1.18 1.4-1.81 2.95-3.29 5.49-2.9.36.6.11 1.02-.13 1.43-.07.12-.14.24-.2.37-1.92.29-3.3 1.22-4.41 2.85-1.46 2.12-1.92 4.5-2.4 6.9l-.03.16c-.34 1.73-.65 3.46-.96 5.18-.13.72-.26 1.44-.39 2.15-.55.6-1.13.52-1.8.44-.11-.01-.22-.03-.33-.04.23-1.2.45-2.39.66-3.57.37-2 .73-3.98 1.14-5.94.46-2.19.8-4.41 1.14-6.64l.45-2.86c.04 0 .09-.01.13-.02v-.01Zm50.59 19c.46.2.96.17 1.59-.03.17-.85.35-1.7.53-2.54.42-1.97.84-3.91 1.12-5.86.29-2.02.89-3.9 1.89-5.64 1.06-1.84 2.38-3.4 4.77-3.44.07 0 .13-.06.22-.14.04-.04.1-.09.15-.13-.01-.15 0-.3.03-.46.05-.38.1-.78-.28-1.16-2.66-.41-4.14 1.26-5.42 3.32-.25-.61-.1-1.14.05-1.64.1-.35.2-.69.13-1.01-.28-.34-.55-.34-.8-.34h-.15c-.27 0-.56-.01-.82.24-.05.26-.11.52-.17.78-.13.58-.27 1.18-.34 1.79-.29 2.63-.81 5.21-1.33 7.79-.16.82-.33 1.63-.48 2.45-.32 1.7-.64 3.4-.93 5.11-.05.31-.07.65.25.92l-.01-.01Z"/></svg>